<svg width="106" height="61" viewBox="0 0 106 61" fill="none" xmlns="http://www.w3.org/2000/svg">
<path id="Vector" d="M104.307 16.1203C97.0176 1.87723 73.4641 0.46042 59.2638 0.0662552C45.8719 0.0219559 32.5213 1.55302 19.487 4.6279C13.0093 6.20186 6.60333 8.08459 0.448162 10.5945C0.2724 10.6468 0.348535 10.9461 0.538118 10.8838C28.7627 3.07315 59.8867 -0.968028 88.4198 7.32702C120.657 18.6288 91.1355 44.1483 75.267 55.2029C76.804 51.2125 80.2479 42.1367 81.7454 38.2346C81.5318 38.4137 84.8546 30.8975 83.894 31.6547C80.6455 36.4573 78.0094 41.664 75.5843 46.9126C74.6528 48.9227 73.6936 51.1753 72.8467 53.2267C72.3361 54.9531 70.8616 56.6719 71.6127 58.5275C73.6184 62.436 78.7862 57.7557 81.5861 56.8793C83.0384 56.1539 84.8492 55.2234 86.2808 54.4591C90.9506 51.9144 95.6104 49.1992 99.8453 45.9569C99.8718 45.9338 99.8893 45.902 99.8946 45.8672C99.9 45.8324 99.8929 45.7968 99.8747 45.7667C99.8564 45.7366 99.8281 45.7139 99.7947 45.7026C99.7614 45.6913 99.7251 45.6921 99.6923 45.7049L93.2497 48.5257C89.2263 50.3315 78.7944 54.9681 74.6464 56.8287L74.979 55.9576C87.0133 48.4544 110.794 32.8513 104.307 16.1203Z" fill="#00715D"/>
</svg>
