<svg width="150" height="101" viewBox="0 0 150 101" fill="none" xmlns="http://www.w3.org/2000/svg">
<path id="Vector" d="M149.771 46.4039C144.115 23.0798 110.252 12.7826 89.6751 7.24542C70.1554 2.50112 50.1454 0.0692717 30.0576 0C20.0583 0.0323905 10.0558 0.540273 0.200028 2.05064C-0.0746433 2.06554 -0.0681651 2.52872 0.230151 2.50411C44.1315 0.973332 90.9452 5.95434 129.669 28.0252C172.744 55.7764 120.763 82.6864 93.7525 93.2671C97.3889 87.9832 105.584 75.9476 109.132 70.7787C108.758 70.9653 116.231 61.1623 114.566 61.9312C108.149 67.8017 102.484 74.4757 97.1123 81.2845C95.051 83.8913 92.8646 86.8421 90.9125 89.5386C89.5644 91.8785 86.8128 93.8705 87.2601 96.8397C88.82 103.242 97.994 98.2206 102.385 97.9206C104.756 97.37 107.723 96.6454 110.079 96.0306C117.78 93.9505 125.526 91.6181 132.836 88.3683C132.883 88.3438 132.92 88.3035 132.94 88.2546C132.96 88.2057 132.962 88.1514 132.946 88.1011C132.93 88.0508 132.896 88.0078 132.852 87.9796C132.807 87.9515 132.754 87.94 132.701 87.9473L122.318 89.8107C115.817 91.0389 98.9799 94.1572 92.279 95.4217L93.0687 94.2673C113.245 87.5275 153.388 73.0768 149.771 46.4039Z" fill="#00715D"/>
</svg>
