<svg width="80" height="55" viewBox="0 0 80 55" fill="none" xmlns="http://www.w3.org/2000/svg">
<path d="M65.9779 11.7534C66.8067 12.5822 67.9368 13.1096 69.2177 13.1096C70.4989 13.1096 71.6289 12.5822 72.4569 11.7534C73.2859 10.9247 73.8139 9.7945 73.8139 8.5137C73.8139 7.23288 73.2859 6.10274 72.4569 5.27397C71.6289 4.44521 70.4989 3.91781 69.2177 3.91781C68.0122 3.91781 66.882 4.36986 66.0533 5.19863C66.0533 5.19863 65.9779 5.19863 65.9779 5.27397C65.1492 6.10274 64.6218 7.23288 64.6218 8.5137C64.6218 9.7945 65.1492 10.9247 65.9779 11.7534ZM67.2588 6.70548C67.3341 6.63014 67.3341 6.70548 67.2588 6.70548C67.7861 6.17808 68.4642 5.95205 69.1423 5.95205C69.8957 5.95205 70.5739 6.25342 71.0259 6.70548C71.4779 7.15753 71.7789 7.83562 71.7789 8.589C71.7789 9.3425 71.4779 10.0205 71.0259 10.4726C70.5739 10.9247 69.8957 11.226 69.1423 11.226C68.3889 11.226 67.7108 10.9247 67.2588 10.4726C66.8067 10.0205 66.5053 9.3425 66.5053 8.589C66.5053 7.83562 66.8067 7.15753 67.2588 6.70548ZM7.2861 11.7534C8.1149 12.5822 9.2451 13.1096 10.5259 13.1096C11.8067 13.1096 12.9368 12.5822 13.7656 11.7534C13.7656 11.7534 13.7656 11.6781 13.8409 11.6781C14.6697 10.8493 15.1218 9.7192 15.1218 8.5137C15.1218 7.23288 14.5944 6.10274 13.7656 5.27397C12.9368 4.44521 11.8067 3.91781 10.5259 3.91781C9.2451 3.91781 8.1149 4.44521 7.2861 5.27397C6.4574 6.10274 5.93 7.23288 5.93 8.5137C5.93 9.7945 6.4574 10.9247 7.2861 11.7534ZM8.6423 6.70548C9.0944 6.25342 9.7725 5.95205 10.5259 5.95205C11.2793 5.95205 11.9574 6.25342 12.4094 6.70548C12.8615 7.15753 13.1629 7.83562 13.1629 8.589C13.1629 9.2671 12.8615 9.9452 12.4094 10.3973C12.4094 10.3973 12.4094 10.3973 12.3341 10.4726C11.882 10.9247 11.204 11.226 10.4505 11.226C9.69709 11.226 9.019 10.9247 8.567 10.4726C8.1149 10.0205 7.8135 9.3425 7.8135 8.589C7.8135 7.83562 8.1149 7.15753 8.6423 6.70548ZM36.5944 7.76027C37.4231 8.589 38.5533 9.1164 39.8341 9.1164C41.1149 9.1164 42.2451 8.589 43.0738 7.76027C43.9026 6.93151 44.43 5.80137 44.43 4.52055C44.43 3.23973 43.9026 2.10959 43.0738 1.28082C42.2451 0.5274 41.1149 0 39.8341 0C38.6286 0 37.4985 0.45205 36.6697 1.28082C36.6697 1.28082 36.5944 1.28082 36.5944 1.35616C35.7656 2.18493 35.2382 3.31507 35.2382 4.59589C35.3135 5.80137 35.7656 6.93151 36.5944 7.76027ZM37.9505 2.63699C38.4779 2.10959 39.156 1.88356 39.8341 1.88356C40.5875 1.88356 41.2656 2.18493 41.7177 2.63699C42.1697 3.08904 42.4711 3.76712 42.4711 4.52055C42.4711 5.27397 42.1697 5.95205 41.7177 6.40411C41.2656 6.85616 40.5875 7.15753 39.8341 7.15753C39.0807 7.15753 38.4026 6.85616 37.9505 6.40411C37.4985 5.95205 37.1971 5.27397 37.1971 4.52055C37.1971 3.84247 37.4985 3.16438 37.9505 2.63699ZM78.7109 18.4589C77.8819 17.1781 76.2249 16.1986 73.2859 15.8219C70.7249 15.5205 68.5396 15.7466 66.656 16.3493C66.3546 16.1233 66.0533 15.8973 65.7519 15.6712C63.0396 13.4863 60.1766 12.0548 57.1629 11.226C54.1492 10.3973 50.9094 10.0959 47.4437 10.0959C44.7314 10.0959 42.1697 10.774 39.8341 11.9795C37.4985 10.774 34.9368 10.0959 32.2245 10.0959C28.6834 10.0959 25.519 10.3973 22.5053 11.226C19.4916 12.0548 16.6286 13.4863 13.9163 15.6712C13.6149 15.8973 13.3135 16.1233 13.0122 16.3493C11.1286 15.7466 8.9437 15.5205 6.382 15.8219C3.4437 16.1233 1.7861 17.1781 0.957397 18.4589C0.505297 19.137 0.279297 19.8904 0.279297 20.5685C0.279297 21.2466 0.354596 21.9247 0.580696 22.5274C1.0327 23.5822 1.8615 24.411 2.6903 24.5616C3.8204 24.7123 5.6286 23.9589 7.8135 22.5274C9.3957 21.4726 11.2793 20.1164 13.3135 18.6096C13.8409 18.8356 14.293 19.0616 14.7451 19.363C16.8546 20.6438 18.5122 22.4521 20.019 24.411C21.5259 26.3699 22.3546 28.1027 22.882 29.7603C23.4094 31.4178 23.4848 32.9247 23.5601 34.3562C23.5601 35.2603 23.5601 36.0137 23.4094 36.4658C23.1834 36.3151 22.8067 35.9384 22.43 35.411C21.9026 34.7329 21.3752 33.9795 20.8478 33.226C18.8135 30.4384 16.8546 27.6507 15.3478 28.4041C13.9916 29.0822 14.3683 31.4178 14.7451 33.6781C14.8204 34.2055 14.8957 34.7329 14.9711 35.1849C15.0464 35.863 14.9711 36.6164 14.7451 37.0685C14.4437 36.8425 14.067 36.2397 13.5396 35.1849C11.5053 30.6644 11.2793 27.1986 11.2793 27.1986C11.204 26.6712 10.7519 26.2945 10.2998 26.2945C9.7725 26.3699 9.3957 26.8219 9.3957 27.274C9.3957 27.274 9.6971 31.0411 11.882 35.9384C12.5601 37.5205 13.3135 38.4247 13.9163 38.8014C14.4437 39.1027 14.9711 39.1027 15.4231 38.9521C15.7998 38.8014 16.1766 38.5 16.4026 38.0479C16.8546 37.2945 17.0053 36.089 16.8546 34.9589C16.7793 34.4315 16.704 33.9041 16.6286 33.3767C16.3272 31.7945 16.1012 30.137 16.2519 30.137C16.2519 30.137 17.7588 32.2466 19.3409 34.3562C19.9437 35.1096 20.4711 35.9384 20.9985 36.5411C21.6766 37.4452 22.2793 37.9726 22.8067 38.274C23.3341 38.5 23.8615 38.5 24.3135 38.274C24.6903 38.0479 24.9916 37.7466 25.2177 37.2192C25.519 36.5411 25.5944 35.4863 25.5944 34.2808C25.519 32.6986 25.3683 31.0411 24.8409 29.2329C24.3135 27.4247 23.3341 25.3904 21.6766 23.2808C20.019 21.1712 18.2861 19.137 15.8752 17.7808C15.6492 17.6301 15.3478 17.4795 15.1218 17.4041L15.1971 17.3288C17.6834 15.2945 20.3204 14.0137 23.1081 13.2603C25.9711 12.4315 28.9848 12.2055 32.2998 12.2055C34.2588 12.2055 36.1423 12.6575 37.9505 13.3356C34.9368 15.2945 32.5259 18.1575 31.019 21.2466C30.793 21.6986 30.6423 22.1507 30.4163 22.6781C29.3615 25.7671 29.2861 29.6096 29.6629 32.8493C30.1149 36.2397 31.2451 39.0274 32.6012 39.7055C32.6766 39.7808 32.7519 39.7808 32.8272 39.7808C34.7108 40.3836 35.9916 38.6507 36.8204 36.089C37.5738 33.9795 38.0259 31.3425 38.4026 29.3836C38.93 26.4452 39.4574 26.4452 39.9094 26.4452H40.0601C40.5122 26.4452 41.0396 26.4452 41.567 29.3836C41.9437 31.3425 42.3957 33.9795 43.1492 36.089C43.9779 38.6507 45.2588 40.3836 47.1423 39.7808C47.2177 39.7808 47.293 39.7055 47.3683 39.7055C48.7245 39.0274 49.8546 36.2397 50.3067 32.8493C50.7588 29.6096 50.6081 25.7671 49.5533 22.6781C49.4026 22.1507 49.1766 21.6986 48.9505 21.2466C47.4437 18.0822 45.0327 15.2945 42.019 13.3356C43.8272 12.5822 45.7108 12.2055 47.6697 12.2055C50.9848 12.2055 54.0738 12.4315 56.8615 13.2603C59.6492 14.0137 62.2861 15.3699 64.7725 17.3288L64.8478 17.4041C64.6218 17.5548 64.3204 17.7055 64.0944 17.7808C61.6834 19.2123 59.8752 21.1712 58.293 23.2808C56.6355 25.3904 55.656 27.4247 55.1286 29.2329C54.6012 31.0411 54.4505 32.774 54.3752 34.2808C54.2999 35.4863 54.4505 36.5411 54.7519 37.2192C54.9779 37.6712 55.2793 38.0479 55.656 38.274C56.1081 38.5 56.6355 38.5 57.1629 38.274C57.6903 38.0479 58.293 37.4452 58.9711 36.5411C59.4985 35.863 60.0259 35.1096 60.6286 34.3562C62.1355 32.2466 63.7177 30.137 63.7177 30.137C63.8683 30.2123 63.567 31.7945 63.3409 33.3767C63.2656 33.9041 63.1903 34.4315 63.1149 34.9589C62.9642 36.0137 63.1903 37.2192 63.567 38.0479C63.793 38.5 64.1697 38.8014 64.5464 38.9521C64.9985 39.1027 65.5259 39.1027 66.0533 38.8014C66.7314 38.4247 67.4094 37.5959 68.0875 35.9384C70.2729 31.1164 70.5739 27.3493 70.5739 27.274C70.6489 26.7466 70.1969 26.2945 69.6697 26.2945C69.1423 26.2192 68.6903 26.6712 68.6903 27.1986C68.6903 27.1986 68.3889 30.6644 66.43 35.1849C65.9779 36.2397 65.5259 36.8425 65.2245 37.0685C64.9985 36.6164 64.8478 35.863 64.9985 35.1849C65.0738 34.7329 65.1492 34.2055 65.2245 33.6781C65.6012 31.4178 65.9779 29.1575 64.6218 28.4041C63.1903 27.6507 61.156 30.4384 59.1218 33.226C58.5944 33.9795 58.067 34.7329 57.5396 35.411C57.1629 35.9384 56.7861 36.3151 56.5601 36.4658C56.4094 36.0137 56.3341 35.2603 56.4094 34.3562C56.4848 32.9247 56.5601 31.4178 57.0875 29.7603C57.6149 28.1027 58.4437 26.3699 59.9505 24.411C61.4574 22.4521 63.1149 20.5685 65.2245 19.363C65.6766 19.0616 66.204 18.8356 66.656 18.6096C68.6903 20.1918 70.4989 21.5479 72.1559 22.5274C74.4159 23.9589 76.2249 24.7877 77.2789 24.5616C78.1079 24.411 78.9369 23.6575 79.3889 22.5274C79.6149 21.9247 79.7659 21.3219 79.6899 20.5685C79.3889 19.8904 79.1629 19.137 78.7109 18.4589ZM6.8341 20.8699C4.9505 22.0753 3.5944 22.7534 2.9916 22.6781C2.7656 22.6781 2.5396 22.3014 2.3135 21.774C2.1629 21.3973 2.0875 21.0205 2.0875 20.6438C2.0875 20.2671 2.2382 19.8904 2.4642 19.5137C2.9916 18.6849 4.1971 18.0068 6.4574 17.7808C8.1903 17.6301 9.6218 17.6301 10.9779 17.9315C9.5464 19.0616 8.1149 20.1164 6.8341 20.8699ZM47.1423 21.9247C47.293 22.3014 47.519 22.7534 47.6697 23.1301C48.5738 25.9178 48.7245 29.4589 48.3478 32.4726C47.9711 35.2603 47.293 37.5205 46.4642 37.8973C45.9368 38.0479 45.4094 36.9178 44.882 35.411C44.204 33.4521 43.7519 30.8904 43.3752 29.0068C42.5464 24.4863 41.1903 24.4863 39.9848 24.4863H39.8341C38.6286 24.4863 37.2725 24.4863 36.4437 29.0068C36.1423 30.8904 35.6149 33.4521 34.9368 35.411C34.4094 36.9178 33.882 38.0479 33.3546 37.8973C32.6012 37.5205 31.8478 35.3356 31.4711 32.4726C31.0944 29.4589 31.1697 25.9178 32.1492 23.1301C32.2998 22.6781 32.4505 22.3014 32.6766 21.9247C34.0327 19.0616 36.2177 16.5753 38.93 14.7671C39.2314 14.5411 39.6081 14.3151 39.9094 14.1644C40.2108 14.3904 40.5875 14.5411 40.8889 14.7671C43.5259 16.5753 45.7862 19.137 47.1423 21.9247ZM77.2789 21.774C77.0529 22.3014 76.8269 22.6027 76.6009 22.6781C75.9989 22.7534 74.6419 22.0753 72.7589 20.8699C71.4779 20.0411 70.0469 18.9863 68.4642 17.8562C69.8204 17.6301 71.2519 17.5548 72.9849 17.7055C75.2449 17.9315 76.4509 18.6849 76.9779 19.4384C77.2039 19.8151 77.3549 20.1918 77.3549 20.5685C77.5049 21.0959 77.4299 21.4726 77.2789 21.774ZM49.6286 48.5959H52.0396V54.9247H53.7725V48.5959H56.1834V47.089H49.6286V48.5959ZM14.519 51.6849C14.519 52.8151 13.8409 53.4931 12.7861 53.4931C11.7314 53.4931 10.9779 52.8151 10.9779 51.6849V47.1644H9.2451V51.6849C9.2451 53.7192 10.6012 55 12.7861 55C14.9711 55 16.3272 53.7192 16.3272 51.6849V47.1644H14.5944V51.6849H14.519ZM40.1355 54.9247H41.8683V47.089H40.1355V54.9247ZM29.9642 52.137L26.1971 47.089H24.6149V54.9247H26.2725V49.9521L30.0396 54.9247H31.6218V47.089H29.9642V52.137ZM66.7314 50.6301L64.6971 47.1644H62.8889L65.7519 52.5137V55H67.4848V52.5137L70.3479 47.2397H68.5396L66.7314 50.6301Z" fill="#141F19"/>
</svg>
