<svg width="86" height="55" viewBox="0 0 86 55" fill="none" xmlns="http://www.w3.org/2000/svg">
<path d="M70.0934 17.912C69.3802 17.1937 68.2132 17.259 67.5 17.9773L64.712 20.9156L61.4054 24.4416C60.6922 25.1598 59.59 25.2251 58.8119 24.5069C58.0987 23.7886 58.0339 22.6133 58.7471 21.895L62.0537 18.3691L67.889 12.166L69.5747 10.3377C70.2879 9.6194 70.2231 8.4441 69.5099 7.72586C68.7967 7.0076 67.6296 7.0729 66.9164 7.79115L65.2307 9.6194L59.3955 15.8225L56.0888 19.3485C55.3756 20.0668 54.2734 20.1321 53.4954 19.4138C53.1064 18.9567 52.458 17.8467 53.4306 16.802L61.0164 8.7053L64.8417 4.78755C65.5549 4.06929 65.49 2.89397 64.7769 2.17572C64.0637 1.45746 62.8966 1.52276 62.1834 2.24101L58.3581 6.15876L50.7723 14.2554C50.0591 14.9737 48.9569 15.039 48.1788 14.3207C47.725 13.7984 47.0118 12.8842 48.114 11.7089L51.4206 8.1829L56.024 3.22045C57.1262 2.04512 56.6724 1.06569 56.024 0.478028C55.1163 -0.305522 54.0789 -0.0443421 53.3657 0.673908L39.9447 15.3655C38.7128 16.6061 37.8051 17.4549 37.4161 17.7161C35.471 19.022 33.5907 16.5408 30.0896 15.039L29.8951 14.9737C29.7006 14.9084 29.5709 14.8431 29.3764 14.7778C24.9027 13.276 22.5686 19.5444 22.5686 19.5444C22.9576 19.6097 23.4115 19.7403 23.8005 19.9362C29.6357 22.6133 34.7578 36.3254 45.6502 36.9131C56.2833 37.5007 63.4153 27.4452 69.9637 20.4585C70.7418 19.675 70.8066 18.6303 70.0934 17.912ZM27.3665 18.1732C26.9126 18.1732 26.5236 17.7814 26.5236 17.3243C26.5236 16.8673 26.9126 16.4755 27.3665 16.4755C27.8203 16.4755 28.2094 16.8673 28.2094 17.3243C28.2094 17.7814 27.8203 18.1732 27.3665 18.1732ZM19.9752 19.2832C20.5587 19.2179 21.1422 19.022 21.6609 18.6955C21.6609 18.6955 21.6609 18.6955 21.6609 18.6303C21.3367 16.0184 18.9378 14.1901 16.3444 14.5819C15.7608 14.6472 15.1773 14.8431 14.6586 15.1696C14.6586 15.1696 14.6586 15.1696 14.6586 15.2349C15.0476 17.8467 17.4466 19.6097 19.9752 19.2832ZM20.2994 20.1321C18.1598 20.1974 16.474 22.0256 16.5389 24.1804C16.5389 24.1804 16.5389 24.1804 16.5389 24.2457C16.9927 24.3763 17.4466 24.5069 17.9653 24.4416C20.1048 24.3763 21.7906 22.548 21.7258 20.3932C21.7258 20.3932 21.7258 20.3932 21.7258 20.3279C21.3367 20.1974 20.818 20.1321 20.2994 20.1321ZM33.5907 52.3882C32.8127 52.3882 32.2292 52.9105 32.2292 53.6941C32.2292 54.4123 32.8127 55 33.5907 55C34.3688 55 34.9523 54.4123 34.9523 53.6941C34.9523 52.9758 34.3688 52.3882 33.5907 52.3882ZM33.5907 54.4776C33.1369 54.4776 32.8127 54.1512 32.8127 53.6941C32.8127 53.237 33.1369 52.9105 33.5907 52.9105C34.0446 52.9105 34.3688 53.237 34.3688 53.6941C34.3688 54.1512 34.0446 54.4776 33.5907 54.4776ZM26.783 52.3882C26.0049 52.3882 25.4214 52.9105 25.4214 53.6941C25.4214 54.4123 26.0049 55 26.783 55C27.561 55 28.1445 54.4123 28.1445 53.6941C28.1445 52.9758 27.561 52.3882 26.783 52.3882ZM26.783 54.4776C26.3291 54.4776 26.0049 54.1512 26.0049 53.6941C26.0049 53.237 26.3291 52.9105 26.783 52.9105C27.2368 52.9105 27.561 53.237 27.561 53.6941C27.561 54.1512 27.172 54.4776 26.783 54.4776ZM22.9576 52.3882H21.8554V55H22.8928C23.6708 55 24.2544 54.4776 24.2544 53.6941C24.3192 52.9105 23.7357 52.3882 22.9576 52.3882ZM22.9576 54.4776H22.4389V52.9105H22.9576C23.4115 52.9105 23.7357 53.237 23.7357 53.6941C23.7357 54.1512 23.4115 54.4776 22.9576 54.4776ZM30.0248 52.3882H29.4412V55H31.127V54.4776H30.0248V52.3882ZM50.9668 52.3882L49.8646 55H50.4481L50.6426 54.4776H51.8097L52.069 55H52.6525L51.5503 52.3882H50.9668ZM50.8371 54.0206L51.2261 53.0411L51.6151 54.0206H50.8371ZM45.9096 52.9105H46.6876V55H47.2711V52.9105H48.0492V52.3882H45.9096V52.9105ZM38.4534 53.3023C38.4534 52.7146 38.0644 52.3882 37.4161 52.3882H36.3139V55H36.8974V54.2817H37.4809L37.8699 55H38.5183L37.9996 54.1512C38.3238 53.9553 38.4534 53.6941 38.4534 53.3023ZM37.4161 53.7594H36.8974V52.9105H37.4161C37.7402 52.9105 37.9348 53.0411 37.9348 53.3676C37.9348 53.6288 37.7402 53.7594 37.4161 53.7594ZM44.0293 55H44.6129V52.3882H44.0293V55ZM55.246 53.9553L54.5328 52.3882H53.8844V55H54.4031V53.3023L55.0515 54.7388H55.4405L56.0888 53.3023V55H56.6075V52.3882H55.9592L55.246 53.9553ZM59.979 53.9553V53.4982H58.7471V52.9105H60.1087V52.3882H58.1636V55H60.1087V54.5429H58.6823V53.9553H59.979ZM41.3711 53.1064C41.3711 52.9758 41.5007 52.9105 41.6952 52.9105C41.8897 52.9105 42.2139 53.0411 42.4733 53.1717L42.6678 52.7146C42.4084 52.5188 42.0843 52.3882 41.6952 52.3882C41.1117 52.3882 40.7227 52.6493 40.7227 53.1717C40.7227 54.0859 42.0843 53.8247 42.0843 54.2817C42.0843 54.4123 41.9546 54.5429 41.6952 54.5429C41.4359 54.5429 41.0469 54.4123 40.7875 54.1512L40.5282 54.6082C40.7875 54.8694 41.2414 55 41.6304 55C42.2139 55 42.6029 54.7388 42.6029 54.2165C42.6678 53.3023 41.3711 53.5635 41.3711 53.1064ZM61.2757 52.9105H62.0537V55H62.6373V52.9105H63.4153V52.3882H61.2757V52.9105ZM5.7113 45.0097H3.6365C3.6365 45.0097 3.6365 45.0098 3.6365 45.075V45.1403H3.7013C3.7662 45.1403 3.7662 45.1403 3.8959 45.2056C3.9607 45.2056 4.0255 45.2709 4.1552 45.3362C4.22 45.4015 4.2849 45.4668 4.3497 45.5321C4.4145 45.5974 4.41449 45.728 4.41449 45.8586V46.1851C4.41449 46.381 4.41449 46.5768 4.41449 46.7727C4.41449 46.9686 4.3497 47.1645 4.2849 47.2951C4.22 47.4257 4.1552 47.5563 3.9607 47.6869C3.831 47.8175 3.6365 47.8175 3.3772 47.8175C3.1178 47.8175 2.9233 47.7522 2.7288 47.5563C2.5343 47.4257 2.4046 47.1645 2.275 46.9033C2.1453 46.6421 2.08039 46.3157 2.01559 45.9892C1.95079 45.6627 1.9508 45.2709 1.9508 44.8792C1.9508 44.4874 1.95079 44.0956 2.01559 43.7691C2.08039 43.4427 2.1453 43.1162 2.275 42.855C2.4046 42.5938 2.59909 42.3979 2.79359 42.202C2.98809 42.0714 3.2475 41.9408 3.5068 41.9408C3.7662 41.9408 3.9607 42.0061 4.1552 42.0714C4.3497 42.1367 4.47939 42.2673 4.60899 42.3326C4.73869 42.4632 4.8684 42.5938 4.9332 42.7244C4.9981 42.855 5.0629 42.9856 5.1277 43.1162C5.1277 43.1162 5.1277 43.1162 5.1926 43.1815C5.1926 43.1815 5.1926 43.1815 5.2574 43.1815C5.2574 43.1815 5.2574 43.1815 5.3222 43.1815C5.3222 43.1815 5.3222 43.1815 5.3222 43.1162V42.1367C5.3222 42.0714 5.3222 42.0714 5.2574 42.0714C5.2574 42.0714 5.1926 42.0061 5.1277 42.0061C4.9981 42.0061 4.8684 42.0061 4.7387 41.9408C4.609 41.8756 4.41449 41.8755 4.21999 41.8103C4.02549 41.745 3.7662 41.745 3.5068 41.745C3.1827 41.745 2.92329 41.8103 2.59909 41.8756C2.33979 41.9408 2.08039 42.0714 1.82109 42.202C1.56179 42.3326 1.3672 42.5285 1.1727 42.7244C0.978195 42.9203 0.783695 43.1162 0.654095 43.3774C0.524395 43.6385 0.394695 43.8997 0.329895 44.1609C0.264995 44.3568 0.200195 44.6833 0.200195 44.9445C0.200195 45.4015 0.264996 45.7933 0.459496 46.1851C0.589196 46.5768 0.848595 46.9033 1.10789 47.1645C1.36719 47.4257 1.69139 47.6869 2.08039 47.8175C2.46949 48.0134 2.8585 48.0787 3.3123 48.0787C3.5717 48.0787 3.7662 48.0787 3.9607 48.0134C4.1552 48.0134 4.3497 47.9481 4.5442 47.8828C4.7387 47.8828 4.9332 47.8828 5.1277 47.8175C5.3222 47.7522 5.5168 47.6869 5.7761 47.6216C5.8409 47.6216 5.8409 47.6216 5.8409 47.5563C5.8409 47.5563 5.8409 47.491 5.8409 47.4257V45.1403C5.8409 45.075 5.8409 45.075 5.7761 45.0097C5.7761 45.0097 5.7761 45.0097 5.7113 45.0097ZM12.519 46.5768C12.519 46.5768 12.519 46.6421 12.4542 46.7074C12.4542 46.7727 12.3894 46.838 12.3245 46.9686C12.2597 47.0339 12.1949 47.1645 12.13 47.2298C12.0652 47.2951 11.9355 47.4257 11.8058 47.491C11.6762 47.5563 11.5465 47.6216 11.4168 47.6869C11.2872 47.7522 11.0926 47.7522 10.8981 47.7522C10.7685 47.7522 10.574 47.7522 10.5091 47.7522C10.3795 47.7522 10.3146 47.7522 10.2498 47.6869C10.1849 47.6869 10.1849 47.6216 10.1201 47.5563C10.1201 47.491 10.1201 47.4257 10.1201 47.3604V42.6591C10.1201 42.5285 10.1201 42.3979 10.1849 42.3326C10.2498 42.2673 10.3146 42.202 10.3795 42.1367C10.4443 42.0714 10.5091 42.0714 10.6388 42.0061C10.7036 42.0061 10.7685 41.9408 10.8333 41.9408H10.8981V41.8756C10.8981 41.8756 10.8981 41.8755 10.8981 41.8103H7.9157C7.9157 41.8103 7.9157 41.8103 7.9157 41.8756V41.9408H7.9805C8.0454 41.9408 8.0454 41.9408 8.175 42.0061C8.2399 42.0061 8.3047 42.0714 8.43439 42.1367C8.4992 42.202 8.56399 42.2673 8.62889 42.3326C8.6937 42.3979 8.6937 42.5285 8.6937 42.6591V47.1645C8.6937 47.2951 8.6937 47.4257 8.62889 47.491C8.56399 47.5563 8.4992 47.6216 8.43439 47.6869C8.36949 47.7522 8.3047 47.7522 8.175 47.8175C8.1102 47.8175 8.0454 47.8175 7.9805 47.8828H7.9157C7.9157 47.8828 7.9157 47.8828 7.9157 47.9481C7.9157 47.9481 7.9157 47.9481 7.9157 48.0134H12.519C12.5839 48.0134 12.5839 48.0134 12.5839 47.9481V46.6421C12.5839 46.5768 12.5839 46.5768 12.519 46.5768C12.519 46.5116 12.519 46.5116 12.519 46.5768ZM20.429 43.3121C20.2994 43.0509 20.1697 42.855 19.9752 42.6591C19.7807 42.4632 19.5862 42.3326 19.3268 42.1367C19.0675 42.0061 18.873 41.8755 18.5488 41.8103C18.2894 41.745 17.9653 41.6797 17.7059 41.6797C17.3817 41.6797 17.1224 41.745 16.7982 41.8103C16.5389 41.8755 16.2795 42.0061 16.0202 42.1367C15.7608 42.2673 15.5663 42.4632 15.3718 42.6591C15.1773 42.855 14.9828 43.0509 14.8531 43.3121C14.7235 43.5732 14.5938 43.8344 14.529 44.0956C14.4641 44.3568 14.4641 44.6833 14.4641 44.9445C14.4641 45.4015 14.529 45.7933 14.7235 46.1851C14.8531 46.5768 15.1125 46.9033 15.3718 47.1645C15.6312 47.4257 15.9553 47.6869 16.3444 47.8175C16.7334 48.0134 17.1224 48.0787 17.5762 48.0787C17.9004 48.0787 18.1598 48.0134 18.484 47.9481C18.7433 47.8828 19.0026 47.7522 19.262 47.6216C19.5213 47.491 19.7158 47.2951 19.9103 47.0992C20.1049 46.9033 20.2994 46.7074 20.429 46.4463C20.5587 46.1851 20.6884 45.9239 20.7532 45.6627C20.818 45.4015 20.8829 45.075 20.8829 44.8139C20.8829 44.5527 20.818 44.2262 20.7532 43.965C20.6235 43.7691 20.5587 43.5079 20.429 43.3121ZM19.0026 46.0545C18.9378 46.381 18.873 46.7074 18.7433 46.9686C18.6136 47.2298 18.484 47.4257 18.2894 47.6216C18.0949 47.7522 17.9004 47.8828 17.6411 47.8828C17.3817 47.8828 17.1872 47.8175 16.9927 47.6216C16.7982 47.491 16.6685 47.2298 16.5389 46.9686C16.4092 46.7074 16.3444 46.381 16.2795 46.0545C16.2147 45.728 16.2147 45.3362 16.2147 44.9445C16.2147 44.5527 16.2147 44.1609 16.2795 43.8344C16.3444 43.5079 16.4092 43.1815 16.5389 42.9203C16.6685 42.6591 16.7982 42.4632 16.9927 42.2673C17.1872 42.1367 17.3817 42.0061 17.6411 42.0061C17.9004 42.0061 18.0949 42.0714 18.2894 42.2673C18.484 42.3979 18.6136 42.6591 18.7433 42.9203C18.873 43.1815 18.9378 43.5079 19.0026 43.8344C19.0675 44.1609 19.0675 44.5527 19.0675 44.9445C19.0675 45.3362 19.0675 45.728 19.0026 46.0545ZM23.4115 47.491C23.3467 47.5563 23.2818 47.6216 23.217 47.6869C23.1521 47.7522 23.0873 47.7522 22.9576 47.8175C22.8928 47.8175 22.828 47.8175 22.7631 47.8828H22.6983C22.6983 47.8828 22.6983 47.8828 22.6983 47.9481C22.6983 47.9481 22.6983 47.9481 22.6983 48.0134H25.7456C26.1346 48.0134 26.4588 47.9481 26.783 47.8828C27.0423 47.8175 27.3016 47.6869 27.4313 47.5563C27.6258 47.4257 27.6907 47.2298 27.8203 47.0339C27.8852 46.838 27.95 46.6421 27.95 46.381C27.95 46.1851 27.95 46.0545 27.8852 45.9239C27.8203 45.7933 27.7555 45.5974 27.6907 45.4668C27.6258 45.3362 27.4962 45.2056 27.3016 45.075C27.172 44.9445 26.9126 44.8792 26.7181 44.8139C26.9126 44.7486 27.0423 44.618 27.172 44.5527C27.3016 44.4221 27.3665 44.3568 27.4313 44.2262C27.4962 44.0956 27.561 43.965 27.561 43.8344C27.561 43.7038 27.6258 43.5732 27.6258 43.4427C27.6258 43.2468 27.6258 43.0509 27.561 42.855C27.4962 42.6591 27.4313 42.5285 27.3016 42.3979C27.172 42.2673 26.9775 42.1367 26.783 42.0714C26.5885 42.0061 26.3291 41.9408 26.0049 41.9408H22.828C22.828 41.9408 22.828 41.9408 22.828 42.0061V42.0714H22.8928C22.9576 42.0714 22.9576 42.0714 23.0873 42.1367C23.1521 42.1367 23.217 42.202 23.3467 42.2673C23.4115 42.3326 23.4763 42.3979 23.5412 42.4632C23.606 42.5285 23.606 42.6591 23.606 42.7897V47.1645C23.4763 47.2951 23.4763 47.3604 23.4115 47.491ZM24.9676 43.0509C24.9676 42.855 24.9676 42.7244 24.9676 42.5938C24.9676 42.4632 25.0324 42.3979 25.0324 42.2673C25.0972 42.202 25.0972 42.1367 25.1621 42.0714C25.2269 42.0061 25.2917 42.0061 25.4214 42.0061C25.5511 42.0061 25.6807 42.0714 25.7456 42.1367C25.8104 42.202 25.8753 42.2673 25.9401 42.3979C26.0049 42.5285 26.0049 42.6591 26.0049 42.7897C26.0049 42.9203 26.0049 43.0509 26.0049 43.1815C26.0049 43.5079 26.0049 43.7038 25.9401 43.8997C25.8753 44.0956 25.8104 44.2262 25.7456 44.3568C25.6807 44.4874 25.5511 44.5527 25.4862 44.5527C25.4214 44.618 25.2917 44.618 25.2269 44.618C25.1621 44.618 25.0972 44.618 25.0324 44.5527C24.9676 44.4874 24.9676 44.4221 24.9676 44.3568V43.0509ZM24.9676 45.2056C24.9676 45.1403 24.9676 45.075 25.0324 45.0097C25.0972 44.9445 25.1621 44.9445 25.2269 44.9445C25.2917 44.9445 25.3566 44.9445 25.4214 44.9445C25.4862 44.9445 25.5511 44.9445 25.6159 45.0097C25.6807 45.0097 25.7456 45.075 25.8104 45.1403C25.8753 45.2056 25.9401 45.2709 26.0049 45.4015C26.0698 45.5321 26.1346 45.6627 26.1346 45.7933C26.1994 45.9239 26.1994 46.1198 26.1994 46.381C26.1994 46.4463 26.1994 46.5116 26.1994 46.6421C26.1994 46.7074 26.1994 46.838 26.1994 46.9686C26.1994 47.0992 26.1994 47.1645 26.1346 47.2951C26.1346 47.4257 26.0698 47.491 26.0049 47.5563C25.9401 47.6216 25.8753 47.6869 25.8104 47.7522C25.7456 47.8175 25.6159 47.8175 25.4862 47.8175C25.3566 47.8175 25.2917 47.8175 25.1621 47.7522C25.0972 47.6869 25.0324 47.6216 24.9676 47.5563C24.9027 47.491 24.9027 47.3604 24.9027 47.2298C24.9027 47.0992 24.9027 46.9686 24.9027 46.7727V45.2056H24.9676ZM35.86 47.8175C35.7952 47.8175 35.6655 47.7522 35.6007 47.7522C35.5358 47.6869 35.471 47.6869 35.3413 47.6216C35.2765 47.5563 35.2116 47.491 35.1468 47.3604C35.082 47.2951 35.0171 47.1645 35.0171 47.0339C35.0171 46.9686 34.9523 46.838 34.8875 46.6421C34.8226 46.4463 34.7578 46.2504 34.693 45.9892C34.6281 45.728 34.4984 45.4668 34.4336 45.1403C34.3039 44.8139 34.2391 44.5527 34.1094 44.2262C33.9798 43.8997 33.9149 43.6385 33.7852 43.3121C33.7204 43.0509 33.5907 42.7897 33.5259 42.5285C33.4611 42.2673 33.3962 42.1367 33.3314 41.9408C33.2666 41.8103 33.2666 41.745 33.2666 41.6797C33.2666 41.6144 33.2017 41.6144 33.2017 41.6144C33.2017 41.6144 33.1369 41.6144 33.0721 41.6144C33.0072 41.6797 32.9424 41.6797 32.8127 41.6797C32.7479 41.6797 32.6182 41.745 32.5534 41.745C32.4885 41.745 32.3589 41.8103 32.294 41.8103C32.2292 41.8103 32.0995 41.8756 32.0347 41.8756C31.9698 41.8756 31.9698 41.8756 31.9698 41.9408L31.905 42.0061C31.905 42.0061 31.905 42.0714 31.8402 42.202C31.7753 42.3326 31.7105 42.5285 31.6457 42.7897C31.5808 43.0509 31.4511 43.3121 31.3863 43.5732C31.3215 43.8997 31.1918 44.2262 31.127 44.5527C30.9973 44.8792 30.9325 45.1403 30.8028 45.4668C30.6731 45.7933 30.6083 46.0545 30.5434 46.3157C30.4786 46.5768 30.4138 46.7727 30.3489 46.9686C30.2841 47.1645 30.2193 47.2298 30.2193 47.2951C30.1544 47.3604 30.1544 47.491 30.0896 47.5563C30.0248 47.6216 29.9599 47.6869 29.8951 47.7522C29.8303 47.8175 29.7654 47.8175 29.7006 47.8828C29.6357 47.8828 29.5709 47.9481 29.4412 47.9481C29.4412 47.9481 29.3764 47.9481 29.3764 48.0134V48.0787C29.3764 48.0787 29.3764 48.0787 29.3764 48.1439C29.3764 48.1439 29.3764 48.1439 29.4412 48.1439H31.1918C31.1918 48.1439 31.1918 48.1439 31.1918 48.0787V48.0134C31.1918 48.0134 31.1918 48.0134 31.127 47.9481C31.0621 47.9481 30.9973 47.9481 30.9325 47.8828C30.8676 47.8828 30.8028 47.8175 30.738 47.8175C30.6731 47.7522 30.6083 47.7522 30.6083 47.6216C30.5435 47.5563 30.5435 47.491 30.6083 47.3604C30.6083 47.3604 30.6083 47.2951 30.6731 47.2298C30.6731 47.1645 30.738 47.0992 30.738 46.9686C30.738 46.838 30.8028 46.7727 30.8028 46.6421C30.8676 46.5116 30.8676 46.4463 30.9325 46.3157C30.9973 46.1851 30.9973 46.1198 30.9973 46.0545C30.9973 45.9892 31.0621 45.9239 31.0621 45.8586C31.0621 45.8586 31.0621 45.7933 31.127 45.7933H33.0721C33.0721 45.7933 33.1369 45.7933 33.1369 45.8586C33.1369 45.8586 33.1369 45.9239 33.2017 45.9892C33.2017 46.0545 33.2666 46.1198 33.2666 46.1851C33.2666 46.2504 33.3314 46.381 33.3314 46.4463C33.3962 46.5768 33.3962 46.6421 33.4611 46.7727C33.4611 46.838 33.5259 46.9686 33.5259 47.0339C33.5259 47.0992 33.5907 47.1645 33.5907 47.2298C33.6556 47.3604 33.6556 47.491 33.5907 47.5563C33.5259 47.6216 33.5259 47.7522 33.3962 47.7522C33.3314 47.8175 33.2666 47.8175 33.2017 47.8828C33.1369 47.8828 33.0721 47.9481 33.0721 47.9481C33.0721 47.9481 33.0072 47.9481 33.0072 48.0134C33.0072 48.0134 33.0072 48.0134 33.0072 48.0787C33.0072 48.0787 33.0072 48.0787 33.0072 48.1439C33.0072 48.1439 33.0072 48.1439 33.0721 48.1439H35.9897C35.9897 48.1439 35.9897 48.1439 35.9897 48.0787C35.9248 47.8828 35.9248 47.8828 35.86 47.8175ZM32.9424 45.4015H31.2566C31.1918 45.4015 31.1918 45.4015 31.1918 45.3362C31.2566 45.2056 31.2566 45.075 31.3215 44.9445C31.3863 44.7486 31.4512 44.618 31.516 44.4221C31.5808 44.2262 31.6457 44.0303 31.7105 43.8344C31.7753 43.6385 31.8402 43.4426 31.905 43.3121C31.9698 43.1815 31.9698 42.9856 32.0347 42.9203C32.0995 42.7897 32.0995 42.7897 32.0995 42.7244C32.0995 42.7244 32.0995 42.7244 32.1643 42.7244C32.1643 42.7244 32.1643 42.7244 32.2292 42.7244C32.2292 42.7244 32.2292 42.7897 32.294 42.855C32.294 42.9203 32.3589 43.0509 32.4237 43.1815C32.4885 43.3121 32.4885 43.4426 32.5534 43.5732C32.6182 43.7038 32.683 43.8997 32.683 44.0303C32.7479 44.1609 32.8127 44.3568 32.8127 44.4874C32.8775 44.618 32.8775 44.8139 32.9424 44.8792C33.0072 45.0097 33.0072 45.1403 33.0721 45.2056C32.9424 45.2709 32.9424 45.3362 32.9424 45.4015ZM38.0644 47.491C37.9996 47.5563 37.9347 47.6216 37.8699 47.6869C37.8051 47.7522 37.7402 47.7522 37.6106 47.8175C37.5457 47.8175 37.4809 47.8175 37.4161 47.8828H37.3512C37.3512 47.8828 37.3512 47.8828 37.3512 47.9481C37.3512 47.9481 37.3512 47.9481 37.3512 48.0134H42.0194C42.0843 48.0134 42.0843 48.0134 42.0843 47.9481V46.6421C42.0843 46.5768 42.0843 46.5768 42.0194 46.5768C41.9546 46.5768 41.9546 46.5768 41.9546 46.6421C41.9546 46.6421 41.9546 46.7074 41.8897 46.7727C41.8897 46.838 41.8249 46.9033 41.7601 47.0339C41.6952 47.0992 41.6304 47.2298 41.5656 47.2951C41.5007 47.3604 41.3711 47.491 41.2414 47.5563C41.1117 47.6216 40.982 47.6869 40.8524 47.7522C40.7227 47.8175 40.5282 47.8175 40.3337 47.8175C40.204 47.8175 40.0095 47.8175 39.9447 47.8175C39.815 47.8175 39.7502 47.8175 39.6853 47.7522C39.6205 47.7522 39.6205 47.6869 39.5557 47.6216C39.5557 47.5563 39.5557 47.491 39.5557 47.4257V42.7244C39.5557 42.5938 39.5557 42.4632 39.6205 42.3979C39.6853 42.3326 39.7502 42.2673 39.815 42.202C39.8798 42.1367 39.9447 42.1367 40.0743 42.0714C40.1392 42.0714 40.204 42.0061 40.2688 42.0061H40.3337V41.9408C40.3337 41.9408 40.3337 41.9408 40.3337 41.8756H37.3512C37.3512 41.8756 37.3512 41.8756 37.3512 41.9408V42.0061H37.4161C37.4809 42.0061 37.4809 42.0061 37.6106 42.0714C37.6754 42.0714 37.7402 42.1367 37.8699 42.202C37.9347 42.2673 37.9996 42.3326 38.0644 42.3979C38.1293 42.4632 38.1293 42.5938 38.1293 42.7244V47.1645C38.1941 47.2951 38.1293 47.3604 38.0644 47.491ZM52.847 45.0097H50.7723C50.7723 45.0097 50.7723 45.0098 50.7723 45.075V45.1403H50.8371C50.902 45.1403 50.902 45.1403 51.0316 45.2056C51.0965 45.2056 51.1613 45.2709 51.291 45.3362C51.3558 45.4015 51.4206 45.4668 51.4855 45.5321C51.5503 45.5974 51.5503 45.728 51.5503 45.8586V46.1851C51.5503 46.381 51.5503 46.5768 51.5503 46.7727C51.5503 46.9686 51.4855 47.1645 51.4206 47.2951C51.3558 47.4257 51.291 47.5563 51.0965 47.6869C50.9668 47.8175 50.7723 47.8175 50.5129 47.8175C50.2536 47.8175 50.0591 47.7522 49.8646 47.5563C49.6701 47.4257 49.5404 47.1645 49.4107 46.9033C49.2811 46.6421 49.2162 46.3157 49.1514 45.9892C49.0865 45.6627 49.0865 45.2709 49.0865 44.8792C49.0865 44.4874 49.0865 44.0956 49.1514 43.7691C49.2162 43.4427 49.2811 43.1162 49.4107 42.855C49.5404 42.5938 49.7349 42.3979 49.9294 42.202C50.1239 42.0714 50.3833 41.9408 50.6426 41.9408C50.902 41.9408 51.0965 42.0061 51.291 42.0714C51.4855 42.1367 51.6152 42.2673 51.7448 42.3326C51.8745 42.4632 52.0042 42.5938 52.069 42.7244C52.1338 42.855 52.1987 42.9856 52.2635 43.1162C52.2635 43.1162 52.2635 43.1162 52.3283 43.1815C52.3283 43.1815 52.3283 43.1815 52.3932 43.1815C52.3932 43.1815 52.3932 43.1815 52.458 43.1815C52.458 43.1815 52.458 43.1815 52.458 43.1162V42.1367C52.458 42.0714 52.458 42.0714 52.3932 42.0714C52.3932 42.0714 52.3283 42.0061 52.2635 42.0061C52.1987 41.9408 52.069 41.9408 51.9393 41.8756C51.8097 41.8103 51.6152 41.8103 51.4206 41.745C51.2261 41.6797 50.9668 41.6797 50.7074 41.6797C50.3833 41.6797 50.1239 41.745 49.7997 41.8103C49.5404 41.8755 49.2811 42.0061 49.0217 42.1367C48.7624 42.2673 48.5679 42.4632 48.3733 42.6591C48.1788 42.855 47.9843 43.0509 47.8547 43.3121C47.725 43.5732 47.5953 43.8344 47.5305 44.0956C47.4656 44.3568 47.4008 44.6833 47.4008 44.9445C47.4008 45.4015 47.4656 45.7933 47.6601 46.1851C47.7898 46.5768 48.0492 46.9033 48.3085 47.1645C48.5679 47.4257 48.892 47.6869 49.281 47.8175C49.6701 48.0134 50.0591 48.0787 50.5129 48.0787C50.7723 48.0787 50.9668 48.0787 51.1613 48.0134C51.3558 48.0134 51.5503 47.9481 51.7448 47.8828C51.9393 47.8175 52.1338 47.7522 52.3283 47.7522C52.5229 47.6869 52.7174 47.6216 52.9767 47.5563C53.0415 47.5563 53.0415 47.5563 53.0415 47.491C53.0415 47.491 53.0415 47.4257 53.0415 47.3604V45.075C53.0415 45.0098 53.0415 45.0097 52.9767 44.9445C52.9119 45.0097 52.9119 45.0097 52.847 45.0097ZM57.3207 42.3326C57.3855 42.2673 57.4504 42.202 57.5152 42.1367C57.5801 42.0714 57.6449 42.0714 57.7746 42.0061C57.8394 42.0061 57.9042 41.9408 57.9691 41.9408H58.0339V41.8756C58.0339 41.8756 58.0339 41.8755 58.0339 41.8103H55.0515C55.0515 41.8103 55.0515 41.8103 55.0515 41.8756V41.9408H55.1163C55.1811 41.9408 55.1811 41.9408 55.3108 42.0061C55.3756 42.0061 55.4405 42.0714 55.5701 42.1367C55.635 42.202 55.6998 42.2673 55.7646 42.3326C55.8295 42.3979 55.8295 42.5285 55.8295 42.6591V47.1645C55.8295 47.2951 55.8295 47.4257 55.7646 47.491C55.6998 47.5563 55.635 47.6216 55.5701 47.6869C55.5053 47.7522 55.4405 47.7522 55.3108 47.8175C55.246 47.8175 55.1811 47.8175 55.1163 47.8828H55.0515C55.0515 47.8828 55.0515 47.8828 55.0515 47.9481C55.0515 47.9481 55.0515 47.9481 55.0515 48.0134H58.0339C58.0339 48.0134 58.0339 48.0134 58.0339 47.9481C58.0339 47.9481 58.0339 47.9481 58.0339 47.8828H57.9691C57.9042 47.8175 57.9042 47.8175 57.7746 47.8175C57.7097 47.8175 57.6449 47.7522 57.5152 47.6869C57.4504 47.6216 57.3855 47.5563 57.3207 47.491C57.3207 47.3604 57.2559 47.2951 57.2559 47.1645V42.7244C57.2559 42.5285 57.3207 42.4632 57.3207 42.3326ZM65.2307 41.8756H63.4801C63.4801 41.8756 63.4801 41.8756 63.4801 41.9408V42.0061C63.4801 42.0061 63.4801 42.0061 63.545 42.0714C63.6098 42.0714 63.6746 42.0714 63.7395 42.1367C63.8043 42.1367 63.8692 42.202 63.934 42.202C63.9988 42.202 64.0637 42.2673 64.0637 42.3979C64.1285 42.4632 64.1285 42.5285 64.0637 42.6591C63.9988 42.7897 63.9988 42.9203 63.934 43.1162C63.8692 43.3121 63.8043 43.4426 63.7395 43.7038C63.6746 43.8997 63.6098 44.0956 63.545 44.2915C63.4801 44.4874 63.4153 44.6833 63.3505 44.8792C63.2856 45.075 63.2208 45.2709 63.156 45.4015C63.0911 45.5321 63.0263 45.6627 63.0263 45.728C63.0263 45.728 63.0263 45.7933 62.9615 45.7933C62.9615 45.7933 62.8966 45.7933 62.8966 45.728C62.8966 45.6627 62.8318 45.5321 62.7669 45.4015C62.7021 45.2709 62.6373 45.075 62.5724 44.9445C62.5076 44.7486 62.4428 44.5527 62.3779 44.3568C62.3131 44.1609 62.2482 43.965 62.1834 43.7691C62.1186 43.5732 62.0537 43.3773 61.9889 43.2468C61.9241 43.0509 61.8592 42.9203 61.8592 42.855C61.8592 42.7244 61.7944 42.6591 61.8592 42.5938C61.8592 42.5285 61.8592 42.4632 61.9241 42.3979C61.9241 42.3326 61.9889 42.2673 62.0537 42.2673C62.1186 42.202 62.1186 42.202 62.1834 42.202C62.2482 42.202 62.2483 42.1367 62.3131 42.1367C62.3779 42.1367 62.3779 42.1367 62.3779 42.1367C62.3779 42.1367 62.4428 42.1367 62.4428 42.0714C62.4428 42.0714 62.4428 42.0714 62.4428 42.0061C62.4428 42.0061 62.4428 42.0061 62.4428 41.9408C62.4428 41.9408 62.4428 41.9408 62.3779 41.9408H59.4603C59.4603 41.9408 59.4603 41.9408 59.4603 42.0061V42.0714C59.4603 42.0714 59.4603 42.0714 59.5251 42.0714C59.7197 42.1367 59.8493 42.202 59.979 42.3326C60.1087 42.4632 60.2383 42.6591 60.368 42.9203C60.4328 43.0509 60.4977 43.1815 60.5625 43.3774C60.6273 43.5732 60.6922 43.7691 60.8219 43.965C60.8867 44.2262 61.0164 44.4221 61.0812 44.6833C61.146 44.9445 61.2757 45.2056 61.3406 45.4668C61.4702 45.728 61.5351 45.9892 61.5999 46.2504C61.6647 46.5116 61.7944 46.7727 61.8592 47.0339C61.9241 47.2951 61.9889 47.491 62.0537 47.6869C62.1186 47.8828 62.1834 48.0134 62.1834 48.1439C62.1834 48.2092 62.2482 48.2092 62.2482 48.2092C62.2482 48.2092 62.3131 48.2092 62.3131 48.1439C62.3779 48.0134 62.4428 47.8828 62.5076 47.6869C62.5724 47.491 62.6373 47.2298 62.7669 47.0339C62.8318 46.7727 62.9614 46.5116 63.0911 46.2504C63.2208 45.9892 63.2856 45.6627 63.4153 45.4015C63.545 45.1403 63.6098 44.8139 63.7395 44.5527C63.8691 44.2915 63.934 44.0303 63.9988 43.7691C64.0637 43.5079 64.1933 43.3121 64.2582 43.1162C64.323 42.9203 64.3878 42.7897 64.4527 42.7244C64.5175 42.5285 64.6472 42.3979 64.7769 42.3326C64.9065 42.2673 65.0362 42.202 65.2307 42.1367H65.2955C65.2955 42.1367 65.2955 42.1367 65.2955 42.0714C65.2955 41.8755 65.2955 41.8756 65.2307 41.8756ZM68.9912 42.3326C69.056 42.2673 69.1209 42.202 69.1857 42.1367C69.2505 42.0714 69.3154 42.0714 69.4451 42.0061C69.5099 42.0061 69.5747 41.9408 69.6396 41.9408H69.7044V41.8756C69.7044 41.8756 69.7044 41.8755 69.7044 41.8103H66.7219C66.7219 41.8103 66.7219 41.8103 66.7219 41.8756V41.9408H66.7868C66.8516 41.9408 66.8516 41.9408 66.9813 42.0061C67.0461 42.0061 67.111 42.0714 67.2406 42.1367C67.3055 42.202 67.3703 42.2673 67.4351 42.3326C67.5 42.3979 67.5 42.5285 67.5 42.6591V47.1645C67.5 47.2951 67.5 47.4257 67.4351 47.491C67.3703 47.5563 67.3055 47.6216 67.2406 47.6869C67.1758 47.7522 67.111 47.7522 66.9813 47.8175C66.9164 47.8175 66.8516 47.8175 66.7868 47.8828H66.7219C66.7219 47.8828 66.7219 47.8828 66.7219 47.9481C66.7219 47.9481 66.7219 47.9481 66.7219 48.0134H69.7044C69.7044 48.0134 69.7044 48.0134 69.7044 47.9481C69.7044 47.9481 69.7044 47.9481 69.7044 47.8828H69.6396C69.5747 47.8828 69.5747 47.8828 69.4451 47.8175C69.3802 47.8175 69.3154 47.7522 69.1857 47.6869C69.1209 47.6216 69.056 47.5563 68.9912 47.491C68.9264 47.4257 68.9264 47.2951 68.9264 47.1645V42.7244C68.9264 42.5285 68.9264 42.4632 68.9912 42.3326ZM77.5492 41.8756H75.7992C75.7992 41.8756 75.7992 41.8756 75.7992 41.9408V42.0061H75.8642C75.9282 42.0061 75.9282 42.0061 76.0582 42.0714C76.1232 42.0714 76.1882 42.1367 76.3172 42.202C76.3822 42.2673 76.4472 42.3326 76.5122 42.3979C76.5772 42.4632 76.5772 42.5938 76.5772 42.7244V45.5321H76.5122C76.5122 45.5321 76.4472 45.4668 76.3822 45.4015C76.3172 45.3362 76.1882 45.2056 76.1232 45.075C75.9932 44.9445 75.8642 44.7486 75.7342 44.5527C75.6042 44.3568 75.4102 44.1609 75.2802 43.965C75.0862 43.7691 74.9562 43.5732 74.7612 43.3774C74.5672 43.1815 74.4372 42.9856 74.3082 42.7897C74.1782 42.5938 74.0482 42.4632 73.9192 42.3326C73.7892 42.202 73.7242 42.0714 73.6592 42.0061C73.5942 41.9408 73.5302 41.9408 73.4652 41.9408H71.455C71.455 41.9408 71.455 41.9408 71.455 42.0061V42.0714H71.5198C71.5846 42.0714 71.5846 42.0714 71.7143 42.1367C71.7791 42.1367 71.844 42.202 71.9737 42.2673C72.0385 42.3326 72.1033 42.3979 72.1682 42.4632C72.2332 42.5285 72.2332 42.6591 72.2332 42.7897V47.1645C72.2332 47.2951 72.2332 47.4257 72.1682 47.491C72.1033 47.5563 72.0385 47.6216 71.9737 47.6869C71.9088 47.7522 71.844 47.7522 71.7143 47.8175C71.6495 47.8175 71.5846 47.8175 71.5198 47.8828H71.455C71.455 47.8828 71.455 47.8828 71.455 47.9481C71.455 47.9481 71.455 47.9481 71.455 48.0134H73.2702C73.2702 48.0134 73.2702 48.0134 73.2702 47.9481C73.2702 47.9481 73.2702 47.9481 73.2702 47.8828H73.2052C73.1402 47.8828 73.1402 47.8828 73.0112 47.8175C72.9462 47.8175 72.8812 47.7522 72.7512 47.6869C72.6872 47.6216 72.6222 47.5563 72.5572 47.491C72.4922 47.4257 72.4922 47.2951 72.4922 47.1645V43.1162H72.5572C72.5572 43.1162 72.6222 43.1815 72.6872 43.2468C72.7512 43.3121 72.8812 43.4426 73.0112 43.6385C73.1402 43.7691 73.2702 43.965 73.4652 44.1609C73.6592 44.3568 73.7892 44.5527 73.9832 44.8139C74.1782 45.075 74.3722 45.2709 74.5672 45.5321C74.7612 45.7933 74.9562 45.9892 75.1502 46.2504C75.3452 46.5116 75.5392 46.7074 75.6692 46.9033C75.8642 47.0992 75.9932 47.2951 76.1232 47.4257C76.2532 47.5563 76.3822 47.6869 76.4472 47.8175C76.5122 47.8828 76.5772 47.9481 76.5772 47.9481C76.6422 48.0134 76.6422 48.0134 76.7062 48.0134C76.7712 48.0134 76.7712 47.9481 76.7712 47.9481V42.7244C76.7712 42.5938 76.7712 42.4632 76.8362 42.3979C76.9012 42.3326 76.9662 42.2673 77.0312 42.202C77.0952 42.1367 77.1602 42.1367 77.2902 42.0714C77.3552 42.0714 77.4202 42.0061 77.4852 42.0061H77.5492V41.9408C77.5492 41.9408 77.5492 41.9408 77.5492 41.8756ZM85.0702 45.0097C85.0702 45.0097 85.0052 44.9445 84.9412 44.9445H82.8662C82.8662 44.9445 82.8662 44.9445 82.8662 45.0097V45.075H82.9312C82.9962 45.075 82.9962 45.075 83.1252 45.1403C83.1902 45.1403 83.2552 45.2056 83.3852 45.2709C83.4492 45.3362 83.5142 45.4015 83.5792 45.4668C83.6442 45.5321 83.6442 45.6627 83.6442 45.7933V46.1198C83.6442 46.3157 83.6442 46.5116 83.6442 46.7074C83.6442 46.9033 83.5792 47.0992 83.5142 47.2298C83.4492 47.3604 83.3852 47.491 83.1902 47.6216C83.0602 47.7522 82.8662 47.7522 82.6712 47.7522C82.4122 47.7522 82.2182 47.6869 82.0232 47.491C81.8292 47.3604 81.6992 47.0992 81.5692 46.838C81.4402 46.5768 81.3752 46.2504 81.3102 45.9239C81.2452 45.5974 81.2452 45.2056 81.2452 44.8139C81.2452 44.4221 81.2452 44.0303 81.3102 43.7038C81.3752 43.3774 81.4402 43.0509 81.5692 42.7897C81.6992 42.5285 81.8932 42.3326 82.0882 42.1367C82.2822 42.0061 82.5422 41.8756 82.8012 41.8756C83.0602 41.8756 83.2552 41.9408 83.4492 42.0061C83.6442 42.0714 83.7742 42.202 83.9032 42.2673C84.0332 42.3979 84.1632 42.5285 84.2272 42.6591C84.2922 42.7897 84.3572 42.9203 84.4222 43.0509C84.4222 43.0509 84.4222 43.0509 84.4872 43.1162C84.4872 43.1162 84.4872 43.1162 84.5522 43.1162C84.5522 43.1162 84.5522 43.1162 84.6162 43.1162C84.6162 43.1162 84.6162 43.1162 84.6162 43.0509V42.0714C84.6162 42.0061 84.6162 42.0061 84.5522 42.0061C84.5522 42.0061 84.4872 41.9408 84.4222 41.9408C84.3572 41.8756 84.2272 41.8755 84.0982 41.8103C83.9682 41.745 83.7742 41.745 83.5792 41.6797C83.3852 41.6144 83.1252 41.6144 82.8662 41.6144C82.5422 41.6144 82.2822 41.6797 81.9582 41.745C81.6992 41.8103 81.4402 41.9408 81.1802 42.0714C80.9212 42.202 80.7262 42.3979 80.5322 42.5938C80.3372 42.7897 80.1432 42.9856 80.0132 43.2468C79.8832 43.5079 79.7542 43.7691 79.6892 44.0303C79.6242 44.2915 79.5592 44.618 79.5592 44.8792C79.5592 45.3362 79.6242 45.728 79.8192 46.1198C79.9482 46.5116 80.2082 46.838 80.4672 47.0992C80.7262 47.3604 81.0502 47.6216 81.4402 47.7522C81.8292 47.9481 82.2182 48.0134 82.6712 48.0134C82.9312 48.0134 83.1252 48.0134 83.3202 47.9481C83.5142 47.9481 83.7092 47.8828 83.9032 47.8175C84.0982 47.7522 84.2922 47.6869 84.4872 47.6869C84.6812 47.6216 84.8762 47.5563 85.1352 47.491C85.2002 47.491 85.2002 47.491 85.2002 47.4257C85.2002 47.4257 85.2002 47.3604 85.2002 47.2951V45.0097C85.1352 45.075 85.1352 45.075 85.0702 45.0097Z" fill="#141F19"/>
</svg>
