<svg width="131" height="51" viewBox="0 0 131 51" fill="none" xmlns="http://www.w3.org/2000/svg">
<path d="M41.8039 29.1607C44.3494 32.1964 48.2585 34.0714 52.5312 34.0714C52.5312 34.0714 52.5312 34.0714 52.6221 34.0714C56.9857 34.0714 60.8948 32.1071 63.4403 29.1607C63.713 28.8929 63.8948 28.625 64.0767 28.2679C65.713 26.0357 66.6221 23.2679 66.6221 20.3214C66.6221 17.375 65.6221 14.6071 64.0767 12.375C63.8948 12.1071 63.6221 11.75 63.4403 11.4821C61.9857 9.7857 60.2585 8.5357 58.1676 7.6429C58.4403 8.1786 58.713 8.7143 59.0767 9.3393C60.3494 10.0536 61.5312 11.0357 62.5312 12.1964C61.9857 12.5536 61.4403 12.8214 60.8039 13.0893C60.8948 13.4464 61.0767 13.8036 61.1676 14.1607C61.8948 13.8036 62.6221 13.4464 63.1676 13.0893C64.6221 15.1429 65.5312 17.5536 65.5312 20.2321H61.4403C61.3494 20.5893 61.1676 21.0357 60.9857 21.3929H65.4403C65.2585 23.7143 64.4403 25.8571 63.1676 27.6429C62.2585 27.1071 61.2585 26.5714 60.0767 26.125C60.4403 24.7857 60.713 23.3571 60.8039 21.8393C60.4403 22.5536 59.9857 23.1786 59.4403 23.8036C59.3494 24.5179 59.1676 25.1429 58.9857 25.8571C58.4403 25.6786 57.9857 25.5893 57.4403 25.5C56.8948 25.8571 56.2585 26.125 55.6221 26.3036C56.713 26.4821 57.713 26.6607 58.6221 26.9286C57.4403 30.3214 55.4403 32.7321 53.0767 33V26.75C52.8948 26.75 52.713 26.75 52.5312 26.75C52.3494 26.75 52.1676 26.75 51.9857 26.75V33C49.6221 32.6429 47.5312 30.3214 46.4403 26.9286C47.4403 26.6607 48.4403 26.3929 49.5312 26.3036C48.8948 26.125 48.3494 25.7679 47.713 25.5C47.1676 25.5893 46.6221 25.7679 46.0767 25.9464C45.8948 25.2321 45.713 24.6071 45.6221 23.8036C45.0767 23.1786 44.6221 22.5536 44.2585 21.8393C44.3494 23.4464 44.6221 24.9643 44.9857 26.3036C43.8948 26.75 42.8948 27.1964 41.9857 27.8214C40.713 26.0357 39.8948 23.8929 39.6221 21.5714H44.0767C43.8948 21.2143 43.8039 20.8571 43.6221 20.4107H39.713C39.713 17.7321 40.6221 15.3214 42.0767 13.2679C42.713 13.625 43.3494 14.0714 44.0767 14.3393C44.1676 13.9821 44.3494 13.625 44.4403 13.2679C43.8039 13 43.2585 12.6429 42.713 12.375C43.713 11.2143 44.8948 10.3214 46.1676 9.5179C46.4403 8.8929 46.8039 8.3571 47.0767 7.8214C44.9857 8.7143 43.2585 10.0536 41.8039 11.6607C41.5312 11.9286 41.3494 12.1964 41.1676 12.5536C39.5312 14.7857 38.6221 17.5536 38.6221 20.5C38.6221 23.4464 39.6221 26.2143 41.1676 28.4464C41.3494 28.625 41.5312 28.8929 41.8039 29.1607ZM59.8039 27.1964C60.8039 27.5536 61.713 28 62.5312 28.5357C60.9857 30.3214 58.9857 31.6607 56.6221 32.375C57.9857 31.125 59.0767 29.3393 59.8039 27.1964ZM45.3494 27.1964C46.0767 29.3393 47.1676 31.125 48.4403 32.375C46.1676 31.6607 44.1676 30.3214 42.713 28.5357C43.5312 28 44.3494 27.5536 45.3494 27.1964ZM52.6221 25.6786C57.1676 25.6786 60.8039 22.1071 60.8039 17.6429C60.8039 13.7143 56.1676 6.5714 53.5312 1.03571C53.3494 0.76786 52.9857 0.5 52.6221 0.5C52.2585 0.5 51.8039 0.76786 51.713 1.125C49.0767 6.6607 44.4403 13.8036 44.4403 17.7321C44.3494 22.1071 48.0767 25.6786 52.6221 25.6786ZM46.4403 17.9107C46.713 20.6786 48.3494 23 50.6221 23.8929C47.8039 23.2679 45.713 20.8571 45.713 18C45.713 16.6607 46.1676 15.4107 46.9857 14.3393C46.5312 15.4107 46.3494 16.6607 46.4403 17.9107ZM38.713 10.5893H32.9857L30.4403 24.1607L27.5312 14.7857L28.5312 10.5893H22.8039L20.2585 24.1607L16.8039 10.5893H11.0767L16.8948 30.6786H23.5312L25.1676 24.1607L27.0767 30.6786H33.713L38.713 10.5893ZM90.6221 30.6786H98.9855V25.8571H93.1676C92.3494 25.8571 91.4403 25.8571 91.4403 24.4286V10.5893H85.9857V26.3929C85.9857 29.5179 88.0767 30.6786 90.6221 30.6786ZM73.9857 23.1786L75.713 23.5357L78.3494 30.6786H84.6221L81.0767 23.0893C82.5312 22.5536 84.0767 21.8393 84.0767 17.0179C84.0767 12.0179 81.4403 10.5893 77.8039 10.5893H68.5312V30.6786H73.9857V23.1786ZM73.9857 15.1429H76.9857C78.2585 15.1429 78.5312 15.8571 78.5312 17.0179C78.5312 18.4464 78.4403 19.1607 76.9857 19.1607H73.9857V15.1429ZM117.44 20.6786C117.44 14.9643 115.985 10.5893 110.44 10.5893H100.803V30.6786H110.44C115.167 30.6786 117.44 27.7321 117.44 20.6786ZM106.258 26.2143V15.1429H109.894C111.258 15.1429 111.985 15.7679 111.985 20.7679C111.985 24.6071 111.44 26.2143 109.894 26.2143H106.258ZM6.53116 44.6071C7.62206 44.3393 7.89476 43.2679 7.89476 42.1964C7.89476 40.9464 7.25846 39.3393 4.98566 39.3393H0.62207V50.4107H4.98566C7.34936 50.4107 7.98566 48.8929 7.98566 47.375C7.98566 45.5893 7.16756 44.7857 6.53116 44.6071ZM1.80389 40.4107H4.98566C5.80386 40.4107 6.80386 40.6786 6.80386 42.1964C6.80386 43.4464 6.16756 44.0714 4.98566 44.0714H1.80389V40.4107ZM4.98566 49.25H1.80389V45.1429H4.98566C6.25846 45.1429 6.80386 46.125 6.80386 47.2857C6.80386 49.0714 5.71296 49.25 4.98566 49.25ZM42.8039 39.3393H38.6221V50.4107H42.8039C45.8039 50.4107 46.8039 47.4643 46.8039 44.9643C46.8948 42.6429 46.3494 39.3393 42.8039 39.3393ZM42.8039 49.1607H39.713V40.4107H42.8039C44.6221 40.4107 45.713 41.6607 45.713 44.875C45.713 47.1964 44.8948 49.1607 42.8039 49.1607ZM22.1676 39.25C19.5312 39.25 17.8039 39.7857 17.8039 44.9643C17.8039 49.9643 19.4403 50.5 22.1676 50.5C24.9857 50.5 26.5312 49.875 26.5312 44.9643C26.5312 39.6964 24.8948 39.25 22.1676 39.25ZM22.1676 49.3393C19.713 49.3393 18.8948 48.8036 18.8948 44.9643C18.8948 40.4107 20.0767 40.4107 22.1676 40.4107C24.2585 40.4107 25.3494 40.5 25.3494 44.9643C25.4403 48.7143 24.6221 49.3393 22.1676 49.3393ZM32.3494 39.25C29.713 39.25 27.9857 39.7857 27.9857 44.9643C27.9857 49.9643 29.6221 50.5 32.3494 50.5C35.1676 50.5 36.713 49.875 36.713 44.9643C36.713 39.6964 34.9857 39.25 32.3494 39.25ZM32.3494 49.3393C29.8948 49.3393 29.0767 48.8036 29.0767 44.9643C29.0767 40.4107 30.2585 40.4107 32.3494 40.4107C34.4403 40.4107 35.5312 40.5 35.5312 44.9643C35.5312 48.7143 34.713 49.3393 32.3494 49.3393ZM10.9857 48.4464V39.3393H9.80386V48.4464C9.80386 50.1429 10.8948 50.3214 11.8948 50.3214H16.6221V49.1607H11.8948C11.5312 49.25 10.9857 49.25 10.9857 48.4464ZM77.4403 44.9643L74.1676 39.25H71.0767V50.3214H74.0767V44.7857L77.3494 50.3214H80.3494V39.3393H77.3494V44.9643H77.4403ZM86.2585 39.25C83.6221 39.25 81.5312 39.7857 81.5312 44.9643C81.5312 50.0536 83.4403 50.5 86.2585 50.5C89.0767 50.5 90.9857 49.875 90.9857 44.9643C90.9857 39.7857 88.9857 39.25 86.2585 39.25ZM86.2585 47.8214C84.713 47.8214 84.5312 47.2857 84.5312 44.875C84.5312 42.1964 84.8948 41.8393 86.2585 41.8393C87.713 41.8393 87.9857 42.2857 87.9857 44.875C87.9857 47.2857 87.6221 47.8214 86.2585 47.8214ZM100.713 42.9107C100.713 40.1429 99.2585 39.3393 97.2585 39.3393H92.1676V50.4107H95.1675V46.3036L96.0765 46.4821L97.5315 50.4107H100.985L98.9855 46.2143C99.8035 45.9464 100.713 45.5 100.713 42.9107ZM96.8035 44.0714H95.1675V41.8393H96.8035C97.5315 41.8393 97.6225 42.1964 97.6225 42.9107C97.6225 43.7143 97.6225 44.0714 96.8035 44.0714ZM55.8039 39.3393H50.4403V50.4107H55.8039C58.4403 50.4107 59.713 48.8036 59.713 44.875C59.6221 41.75 58.8948 39.3393 55.8039 39.3393ZM55.4403 47.9107H53.4403V41.75H55.4403C56.1676 41.75 56.6221 42.1071 56.6221 44.875C56.6221 47.0179 56.3494 47.9107 55.4403 47.9107ZM65.3494 39.25C62.713 39.25 60.6221 39.7857 60.6221 44.9643C60.6221 50.0536 62.5312 50.5 65.3494 50.5C68.1676 50.5 70.0767 49.875 70.0767 44.9643C70.0767 39.7857 68.0767 39.25 65.3494 39.25ZM65.3494 47.8214C63.8039 47.8214 63.6221 47.2857 63.6221 44.875C63.6221 42.1964 63.9857 41.8393 65.3494 41.8393C66.8039 41.8393 67.0767 42.2857 67.0767 44.875C67.0767 47.2857 66.713 47.8214 65.3494 47.8214ZM129.349 39.3393L126.076 45.1429L123.167 39.3393H121.894L125.531 46.4821V50.4107H126.713V46.4821L130.622 39.3393H129.349ZM117.531 39.3393L113.349 50.4107H114.803L115.803 47.2857H120.349L121.349 50.4107H122.713L118.713 39.3393H117.531ZM116.167 46.2143L118.076 41.0357L119.894 46.2143H116.167ZM108.713 39.3393H104.44V50.4107H108.713C111.713 50.4107 112.803 47.375 112.803 44.875C112.803 42.6429 112.258 39.3393 108.713 39.3393ZM108.713 49.25H105.622V40.4107H108.713C110.531 40.4107 111.622 41.6607 111.622 44.875C111.622 47.1964 110.803 49.25 108.713 49.25Z" fill="#141F19"/>
</svg>
