<svg width="123" height="41" viewBox="0 0 123 41" fill="none" xmlns="http://www.w3.org/2000/svg">
<path d="M13.374 13.7331H26.6884V0.418823H13.374V13.7331Z" fill="#141F19"/>
<path d="M0 27.0477H13.3144V13.7333H0V27.0477Z" fill="#141F19"/>
<path d="M33.4033 27.3132L36.4727 5.60544H52.1682L50.8391 10.6684H42.2636L41.7256 14.3391H49.6683L49.0038 19.1807H41.0611L39.8903 27.3132H33.4033ZM52.8666 27.3132L55.1133 11.1431H61.3472L59.0688 27.3132H52.8666ZM55.3981 9.05464L56.031 4.52954H62.2649L61.632 9.05464H55.3981ZM62.1984 27.3132L64.4767 11.1431H69.1917L69.4765 13.4848C69.6453 13.2527 69.9406 12.9257 70.3625 12.5038C70.8055 12.0819 71.4173 11.7021 72.1979 11.3646C72.9784 11.006 73.9805 10.8267 75.2041 10.8267C76.723 10.8267 77.8622 11.2169 78.6216 11.9975C79.3811 12.778 79.7608 13.7485 79.7608 14.9087C79.7608 15.1197 79.7397 15.415 79.6975 15.7948C79.6553 16.1534 79.592 16.6386 79.5076 17.2504C79.4444 17.8622 79.3389 18.6216 79.1912 19.5288C79.0646 20.4359 78.9064 21.5329 78.7165 22.8197C78.5478 24.1066 78.3368 25.6044 78.0837 27.3132H71.8181C72.0713 25.5622 72.2823 24.0961 72.451 22.9147C72.6198 21.7122 72.7569 20.7418 72.8624 20.0034C72.9679 19.244 73.0417 18.6533 73.0839 18.2314C73.1472 17.7883 73.1894 17.4614 73.2105 17.2504C73.2316 17.0183 73.2421 16.8285 73.2421 16.6808C73.2421 16.2589 73.1155 15.9213 72.8624 15.6682C72.6303 15.415 72.2823 15.2885 71.8181 15.2885C71.4595 15.2885 71.1431 15.3728 70.8688 15.5416C70.5946 15.7104 70.3731 15.9424 70.2043 16.2378C70.0566 16.512 69.9511 16.8285 69.8879 17.1871L68.4639 27.3132H62.1984ZM86.6491 27.6296C84.9825 27.6296 83.6851 27.1022 82.7568 26.0474C81.8286 24.9926 81.3645 23.3788 81.3645 21.2059C81.3645 19.919 81.5016 18.6638 81.7759 17.4403C82.0712 16.1956 82.5142 15.0775 83.1049 14.086C83.7167 13.0945 84.4867 12.3034 85.4149 11.7127C86.3643 11.122 87.5034 10.8267 88.8325 10.8267C89.9505 10.8267 90.8155 11.0271 91.4275 11.4279C92.0395 11.8076 92.4715 12.2717 92.7245 12.8202L93.8955 4.52954H100.162C99.8445 6.66024 99.5595 8.54834 99.3065 10.1938C99.0535 11.8393 98.8325 13.2843 98.6425 14.529C98.4735 15.7737 98.3155 16.839 98.1675 17.7251C98.0405 18.6111 97.9355 19.36 97.8515 19.9718C97.7665 20.5836 97.7035 21.0899 97.6615 21.4907C97.6185 21.8704 97.5875 22.1763 97.5665 22.4084C97.5455 22.6404 97.5345 22.8303 97.5345 22.978C97.5345 23.21 97.5975 23.4104 97.7245 23.5792C97.8515 23.748 98.0625 23.8324 98.3575 23.8324C98.5685 23.8324 98.7685 23.7902 98.9585 23.7058C99.1695 23.6214 99.3595 23.5265 99.5285 23.421L99.0215 26.9018C98.5785 27.1339 98.0515 27.3132 97.4395 27.4398C96.8485 27.5664 96.3005 27.6296 95.7945 27.6296C95.1615 27.6296 94.5495 27.5664 93.9585 27.4398C93.3685 27.3343 92.8515 27.1128 92.4085 26.7753C91.9655 26.4166 91.6595 25.8787 91.4905 25.1614C90.9425 25.8576 90.2775 26.4483 89.4975 26.9335C88.7165 27.3976 87.7672 27.6296 86.6491 27.6296ZM89.2435 23.8007C89.7075 23.8007 90.0875 23.7058 90.3835 23.5159C90.6995 23.305 90.9525 23.0307 91.1425 22.6932C91.3325 22.3556 91.4585 21.9865 91.5225 21.5856C91.7545 19.8558 91.9235 18.6322 92.0285 17.9149C92.1345 17.1766 92.1865 16.7441 92.1865 16.6175C92.1865 16.0057 92.0075 15.5522 91.6485 15.2568C91.2905 14.9404 90.8685 14.7822 90.3835 14.7822C90.0035 14.7822 89.6555 14.8665 89.3385 15.0353C89.0225 15.2041 88.7587 15.4572 88.5477 15.7948C88.3578 16.1112 88.2313 16.4909 88.168 16.934C87.957 18.3474 87.7988 19.4866 87.6933 20.3515C87.6089 21.2164 87.5667 21.7649 87.5667 21.997C87.5667 22.5455 87.725 22.9885 88.0414 23.3261C88.3578 23.6425 88.7587 23.8007 89.2435 23.8007ZM101.29 27.3132L103.569 11.1431H108.252L108.6 13.4848C108.663 13.3582 108.822 13.1578 109.075 12.8835C109.328 12.5882 109.655 12.2823 110.056 11.9658C110.457 11.6494 110.931 11.3857 111.48 11.1747C112.028 10.9427 112.619 10.8267 113.252 10.8267C114.518 10.8267 115.477 11.1431 116.131 11.776C116.785 12.4089 117.112 13.2632 117.112 14.3391C117.112 14.9298 117.06 15.5205 116.954 16.1112C116.849 16.6808 116.722 17.2082 116.574 17.6934H111.448C111.49 17.5035 111.511 17.3242 111.511 17.1555C111.532 16.9656 111.543 16.8074 111.543 16.6808C111.543 16.3433 111.49 16.0796 111.385 15.8897C111.3 15.6998 111.174 15.5627 111.005 15.4783C110.836 15.3939 110.646 15.3518 110.435 15.3518C110.225 15.3518 110.024 15.3939 109.834 15.4783C109.644 15.5627 109.486 15.6787 109.36 15.8264C109.233 15.953 109.128 16.1112 109.043 16.3011C108.959 16.4909 108.895 16.7019 108.853 16.934L107.398 27.3132H101.29Z" fill="#141F19"/>
<path d="M9.13574 39.3464V34.841H10.2588L11.6511 38.3416H11.6643L13.0632 34.841H14.1928V39.3464H13.4966V35.6423H13.4638L11.9992 39.3464H11.2505L9.79254 35.6423H9.75974V39.3464H9.13574ZM16.1386 39.4121C15.9591 39.4121 15.7861 39.3836 15.6197 39.3267C15.4577 39.2698 15.3242 39.1735 15.2191 39.0377C15.1184 38.8976 15.0681 38.7093 15.0681 38.4729C15.0681 38.2321 15.1206 38.0394 15.2257 37.895C15.3351 37.7461 15.4884 37.6323 15.6854 37.5534C15.8868 37.4746 16.1254 37.4221 16.4013 37.3958C16.6815 37.3695 16.988 37.3564 17.3208 37.3564V37.0149C17.3208 36.7785 17.2616 36.6143 17.1434 36.5223C17.0296 36.426 16.8479 36.3778 16.5983 36.3778C16.3881 36.3778 16.2064 36.4238 16.0532 36.5158C15.9 36.6033 15.8233 36.7434 15.8233 36.9361V37.0149H15.1863C15.1819 36.993 15.1797 36.9711 15.1797 36.9492C15.1797 36.9229 15.1797 36.8967 15.1797 36.8704C15.1797 36.6778 15.2388 36.5114 15.357 36.3713C15.4796 36.2268 15.6438 36.1173 15.8496 36.0429C16.0598 35.9641 16.2984 35.9247 16.5655 35.9247H16.6574C17.0996 35.9247 17.428 36.0122 17.6426 36.1874C17.8615 36.3625 17.9709 36.6143 17.9709 36.9427V38.7225C17.9709 38.8013 17.9885 38.8582 18.0235 38.8932C18.0585 38.9283 18.1001 38.9458 18.1483 38.9458C18.1964 38.9458 18.2468 38.937 18.2993 38.9195C18.3562 38.902 18.4066 38.8801 18.4504 38.8538V39.2742C18.3935 39.3179 18.3234 39.3508 18.2402 39.3727C18.157 39.3989 18.0585 39.4121 17.9447 39.4121C17.8046 39.4121 17.6907 39.3858 17.6032 39.3333C17.52 39.2763 17.4587 39.2019 17.4193 39.11C17.3799 39.018 17.3558 38.9151 17.347 38.8013C17.22 38.9983 17.0537 39.1494 16.8479 39.2545C16.6465 39.3595 16.41 39.4121 16.1386 39.4121ZM16.4013 38.9458C16.5545 38.9458 16.7012 38.9129 16.8413 38.8473C16.9814 38.7772 17.0953 38.6721 17.1828 38.532C17.2748 38.3919 17.3208 38.2168 17.3208 38.0066V37.757C16.9924 37.757 16.71 37.7746 16.4735 37.8096C16.2371 37.8402 16.0554 37.9015 15.9284 37.9935C15.8058 38.0854 15.7445 38.2277 15.7445 38.4204C15.7445 38.6043 15.7993 38.7378 15.9087 38.821C16.0182 38.9042 16.1824 38.9458 16.4013 38.9458ZM19.2034 39.3464V34.6177H19.8602V37.8293L21.4101 35.9903H22.1851L20.8453 37.5403L22.2639 39.3464H21.4692L20.3987 37.9935L19.8602 38.5386V39.3464H19.2034ZM22.9182 39.3464V35.9903H23.5749V39.3464H22.9182ZM22.8985 35.1694V34.6177H23.5946V35.1694H22.8985ZM24.6679 39.3464V35.9903H25.1407L25.2327 36.4829C25.3553 36.299 25.5129 36.1611 25.7056 36.0692C25.9026 35.9728 26.1149 35.9247 26.3426 35.9247C26.5747 35.9247 26.7783 35.9685 26.9534 36.056C27.1329 36.1436 27.273 36.2749 27.3737 36.4501C27.4744 36.6208 27.5248 36.8354 27.5248 37.0937V39.3464H26.868V37.2054C26.868 36.9295 26.8045 36.7325 26.6776 36.6143C26.5506 36.4917 26.3711 36.4304 26.139 36.4304C25.9902 36.4304 25.8522 36.4676 25.7253 36.542C25.6027 36.6165 25.5042 36.7172 25.4297 36.8441C25.3597 36.9667 25.3246 37.109 25.3246 37.271V39.3464H24.6679ZM29.1386 40.5811C28.9854 40.5811 28.8453 40.5439 28.7183 40.4695C28.5957 40.395 28.4972 40.2943 28.4228 40.1674C28.3483 40.0448 28.3111 39.9112 28.3111 39.7667C28.3111 39.6091 28.3549 39.4602 28.4425 39.3201C28.53 39.18 28.6504 39.0771 28.8037 39.0115C28.7074 38.9502 28.6307 38.8713 28.5738 38.775C28.5213 38.6787 28.495 38.5758 28.495 38.4663C28.495 38.3043 28.5454 38.1686 28.6461 38.0591C28.7468 37.9453 28.8781 37.8599 29.0401 37.803C28.9044 37.7111 28.7949 37.6038 28.7117 37.4812C28.6286 37.3542 28.587 37.2054 28.587 37.0346C28.587 36.8463 28.6351 36.669 28.7314 36.5026C28.8322 36.3319 28.9832 36.1939 29.1846 36.0889C29.386 35.9794 29.6378 35.9247 29.9399 35.9247C30.08 35.9247 30.207 35.9334 30.3208 35.9509C30.439 35.9685 30.5441 35.9969 30.6361 36.0363C30.8024 35.9663 30.9316 35.8743 31.0236 35.7605C31.1155 35.6466 31.168 35.5219 31.1812 35.3861H31.7197C31.7197 35.5262 31.6913 35.6554 31.6343 35.7736C31.5818 35.8918 31.5052 35.9903 31.4045 36.0692C31.3038 36.148 31.1834 36.2027 31.0433 36.2333L31.0367 36.253C31.1374 36.3406 31.2162 36.4435 31.2731 36.5617C31.3344 36.6799 31.3651 36.8113 31.3651 36.9558C31.3651 37.1484 31.3147 37.328 31.214 37.4943C31.1133 37.6563 30.9666 37.7877 30.774 37.8884C30.5857 37.9847 30.3515 38.0329 30.0712 38.0329H29.559C29.4232 38.0329 29.3138 38.0657 29.2306 38.1314C29.1474 38.1971 29.1058 38.2846 29.1058 38.3941C29.1058 38.4992 29.1452 38.5846 29.224 38.6502C29.3072 38.7159 29.4189 38.7487 29.559 38.7487H30.8265C31.1024 38.7487 31.3191 38.8341 31.4767 39.0049C31.6387 39.1713 31.7197 39.3771 31.7197 39.6222C31.7197 39.7974 31.6759 39.9572 31.5884 40.1017C31.5052 40.2505 31.387 40.3666 31.2337 40.4498C31.0848 40.5373 30.9097 40.5811 30.7083 40.5811H29.1386ZM29.3488 40.1345H30.6098C30.7411 40.1345 30.855 40.0885 30.9513 39.9966C31.052 39.9047 31.1024 39.793 31.1024 39.6616C31.1024 39.5522 31.0608 39.4559 30.9776 39.3727C30.8988 39.2895 30.8024 39.2479 30.6886 39.2479H29.3488C29.2218 39.2479 29.1146 39.2917 29.027 39.3792C28.9394 39.4668 28.8956 39.5719 28.8956 39.6945C28.8956 39.8127 28.9394 39.9156 29.027 40.0032C29.1146 40.0907 29.2218 40.1345 29.3488 40.1345ZM29.9727 37.6257C30.2135 37.6257 30.4018 37.5622 30.5375 37.4352C30.6733 37.3082 30.7411 37.1572 30.7411 36.9821C30.7411 36.8069 30.6733 36.6559 30.5375 36.5289C30.4018 36.3975 30.2135 36.3319 29.9727 36.3319C29.7319 36.3319 29.5436 36.3975 29.4079 36.5289C29.2766 36.6559 29.2109 36.8069 29.2109 36.9821C29.2109 37.1572 29.2766 37.3082 29.4079 37.4352C29.5436 37.5622 29.7319 37.6257 29.9727 37.6257ZM33.8984 39.3464V35.9903H34.5552V39.3464H33.8984ZM33.8787 35.1694V34.6177H34.5749V35.1694H33.8787ZM35.6481 39.3464V35.9903H36.121L36.213 36.4829C36.3356 36.299 36.4932 36.1611 36.6858 36.0692C36.8829 35.9728 37.0952 35.9247 37.3229 35.9247C37.5549 35.9247 37.7585 35.9685 37.9337 36.056C38.1132 36.1436 38.2533 36.2749 38.354 36.4501C38.4547 36.6208 38.5051 36.8354 38.5051 37.0937V39.3464H37.8483V37.2054C37.8483 36.9295 37.7848 36.7325 37.6578 36.6143C37.5309 36.4917 37.3513 36.4304 37.1193 36.4304C36.9704 36.4304 36.8325 36.4676 36.7055 36.542C36.5829 36.6165 36.4844 36.7172 36.41 36.8441C36.3399 36.9667 36.3049 37.109 36.3049 37.271V39.3464H35.6481ZM40.507 39.4121C40.345 39.4121 40.1983 39.3858 40.067 39.3333C39.94 39.2807 39.8393 39.1975 39.7649 39.0837C39.6948 38.9655 39.6598 38.81 39.6598 38.6174V36.5026H39.292V35.9903H39.6795L39.9093 34.9198H40.3165V35.9903H41.0981V36.5026H40.3165V38.4992C40.3165 38.6918 40.3559 38.8144 40.4348 38.867C40.5136 38.9195 40.599 38.9458 40.6909 38.9458C40.7391 38.9458 40.8047 38.9348 40.8879 38.9129C40.9755 38.891 41.0456 38.8692 41.0981 38.8473V39.2873C41.0499 39.3136 40.9908 39.3355 40.9208 39.353C40.8551 39.3749 40.785 39.3902 40.7106 39.3989C40.6405 39.4077 40.5727 39.4121 40.507 39.4121ZM43.3122 39.4121C43.0144 39.4121 42.7517 39.3486 42.524 39.2216C42.3007 39.0903 42.1256 38.8998 41.9986 38.6502C41.8717 38.3963 41.8082 38.092 41.8082 37.7373V37.5994C41.8082 37.2404 41.8738 36.9361 42.0052 36.6865C42.1409 36.4369 42.3248 36.2487 42.5569 36.1217C42.7889 35.9903 43.0538 35.9247 43.3516 35.9247H43.4238C43.6953 35.9247 43.9361 35.9816 44.1462 36.0954C44.3564 36.2093 44.5184 36.3713 44.6322 36.5814C44.7505 36.7916 44.8096 37.0412 44.8096 37.3301V37.7505H42.4912C42.4912 38 42.524 38.2146 42.5897 38.3941C42.6598 38.5736 42.7583 38.7115 42.8853 38.8079C43.0166 38.8998 43.1764 38.9458 43.3647 38.9458C43.5223 38.9458 43.6624 38.9151 43.785 38.8538C43.9076 38.7925 44.0061 38.6984 44.0806 38.5714C44.155 38.4444 44.1922 38.2868 44.1922 38.0986H44.8096C44.8096 38.3656 44.7461 38.5977 44.6191 38.7947C44.4921 38.9918 44.3192 39.145 44.1003 39.2545C43.8857 39.3595 43.6427 39.4121 43.3713 39.4121H43.3122ZM42.4978 37.3564H44.1659C44.1659 37.028 44.0937 36.785 43.9492 36.6274C43.8091 36.4698 43.6121 36.391 43.3581 36.391C43.1261 36.391 42.9269 36.472 42.7605 36.634C42.5985 36.796 42.5109 37.0368 42.4978 37.3564ZM45.7112 39.3464V35.9903H46.1972L46.2892 36.4829C46.2936 36.4742 46.3133 36.4413 46.3483 36.3844C46.3833 36.3275 46.4359 36.264 46.5059 36.1939C46.5804 36.1195 46.6745 36.056 46.7883 36.0035C46.9065 35.9509 47.051 35.9247 47.2218 35.9247C47.4538 35.9247 47.6443 35.9728 47.7932 36.0692C47.9464 36.1611 48.0581 36.2881 48.1281 36.4501C48.2026 36.6121 48.2398 36.796 48.2398 37.0018C48.2398 37.0455 48.2376 37.0915 48.2332 37.1397C48.2288 37.1835 48.2266 37.2185 48.2266 37.2448H47.6618V37.12C47.6618 37.0237 47.6421 36.9229 47.6027 36.8179C47.5677 36.7084 47.5042 36.6186 47.4123 36.5486C47.3203 36.4742 47.1911 36.4369 47.0248 36.4369C46.9022 36.4369 46.7971 36.4632 46.7095 36.5158C46.6263 36.5683 46.5585 36.634 46.5059 36.7128C46.4578 36.7916 46.4227 36.8748 46.4008 36.9624C46.3789 37.0499 46.368 37.1309 46.368 37.2054V39.3464H45.7112ZM48.9373 39.3464V35.9903H49.4102L49.5021 36.4829C49.6247 36.299 49.7824 36.1611 49.975 36.0692C50.172 35.9728 50.3844 35.9247 50.6121 35.9247C50.8441 35.9247 51.0477 35.9685 51.2229 36.056C51.4024 36.1436 51.5425 36.2749 51.6432 36.4501C51.7439 36.6208 51.7942 36.8354 51.7942 37.0937V39.3464H51.1375V37.2054C51.1375 36.9295 51.074 36.7325 50.947 36.6143C50.82 36.4917 50.6405 36.4304 50.4085 36.4304C50.2596 36.4304 50.1217 36.4676 49.9947 36.542C49.8721 36.6165 49.7736 36.7172 49.6992 36.8441C49.6291 36.9667 49.5941 37.109 49.5941 37.271V39.3464H48.9373ZM54.1962 39.4121C53.8985 39.4121 53.6358 39.3486 53.4081 39.2216C53.1848 39.0903 53.0097 38.8998 52.8827 38.6502C52.7557 38.3963 52.6922 38.092 52.6922 37.7373V37.5994C52.6922 37.2404 52.7579 36.9361 52.8892 36.6865C53.025 36.4369 53.2089 36.2487 53.4409 36.1217C53.673 35.9903 53.9379 35.9247 54.2356 35.9247H54.3079C54.5793 35.9247 54.8201 35.9816 55.0303 36.0954C55.2405 36.2093 55.4025 36.3713 55.5163 36.5814C55.6345 36.7916 55.6936 37.0412 55.6936 37.3301V37.7505H53.3752C53.3752 38 53.4081 38.2146 53.4738 38.3941C53.5438 38.5736 53.6423 38.7115 53.7693 38.8079C53.9007 38.8998 54.0605 38.9458 54.2487 38.9458C54.4064 38.9458 54.5465 38.9151 54.6691 38.8538C54.7917 38.7925 54.8902 38.6984 54.9646 38.5714C55.039 38.4444 55.0763 38.2868 55.0763 38.0986H55.6936C55.6936 38.3656 55.6301 38.5977 55.5032 38.7947C55.3762 38.9918 55.2032 39.145 54.9843 39.2545C54.7698 39.3595 54.5268 39.4121 54.2553 39.4121H54.1962ZM53.3818 37.3564H55.05C55.05 37.028 54.9778 36.785 54.8333 36.6274C54.6932 36.4698 54.4961 36.391 54.2422 36.391C54.0101 36.391 53.8109 36.472 53.6445 36.634C53.4825 36.796 53.395 37.0368 53.3818 37.3564ZM57.5739 39.4121C57.4119 39.4121 57.2652 39.3858 57.1338 39.3333C57.0069 39.2807 56.9062 39.1975 56.8317 39.0837C56.7617 38.9655 56.7266 38.81 56.7266 38.6174V36.5026H56.3589V35.9903H56.7463L56.9762 34.9198H57.3834V35.9903H58.165V36.5026H57.3834V38.4992C57.3834 38.6918 57.4228 38.8144 57.5016 38.867C57.5804 38.9195 57.6658 38.9458 57.7578 38.9458C57.8059 38.9458 57.8716 38.9348 57.9548 38.9129C58.0424 38.891 58.1124 38.8692 58.165 38.8473V39.2873C58.1168 39.3136 58.0577 39.3355 57.9876 39.353C57.922 39.3749 57.8519 39.3902 57.7775 39.3989C57.7074 39.4077 57.6395 39.4121 57.5739 39.4121ZM61.867 39.4121C61.5693 39.4121 61.3066 39.3486 61.0789 39.2216C60.8556 39.0903 60.6804 38.8998 60.5535 38.6502C60.4265 38.3963 60.363 38.092 60.363 37.7373V37.5994C60.363 37.2404 60.4287 36.9361 60.56 36.6865C60.6958 36.4369 60.8797 36.2487 61.1117 36.1217C61.3438 35.9903 61.6087 35.9247 61.9064 35.9247H61.9786C62.2501 35.9247 62.4909 35.9816 62.7011 36.0954C62.9112 36.2093 63.0732 36.3713 63.1871 36.5814C63.3053 36.7916 63.3644 37.0412 63.3644 37.3301V37.7505H61.046C61.046 38 61.0789 38.2146 61.1446 38.3941C61.2146 38.5736 61.3131 38.7115 61.4401 38.8079C61.5714 38.8998 61.7313 38.9458 61.9195 38.9458C62.0772 38.9458 62.2173 38.9151 62.3399 38.8538C62.4625 38.7925 62.561 38.6984 62.6354 38.5714C62.7098 38.4444 62.7471 38.2868 62.7471 38.0986H63.3644C63.3644 38.3656 63.3009 38.5977 63.1739 38.7947C63.047 38.9918 62.874 39.145 62.6551 39.2545C62.4406 39.3595 62.1976 39.4121 61.9261 39.4121H61.867ZM61.0526 37.3564H62.7208C62.7208 37.028 62.6485 36.785 62.5041 36.6274C62.3639 36.4698 62.1669 36.391 61.913 36.391C61.6809 36.391 61.4817 36.472 61.3153 36.634C61.1533 36.796 61.0657 37.0368 61.0526 37.3564ZM65.1264 39.4121C64.9469 39.4121 64.774 39.3836 64.6076 39.3267C64.4456 39.2698 64.312 39.1735 64.207 39.0377C64.1063 38.8976 64.0559 38.7093 64.0559 38.4729C64.0559 38.2321 64.1085 38.0394 64.2135 37.895C64.323 37.7461 64.4762 37.6323 64.6733 37.5534C64.8747 37.4746 65.1133 37.4221 65.3891 37.3958C65.6694 37.3695 65.9758 37.3564 66.3086 37.3564V37.0149C66.3086 36.7785 66.2495 36.6143 66.1313 36.5223C66.0174 36.426 65.8357 36.3778 65.5862 36.3778C65.376 36.3778 65.1943 36.4238 65.0411 36.5158C64.8878 36.6033 64.8112 36.7434 64.8112 36.9361V37.0149H64.1741C64.1697 36.993 64.1676 36.9711 64.1676 36.9492C64.1676 36.9229 64.1676 36.8967 64.1676 36.8704C64.1676 36.6778 64.2267 36.5114 64.3449 36.3713C64.4675 36.2268 64.6317 36.1173 64.8375 36.0429C65.0476 35.9641 65.2862 35.9247 65.5533 35.9247H65.6453C66.0875 35.9247 66.4159 36.0122 66.6304 36.1874C66.8493 36.3625 66.9588 36.6143 66.9588 36.9427V38.7225C66.9588 38.8013 66.9763 38.8582 67.0113 38.8932C67.0464 38.9283 67.088 38.9458 67.1361 38.9458C67.1843 38.9458 67.2346 38.937 67.2872 38.9195C67.3441 38.902 67.3945 38.8801 67.4382 38.8538V39.2742C67.3813 39.3179 67.3113 39.3508 67.2281 39.3727C67.1449 39.3989 67.0464 39.4121 66.9325 39.4121C66.7924 39.4121 66.6786 39.3858 66.591 39.3333C66.5078 39.2763 66.4465 39.2019 66.4071 39.11C66.3677 39.018 66.3436 38.9151 66.3349 38.8013C66.2079 38.9983 66.0415 39.1494 65.8357 39.2545C65.6343 39.3595 65.3979 39.4121 65.1264 39.4121ZM65.3891 38.9458C65.5424 38.9458 65.6891 38.9129 65.8292 38.8473C65.9693 38.7772 66.0831 38.6721 66.1707 38.532C66.2626 38.3919 66.3086 38.2168 66.3086 38.0066V37.757C65.9802 37.757 65.6978 37.7746 65.4614 37.8096C65.2249 37.8402 65.0432 37.9015 64.9163 37.9935C64.7937 38.0854 64.7324 38.2277 64.7324 38.4204C64.7324 38.6043 64.7871 38.7378 64.8966 38.821C65.006 38.9042 65.1702 38.9458 65.3891 38.9458ZM69.3537 39.4121C69.1217 39.4121 68.9203 39.3836 68.7495 39.3267C68.5787 39.2698 68.4365 39.1953 68.3226 39.1034C68.2088 39.0071 68.1234 38.902 68.0665 38.7882C68.0096 38.6699 67.9811 38.5539 67.9811 38.4401C67.9811 38.4138 67.9811 38.3919 67.9811 38.3744C67.9811 38.3525 67.9833 38.3262 67.9877 38.2956H68.5656C68.5612 38.3087 68.559 38.3219 68.559 38.335C68.559 38.3437 68.559 38.3547 68.559 38.3678C68.559 38.4948 68.5985 38.6021 68.6773 38.6896C68.7605 38.7728 68.8699 38.8363 69.0056 38.8801C69.1458 38.9239 69.3034 38.9458 69.4785 38.9458C69.6274 38.9458 69.7631 38.9261 69.8857 38.8867C70.0127 38.8473 70.1112 38.7903 70.1813 38.7159C70.2557 38.6371 70.2929 38.5452 70.2929 38.4401C70.2929 38.3175 70.2535 38.2233 70.1747 38.1577C70.0959 38.0876 69.9908 38.0351 69.8594 38C69.7281 37.9606 69.5836 37.9278 69.426 37.9015C69.2727 37.8709 69.1151 37.838 68.9531 37.803C68.7955 37.7636 68.651 37.7111 68.5196 37.6454C68.3883 37.5797 68.2832 37.49 68.2044 37.3761C68.1256 37.2579 68.0862 37.1025 68.0862 36.9098C68.0862 36.7609 68.119 36.6252 68.1847 36.5026C68.2504 36.38 68.3445 36.2771 68.4671 36.1939C68.5897 36.1064 68.7342 36.0407 68.9006 35.9969C69.0713 35.9487 69.2574 35.9247 69.4588 35.9247H69.5442C69.7368 35.9247 69.912 35.9509 70.0696 36.0035C70.2272 36.0516 70.363 36.1195 70.4768 36.2071C70.5906 36.2903 70.676 36.3866 70.7329 36.4961C70.7942 36.6011 70.8249 36.7128 70.8249 36.831C70.8249 36.8529 70.8227 36.877 70.8183 36.9032C70.8183 36.9251 70.8183 36.9405 70.8183 36.9492H70.2404V36.877C70.2404 36.8332 70.2294 36.785 70.2075 36.7325C70.19 36.6756 70.1506 36.623 70.0893 36.5749C70.0324 36.5223 69.9514 36.4785 69.8463 36.4435C69.7456 36.4085 69.6142 36.391 69.4522 36.391C69.299 36.391 69.172 36.4063 69.0713 36.4369C68.9706 36.4676 68.8918 36.507 68.8349 36.5552C68.7823 36.6033 68.7451 36.6537 68.7232 36.7062C68.7013 36.7588 68.6904 36.8069 68.6904 36.8507C68.6904 36.9558 68.7298 37.0412 68.8086 37.1068C68.8874 37.1681 68.9925 37.2163 69.1239 37.2513C69.2552 37.2864 69.3997 37.317 69.5573 37.3433C69.7193 37.3695 69.8791 37.4024 70.0368 37.4418C70.1944 37.4768 70.3389 37.5294 70.4702 37.5994C70.6016 37.6651 70.7067 37.757 70.7855 37.8753C70.8643 37.9935 70.9037 38.1467 70.9037 38.335C70.9037 38.532 70.8665 38.7006 70.792 38.8407C70.7176 38.9764 70.6147 39.0859 70.4834 39.1691C70.352 39.2523 70.201 39.3136 70.0302 39.353C69.8594 39.3924 69.6777 39.4121 69.4851 39.4121H69.3537ZM72.0661 40.568C71.9698 40.568 71.8822 40.5592 71.8034 40.5417C71.7246 40.5286 71.648 40.5067 71.5735 40.476V39.9638C71.6217 39.9813 71.683 39.9988 71.7574 40.0163C71.8319 40.0338 71.9041 40.0426 71.9742 40.0426C72.088 40.0426 72.1821 40.0185 72.2566 39.9703C72.331 39.9265 72.3989 39.8499 72.4602 39.7405C72.5258 39.631 72.5915 39.4821 72.6572 39.2939L71.3437 35.9903H72.0464L72.979 38.4729H73.0118L73.9248 35.9903H74.5749L73.314 39.2085C73.2176 39.4581 73.1147 39.6857 73.0053 39.8915C72.9002 40.0973 72.7732 40.2615 72.6244 40.3841C72.4755 40.5067 72.2894 40.568 72.0661 40.568ZM76.8666 39.3464V36.5026H76.4857V35.9903H76.8666V35.3796C76.8666 35.095 76.9454 34.8892 77.103 34.7622C77.265 34.6308 77.4686 34.5652 77.7138 34.5652C77.7751 34.5652 77.8408 34.5717 77.9108 34.5849C77.9853 34.5936 78.0575 34.6068 78.1276 34.6243C78.1976 34.6418 78.2567 34.6615 78.3049 34.6834V35.1234C78.2524 35.1015 78.1823 35.0818 78.0947 35.0643C78.0115 35.0424 77.9459 35.0315 77.8977 35.0315C77.8408 35.0315 77.7817 35.0424 77.7204 35.0643C77.6635 35.0818 77.6153 35.119 77.5759 35.176C77.5409 35.2329 77.5234 35.3248 77.5234 35.4518V35.9903H78.3049V36.5026H77.5234V39.3464H76.8666ZM80.4415 39.4121C80.1526 39.4121 79.8921 39.3442 79.66 39.2085C79.4324 39.0728 79.2528 38.8779 79.1214 38.624C78.9901 38.37 78.9244 38.0701 78.9244 37.7242V37.6125C78.9244 37.2579 78.9901 36.9558 79.1214 36.7062C79.2528 36.4523 79.4324 36.2596 79.66 36.1283C79.8921 35.9925 80.1526 35.9247 80.4415 35.9247H80.5269C80.8204 35.9247 81.0808 35.9925 81.3085 36.1283C81.5361 36.264 81.7157 36.4588 81.847 36.7128C81.9784 36.9624 82.044 37.2623 82.044 37.6125V37.7242C82.044 38.0701 81.9784 38.37 81.847 38.624C81.7157 38.8779 81.534 39.0728 81.3019 39.2085C81.0742 39.3442 80.8159 39.4121 80.5269 39.4121H80.4415ZM80.4809 38.9458C80.6473 38.9458 80.7962 38.9064 80.9275 38.8276C81.0589 38.7487 81.164 38.6305 81.2428 38.4729C81.3216 38.3153 81.361 38.1204 81.361 37.8884V37.4484C81.361 37.2119 81.3216 37.0171 81.2428 36.8638C81.164 36.7062 81.0589 36.588 80.9275 36.5092C80.7962 36.4304 80.6473 36.391 80.4809 36.391C80.3189 36.391 80.1723 36.4304 80.0409 36.5092C79.9096 36.588 79.8045 36.7062 79.7257 36.8638C79.6469 37.0171 79.6074 37.2119 79.6074 37.4484V37.8884C79.6074 38.1204 79.6469 38.3153 79.7257 38.4729C79.8045 38.6305 79.9096 38.7487 80.0409 38.8276C80.1723 38.9064 80.3189 38.9458 80.4809 38.9458ZM82.9364 39.3464V35.9903H83.4224L83.5143 36.4829C83.5187 36.4742 83.5384 36.4413 83.5734 36.3844C83.6084 36.3275 83.661 36.264 83.731 36.1939C83.8055 36.1195 83.8996 36.056 84.0135 36.0035C84.1317 35.9509 84.2762 35.9247 84.4469 35.9247C84.679 35.9247 84.8694 35.9728 85.0183 36.0692C85.1715 36.1611 85.2832 36.2881 85.3532 36.4501C85.4277 36.6121 85.4649 36.796 85.4649 37.0018C85.4649 37.0455 85.4627 37.0915 85.4583 37.1397C85.454 37.1835 85.4518 37.2185 85.4518 37.2448H84.8869V37.12C84.8869 37.0237 84.8672 36.9229 84.8278 36.8179C84.7928 36.7084 84.7293 36.6186 84.6374 36.5486C84.5454 36.4742 84.4163 36.4369 84.2499 36.4369C84.1273 36.4369 84.0222 36.4632 83.9346 36.5158C83.8515 36.5683 83.7836 36.634 83.731 36.7128C83.6829 36.7916 83.6479 36.8748 83.626 36.9624C83.6041 37.0499 83.5931 37.1309 83.5931 37.2054V39.3464H82.9364ZM89.91 39.4274C89.3111 39.4274 88.8515 39.1898 88.5329 38.7146L88.0955 39.3464H87.6338V33.5143H88.9055V35.6771C89.03 35.5151 89.186 35.3828 89.375 35.2802C89.564 35.1776 89.797 35.1263 90.072 35.1263C90.364 35.1263 90.631 35.1965 90.874 35.3369C91.122 35.4719 91.319 35.6879 91.465 35.9849C91.611 36.2765 91.684 36.6545 91.684 37.1189V37.2971C91.684 37.7777 91.6 38.1773 91.433 38.4959C91.271 38.8091 91.055 39.044 90.785 39.2006C90.5201 39.3518 90.229 39.4274 89.91 39.4274ZM89.626 38.6174C89.761 38.6174 89.8801 38.5823 89.983 38.5121C90.091 38.4419 90.175 38.3393 90.234 38.2043C90.299 38.0693 90.331 37.9019 90.331 37.7021V36.8273C90.331 36.6437 90.301 36.4871 90.242 36.3575C90.183 36.2279 90.102 36.1307 89.999 36.0659C89.896 35.9957 89.778 35.9606 89.643 35.9606C89.508 35.9606 89.383 35.9957 89.27 36.0659C89.162 36.1307 89.073 36.2279 89.003 36.3575C88.9379 36.4871 88.9055 36.6464 88.9055 36.8354V37.7102C88.9055 37.91 88.9379 38.0774 89.003 38.2124C89.068 38.3474 89.154 38.45 89.262 38.5202C89.375 38.585 89.497 38.6174 89.626 38.6174ZM93.819 39.4274C93.398 39.4274 93.066 39.3113 92.823 39.0791C92.585 38.8415 92.466 38.504 92.466 38.0666V35.2073H93.738V37.7993C93.738 38.0315 93.787 38.207 93.884 38.3258C93.986 38.4392 94.138 38.4959 94.337 38.4959C94.467 38.4959 94.583 38.4662 94.686 38.4068C94.794 38.342 94.877 38.2556 94.937 38.1476C95.002 38.0342 95.034 37.9127 95.034 37.7831V35.2073H96.306V38.3258C96.306 38.4284 96.33 38.504 96.379 38.5526C96.433 38.5958 96.489 38.6174 96.549 38.6174C96.603 38.6174 96.657 38.6093 96.711 38.5931C96.765 38.5715 96.816 38.5499 96.865 38.5283V39.2492C96.794 39.3032 96.7 39.3464 96.581 39.3788C96.462 39.4112 96.314 39.4274 96.136 39.4274C95.925 39.4274 95.752 39.4004 95.617 39.3464C95.482 39.287 95.377 39.206 95.301 39.1034C95.226 39.0008 95.169 38.8847 95.131 38.7551C94.996 38.9657 94.813 39.1304 94.58 39.2492C94.348 39.368 94.094 39.4274 93.819 39.4274ZM99.076 39.4274C98.827 39.4274 98.598 39.3977 98.387 39.3383C98.177 39.2789 97.9901 39.1952 97.828 39.0872C97.6721 38.9738 97.548 38.8415 97.456 38.6903C97.369 38.5337 97.326 38.3609 97.326 38.1719C97.326 38.1449 97.326 38.1206 97.326 38.099C97.326 38.0774 97.329 38.0504 97.334 38.018H98.395C98.39 38.0288 98.387 38.0396 98.387 38.0504C98.387 38.0612 98.387 38.072 98.387 38.0828C98.387 38.2124 98.431 38.3177 98.517 38.3987C98.603 38.4743 98.714 38.531 98.849 38.5688C98.984 38.6012 99.124 38.6174 99.27 38.6174C99.378 38.6174 99.494 38.6039 99.619 38.5769C99.748 38.5499 99.859 38.5067 99.951 38.4473C100.042 38.3879 100.088 38.3069 100.088 38.2043C100.088 38.0909 100.04 38.0045 99.943 37.9451C99.851 37.8857 99.727 37.8398 99.57 37.8074C99.413 37.775 99.2411 37.7453 99.052 37.7183C98.868 37.6859 98.682 37.6481 98.493 37.6049C98.304 37.5563 98.131 37.4888 97.974 37.4024C97.818 37.3106 97.691 37.1891 97.594 37.0379C97.502 36.8867 97.456 36.6896 97.456 36.4466C97.456 36.2252 97.504 36.0308 97.602 35.8634C97.704 35.696 97.842 35.5583 98.015 35.4503C98.193 35.3423 98.39 35.2613 98.606 35.2073C98.8221 35.1533 99.043 35.1263 99.27 35.1263H99.457C99.662 35.1263 99.864 35.1533 100.064 35.2073C100.264 35.2559 100.445 35.3288 100.607 35.426C100.769 35.5232 100.898 35.642 100.996 35.7824C101.093 35.9174 101.141 36.0686 101.141 36.236C101.141 36.2684 101.139 36.3035 101.133 36.3413C101.133 36.3737 101.133 36.4007 101.133 36.4223H100.056V36.3575C100.056 36.3035 100.04 36.2495 100.007 36.1955C99.9751 36.1415 99.926 36.0956 99.862 36.0578C99.797 36.0146 99.718 35.9822 99.627 35.9606C99.54 35.9336 99.438 35.9201 99.319 35.9201C99.222 35.9201 99.1271 35.9309 99.035 35.9525C98.944 35.9687 98.863 35.993 98.792 36.0254C98.728 36.0578 98.676 36.0983 98.638 36.1469C98.601 36.1901 98.582 36.2387 98.582 36.2927C98.582 36.4007 98.628 36.4817 98.719 36.5357C98.817 36.5897 98.944 36.6329 99.1 36.6653C99.262 36.6923 99.438 36.7193 99.627 36.7463C99.816 36.7679 100.005 36.803 100.194 36.8516C100.383 36.8948 100.555 36.9623 100.712 37.0541C100.869 37.1405 100.996 37.262 101.093 37.4186C101.19 37.5698 101.239 37.7696 101.239 38.018C101.239 38.2826 101.187 38.5067 101.085 38.6903C100.982 38.8685 100.842 39.0116 100.663 39.1196C100.491 39.2276 100.294 39.3059 100.072 39.3545C99.851 39.4031 99.621 39.4274 99.384 39.4274H99.076ZM102.063 39.3464V35.2073H103.335V39.3464H102.063ZM102.047 34.4702V33.5143H103.343V34.4702H102.047ZM104.364 39.3464V35.2073H105.312L105.457 35.8067C105.625 35.5745 105.819 35.4044 106.041 35.2964C106.262 35.183 106.521 35.1263 106.818 35.1263C107.099 35.1263 107.342 35.1803 107.547 35.2883C107.758 35.3909 107.92 35.5394 108.033 35.7338C108.147 35.9282 108.203 36.1604 108.203 36.4304V39.3464H106.932V36.722C106.932 36.5006 106.875 36.3332 106.762 36.2198C106.648 36.1064 106.5 36.0497 106.316 36.0497C106.192 36.0497 106.078 36.0821 105.976 36.1469C105.873 36.2117 105.79 36.2981 105.725 36.4061C105.665 36.5087 105.636 36.6275 105.636 36.7625V39.3464H104.364ZM111.084 39.4274C110.679 39.4274 110.32 39.3491 110.007 39.1925C109.699 39.0305 109.456 38.7983 109.278 38.4959C109.105 38.1881 109.019 37.8182 109.019 37.3862V37.1675C109.019 36.7301 109.108 36.3602 109.286 36.0578C109.47 35.75 109.718 35.5178 110.031 35.3612C110.344 35.2046 110.704 35.1263 111.109 35.1263H111.262C111.651 35.1263 111.986 35.2019 112.267 35.3531C112.548 35.5043 112.764 35.7176 112.915 35.993C113.066 36.263 113.142 36.5762 113.142 36.9326V37.4429H110.371C110.371 37.6697 110.396 37.8722 110.444 38.0504C110.498 38.2286 110.582 38.369 110.695 38.4716C110.814 38.5688 110.968 38.6174 111.157 38.6174C111.325 38.6174 111.465 38.585 111.578 38.5202C111.697 38.4554 111.789 38.3636 111.854 38.2448C111.919 38.1206 111.951 37.9721 111.951 37.7993H113.134C113.134 38.1125 113.05 38.3933 112.882 38.6417C112.72 38.8847 112.494 39.0764 112.202 39.2168C111.91 39.3572 111.57 39.4274 111.181 39.4274H111.084ZM110.371 36.8273H111.886C111.886 36.5195 111.819 36.2954 111.684 36.155C111.549 36.0092 111.37 35.9363 111.149 35.9363C110.928 35.9363 110.744 36.0119 110.598 36.1631C110.458 36.3143 110.382 36.5357 110.371 36.8273ZM115.49 39.4274C115.241 39.4274 115.012 39.3977 114.801 39.3383C114.59 39.2789 114.404 39.1952 114.242 39.0872C114.086 38.9738 113.961 38.8415 113.87 38.6903C113.783 38.5337 113.74 38.3609 113.74 38.1719C113.74 38.1449 113.74 38.1206 113.74 38.099C113.74 38.0774 113.743 38.0504 113.748 38.018H114.809C114.804 38.0288 114.801 38.0396 114.801 38.0504C114.801 38.0612 114.801 38.072 114.801 38.0828C114.801 38.2124 114.844 38.3177 114.931 38.3987C115.017 38.4743 115.128 38.531 115.263 38.5688C115.398 38.6012 115.538 38.6174 115.684 38.6174C115.792 38.6174 115.908 38.6039 116.032 38.5769C116.162 38.5499 116.273 38.5067 116.364 38.4473C116.456 38.3879 116.502 38.3069 116.502 38.2043C116.502 38.0909 116.453 38.0045 116.356 37.9451C116.264 37.8857 116.14 37.8398 115.984 37.8074C115.827 37.775 115.654 37.7453 115.465 37.7183C115.282 37.6859 115.095 37.6481 114.906 37.6049C114.717 37.5563 114.545 37.4888 114.388 37.4024C114.231 37.3106 114.104 37.1891 114.007 37.0379C113.915 36.8867 113.87 36.6896 113.87 36.4466C113.87 36.2252 113.918 36.0308 114.015 35.8634C114.118 35.696 114.256 35.5583 114.428 35.4503C114.607 35.3423 114.804 35.2613 115.02 35.2073C115.236 35.1533 115.457 35.1263 115.684 35.1263H115.87C116.075 35.1263 116.278 35.1533 116.478 35.2073C116.678 35.2559 116.858 35.3288 117.02 35.426C117.182 35.5232 117.312 35.642 117.409 35.7824C117.507 35.9174 117.555 36.0686 117.555 36.236C117.555 36.2684 117.552 36.3035 117.547 36.3413C117.547 36.3737 117.547 36.4007 117.547 36.4223H116.47V36.3575C116.47 36.3035 116.453 36.2495 116.421 36.1955C116.389 36.1415 116.34 36.0956 116.275 36.0578C116.21 36.0146 116.132 35.9822 116.04 35.9606C115.954 35.9336 115.851 35.9201 115.733 35.9201C115.635 35.9201 115.541 35.9309 115.449 35.9525C115.357 35.9687 115.276 35.993 115.206 36.0254C115.141 36.0578 115.09 36.0983 115.052 36.1469C115.014 36.1901 114.995 36.2387 114.995 36.2927C114.995 36.4007 115.041 36.4817 115.133 36.5357C115.23 36.5897 115.357 36.6329 115.514 36.6653C115.676 36.6923 115.851 36.7193 116.04 36.7463C116.229 36.7679 116.418 36.803 116.607 36.8516C116.796 36.8948 116.969 36.9623 117.126 37.0541C117.282 37.1405 117.409 37.262 117.507 37.4186C117.604 37.5698 117.652 37.7696 117.652 38.018C117.652 38.2826 117.601 38.5067 117.498 38.6903C117.396 38.8685 117.255 39.0116 117.077 39.1196C116.904 39.2276 116.707 39.3059 116.486 39.3545C116.264 39.4031 116.035 39.4274 115.797 39.4274H115.49ZM119.959 39.4274C119.71 39.4274 119.481 39.3977 119.27 39.3383C119.06 39.2789 118.873 39.1952 118.711 39.0872C118.555 38.9738 118.431 38.8415 118.339 38.6903C118.252 38.5337 118.209 38.3609 118.209 38.1719C118.209 38.1449 118.209 38.1206 118.209 38.099C118.209 38.0774 118.212 38.0504 118.217 38.018H119.278C119.273 38.0288 119.27 38.0396 119.27 38.0504C119.27 38.0612 119.27 38.072 119.27 38.0828C119.27 38.2124 119.314 38.3177 119.4 38.3987C119.486 38.4743 119.597 38.531 119.732 38.5688C119.867 38.6012 120.007 38.6174 120.153 38.6174C120.261 38.6174 120.377 38.6039 120.502 38.5769C120.631 38.5499 120.742 38.5067 120.834 38.4473C120.925 38.3879 120.971 38.3069 120.971 38.2043C120.971 38.0909 120.923 38.0045 120.826 37.9451C120.734 37.8857 120.61 37.8398 120.453 37.8074C120.296 37.775 120.124 37.7453 119.935 37.7183C119.751 37.6859 119.565 37.6481 119.376 37.6049C119.187 37.5563 119.014 37.4888 118.857 37.4024C118.701 37.3106 118.574 37.1891 118.477 37.0379C118.385 36.8867 118.339 36.6896 118.339 36.4466C118.339 36.2252 118.387 36.0308 118.485 35.8634C118.587 35.696 118.725 35.5583 118.898 35.4503C119.076 35.3423 119.273 35.2613 119.489 35.2073C119.705 35.1533 119.926 35.1263 120.153 35.1263H120.34C120.545 35.1263 120.747 35.1533 120.947 35.2073C121.147 35.2559 121.328 35.3288 121.49 35.426C121.652 35.5232 121.781 35.642 121.879 35.7824C121.976 35.9174 122.024 36.0686 122.024 36.236C122.024 36.2684 122.022 36.3035 122.016 36.3413C122.016 36.3737 122.016 36.4007 122.016 36.4223H120.939V36.3575C120.939 36.3035 120.923 36.2495 120.89 36.1955C120.858 36.1415 120.809 36.0956 120.745 36.0578C120.68 36.0146 120.601 35.9822 120.51 35.9606C120.423 35.9336 120.321 35.9201 120.202 35.9201C120.105 35.9201 120.01 35.9309 119.918 35.9525C119.827 35.9687 119.746 35.993 119.675 36.0254C119.611 36.0578 119.559 36.0983 119.521 36.1469C119.484 36.1901 119.465 36.2387 119.465 36.2927C119.465 36.4007 119.511 36.4817 119.602 36.5357C119.7 36.5897 119.827 36.6329 119.983 36.6653C120.145 36.6923 120.321 36.7193 120.51 36.7463C120.699 36.7679 120.888 36.803 121.077 36.8516C121.266 36.8948 121.438 36.9623 121.595 37.0541C121.752 37.1405 121.879 37.262 121.976 37.4186C122.073 37.5698 122.122 37.7696 122.122 38.018C122.122 38.2826 122.07 38.5067 121.968 38.6903C121.865 38.8685 121.725 39.0116 121.546 39.1196C121.374 39.2276 121.177 39.3059 120.955 39.3545C120.734 39.4031 120.504 39.4274 120.267 39.4274H119.959Z" fill="#141F19"/>
</svg>
