<svg width="91" height="45" viewBox="0 0 91 45" fill="none" xmlns="http://www.w3.org/2000/svg">
<path d="M79.0081 19.1434C79.4501 16.5571 77.7121 14.1022 75.1261 13.6601C72.5399 13.2181 70.085 14.9562 69.6429 17.5425C69.2009 20.1287 70.939 22.5836 73.5253 23.0257C76.1111 23.4678 78.5661 21.7296 79.0081 19.1434Z" fill="#141F19"/>
<path d="M22.6563 17.6922H13.5469L11.8543 21.8776H5.6377L15.1472 0.335083H21.1483L30.6886 21.8776H24.3489L22.6563 17.6922ZM20.8713 13.1991L18.1016 6.30548L15.3318 13.1991H20.8713ZM41.8332 16.1535H38.5095V21.8776H32.416V0.335083H42.264C44.2131 0.335083 45.9058 0.663382 47.3419 1.31988C48.7781 1.95588 49.886 2.87918 50.6656 4.08968C51.4453 5.27958 51.8351 6.68498 51.8351 8.30578C51.8351 9.86508 51.4658 11.2295 50.7272 12.3989C50.0091 13.5478 48.973 14.4506 47.6189 15.1071L52.2659 21.8776H45.7416L41.8332 16.1535ZM45.6801 8.30578C45.6801 7.30048 45.3621 6.52088 44.726 5.96688C44.09 5.41298 43.1463 5.13598 41.8947 5.13598H38.5095V11.4449H41.8947C43.1463 11.4449 44.09 11.1782 44.726 10.6447C45.3621 10.0908 45.6801 9.31108 45.6801 8.30578ZM59.4817 5.16678H52.8651V0.335083H72.161V5.16678H65.5751V21.8776H59.4817V5.16678Z" fill="#141F19"/>
<path d="M5.53159 27.178C7.10019 27.178 8.30489 27.5544 9.14569 28.3074C9.98649 29.0478 10.4069 30.1709 10.4069 31.6768V37.4556H7.65869V36.1944C7.10649 37.1356 6.07749 37.6062 4.57159 37.6062C3.79359 37.6062 3.11589 37.4744 2.53869 37.2109C1.97399 36.9474 1.54099 36.5835 1.23979 36.1192C0.938686 35.6548 0.788086 35.1278 0.788086 34.538C0.788086 33.5968 1.13939 32.8564 1.84219 32.3168C2.55749 31.7772 3.65549 31.5075 5.13629 31.5075H7.47039C7.47039 30.8675 7.27589 30.378 6.88689 30.0391C6.49789 29.6878 5.91439 29.5121 5.13629 29.5121C4.59669 29.5121 4.06339 29.5999 3.53629 29.7757C3.02179 29.9388 2.58259 30.1646 2.21869 30.4534L1.16449 28.4015C1.71669 28.0125 2.37549 27.7113 3.14099 27.498C3.91909 27.2846 4.71589 27.178 5.53159 27.178ZM5.30569 35.6297C5.80769 35.6297 6.25319 35.5168 6.64219 35.2909C7.03119 35.0525 7.30729 34.7074 7.47039 34.2556V33.2203H5.45629C4.25159 33.2203 3.64929 33.6157 3.64929 34.4062C3.64929 34.7828 3.79359 35.084 4.08219 35.3097C4.38339 35.5231 4.79119 35.6297 5.30569 35.6297ZM18.069 37.6062C16.9898 37.6062 16.0172 37.3866 15.1513 36.9474C14.298 36.4956 13.6266 35.8744 13.1372 35.084C12.6603 34.2934 12.4219 33.396 12.4219 32.3921C12.4219 31.3882 12.6603 30.4909 13.1372 29.7003C13.6266 28.9097 14.298 28.2948 15.1513 27.8556C16.0172 27.4039 16.9898 27.178 18.069 27.178C19.1356 27.178 20.0643 27.4039 20.8549 27.8556C21.658 28.2948 22.2415 28.9286 22.6054 29.7568L20.3278 30.9803C19.8007 30.0517 19.0415 29.5874 18.0501 29.5874C17.2847 29.5874 16.6509 29.8384 16.149 30.3403C15.647 30.8423 15.396 31.5262 15.396 32.3921C15.396 33.258 15.647 33.9419 16.149 34.4439C16.6509 34.9458 17.2847 35.1968 18.0501 35.1968C19.0541 35.1968 19.8133 34.7325 20.3278 33.8039L22.6054 35.0462C22.2415 35.8493 21.658 36.4768 20.8549 36.9286C20.0643 37.3804 19.1356 37.6062 18.069 37.6062ZM28.3809 27.178C29.9495 27.178 31.1542 27.5544 31.995 28.3074C32.8358 29.0478 33.2562 30.1709 33.2562 31.6768V37.4556H30.5079V36.1944C29.9558 37.1356 28.9268 37.6062 27.4209 37.6062C26.6428 37.6062 25.9652 37.4744 25.3879 37.2109C24.8232 36.9474 24.3903 36.5835 24.0891 36.1192C23.7879 35.6548 23.6374 35.1278 23.6374 34.538C23.6374 33.5968 23.9887 32.8564 24.6915 32.3168C25.4068 31.7772 26.5048 31.5075 27.9856 31.5075H30.3197C30.3197 30.8675 30.1252 30.378 29.7362 30.0391C29.3472 29.6878 28.7636 29.5121 27.9856 29.5121C27.446 29.5121 26.9127 29.5999 26.3856 29.7757C25.8711 29.9388 25.4319 30.1646 25.0679 30.4534L24.0138 28.4015C24.566 28.0125 25.2248 27.7113 25.9903 27.498C26.7683 27.2846 27.5652 27.178 28.3809 27.178ZM28.155 35.6297C28.657 35.6297 29.1025 35.5168 29.4915 35.2909C29.8805 35.0525 30.1566 34.7074 30.3197 34.2556V33.2203H28.3056C27.1009 33.2203 26.4985 33.6157 26.4985 34.4062C26.4985 34.7828 26.6428 35.084 26.9315 35.3097C27.2327 35.5231 27.6405 35.6297 28.155 35.6297ZM46.3394 23.4886V37.4556H43.5347V36.2886C42.8069 37.167 41.7528 37.6062 40.3724 37.6062C39.4186 37.6062 38.5528 37.3929 37.7747 36.9662C37.0092 36.5395 36.4069 35.9309 35.9677 35.1403C35.5284 34.3497 35.3088 33.4337 35.3088 32.3921C35.3088 31.3505 35.5284 30.4344 35.9677 29.6439C36.4069 28.8533 37.0092 28.2446 37.7747 27.818C38.5528 27.3913 39.4186 27.178 40.3724 27.178C41.6649 27.178 42.6751 27.5858 43.403 28.4015V23.4886H46.3394ZM40.8806 35.1968C41.621 35.1968 42.2359 34.9458 42.7253 34.4439C43.2147 33.9293 43.4594 33.2454 43.4594 32.3921C43.4594 31.5388 43.2147 30.8611 42.7253 30.3592C42.2359 29.8446 41.621 29.5874 40.8806 29.5874C40.1277 29.5874 39.5065 29.8446 39.0171 30.3592C38.5277 30.8611 38.283 31.5388 38.283 32.3921C38.283 33.2454 38.5277 33.9293 39.0171 34.4439C39.5065 34.9458 40.1277 35.1968 40.8806 35.1968ZM58.9772 32.4297C58.9772 32.4674 58.9584 32.7309 58.9208 33.2203H51.2596C51.3976 33.8478 51.7239 34.3435 52.2384 34.7074C52.7529 35.0713 53.3929 35.2533 54.1584 35.2533C54.6855 35.2533 55.1498 35.178 55.5513 35.0274C55.9655 34.8643 56.3482 34.6133 56.6996 34.2744L58.2619 35.9686C57.3082 37.0603 55.9153 37.6062 54.0831 37.6062C52.9411 37.6062 51.9309 37.3866 51.0525 36.9474C50.1741 36.4956 49.4964 35.8744 49.0196 35.084C48.5427 34.2934 48.3043 33.396 48.3043 32.3921C48.3043 31.4007 48.5364 30.5097 49.0008 29.7191C49.4776 28.916 50.1239 28.2948 50.9396 27.8556C51.7678 27.4039 52.6902 27.178 53.7066 27.178C54.698 27.178 55.5953 27.3913 56.3984 27.818C57.2015 28.2446 57.829 28.8595 58.2808 29.6627C58.7451 30.4533 58.9772 31.3756 58.9772 32.4297ZM53.7255 29.3991C53.0604 29.3991 52.5019 29.5874 52.0502 29.9639C51.5984 30.3403 51.3223 30.8549 51.2219 31.5075H56.2102C56.1098 30.8675 55.8337 30.3593 55.3819 29.9827C54.9302 29.5938 54.378 29.3991 53.7255 29.3991ZM73.9016 27.178C75.1692 27.178 76.1732 27.5544 76.9132 28.3074C77.6662 29.0478 78.0432 30.1646 78.0432 31.658V37.4556H75.1062V32.1097C75.1062 31.3066 74.9369 30.7105 74.5981 30.3215C74.2718 29.9199 73.8013 29.7191 73.1864 29.7191C72.4962 29.7191 71.9503 29.945 71.5487 30.3968C71.1471 30.836 70.9463 31.4948 70.9463 32.3733V37.4556H68.0099V32.1097C68.0099 30.516 67.3699 29.7191 66.0899 29.7191C65.4122 29.7191 64.8726 29.945 64.4711 30.3968C64.0695 30.836 63.8687 31.4948 63.8687 32.3733V37.4556H60.9322V27.3286H63.7369V28.4956C64.1134 28.069 64.5714 27.7427 65.1111 27.5168C65.6632 27.2909 66.2656 27.178 66.9181 27.178C67.6334 27.178 68.2797 27.3223 68.8569 27.6109C69.4342 27.887 69.8985 28.2948 70.2499 28.8344C70.664 28.3074 71.1848 27.8995 71.8122 27.6109C72.4522 27.3223 73.1487 27.178 73.9016 27.178ZM90.5432 27.3286L85.9692 38.0768C85.5042 39.2439 84.9272 40.0658 84.2372 40.5427C83.5592 41.0195 82.7372 41.258 81.7712 41.258C81.2442 41.258 80.7232 41.1764 80.2092 41.0133C79.6942 40.8501 79.2742 40.6243 78.9472 40.3356L80.0202 38.2462C80.2462 38.447 80.5032 38.6039 80.7922 38.7168C81.0932 38.8297 81.3882 38.8862 81.6772 38.8862C82.0782 38.8862 82.4052 38.7858 82.6562 38.585C82.9072 38.3968 83.1322 38.0768 83.3332 37.625L83.3712 37.5309L78.9852 27.3286H82.0162L84.8582 34.1992L87.7192 27.3286H90.5432Z" fill="#141F19"/>
<path d="M7.67836 41.3089V43.9693H7.34846V43.6681C7.27196 43.7733 7.17516 43.8534 7.05806 43.9083C6.94096 43.9633 6.81186 43.9908 6.67086 43.9908C6.48676 43.9908 6.32186 43.9502 6.17606 43.8689C6.03026 43.7876 5.91546 43.6741 5.83186 43.5283C5.75056 43.3801 5.70996 43.2104 5.70996 43.0192C5.70996 42.8279 5.75056 42.6594 5.83186 42.5136C5.91546 42.3678 6.03026 42.2543 6.17606 42.173C6.32186 42.0917 6.48676 42.0511 6.67086 42.0511C6.80706 42.0511 6.93256 42.0774 7.04726 42.13C7.16206 42.1802 7.25766 42.2555 7.33416 42.3559V41.3089H7.67836ZM6.69946 43.6896C6.81906 43.6896 6.92776 43.6621 7.02576 43.6072C7.12376 43.5498 7.20026 43.4709 7.25526 43.3705C7.31026 43.2677 7.33776 43.1506 7.33776 43.0192C7.33776 42.8877 7.31026 42.7718 7.25526 42.6714C7.20026 42.5686 7.12376 42.4897 7.02576 42.4347C6.92776 42.3798 6.81906 42.3523 6.69946 42.3523C6.57756 42.3523 6.46766 42.3798 6.36966 42.4347C6.27406 42.4897 6.19756 42.5686 6.14016 42.6714C6.08516 42.7718 6.05776 42.8877 6.05776 43.0192C6.05776 43.1506 6.08516 43.2677 6.14016 43.3705C6.19756 43.4709 6.27406 43.5498 6.36966 43.6072C6.46766 43.6621 6.57756 43.6896 6.69946 43.6896ZM8.65946 42.3881C8.71926 42.2782 8.80766 42.1945 8.92476 42.1371C9.04186 42.0798 9.18416 42.0511 9.35146 42.0511V42.3845C9.33236 42.3821 9.30606 42.3809 9.27256 42.3809C9.08616 42.3809 8.93916 42.4371 8.83156 42.5495C8.72636 42.6594 8.67376 42.8172 8.67376 43.0227V43.9693H8.32956V42.069H8.65946V42.3881ZM10.4642 42.0511C10.7271 42.0511 10.9279 42.1156 11.0666 42.2447C11.2076 42.3738 11.2781 42.5662 11.2781 42.822V43.9693H10.9518V43.7183C10.8945 43.8068 10.812 43.8749 10.7044 43.9227C10.5993 43.9681 10.4738 43.9908 10.328 43.9908C10.1152 43.9908 9.94426 43.9394 9.81516 43.8366C9.68856 43.7339 9.62516 43.5988 9.62516 43.4315C9.62516 43.2642 9.68616 43.1303 9.80806 43.0299C9.92996 42.9271 10.1236 42.8757 10.3889 42.8757H10.9339V42.8076C10.9339 42.6594 10.8909 42.5459 10.8048 42.467C10.7188 42.3881 10.5921 42.3487 10.4248 42.3487C10.3124 42.3487 10.2025 42.3678 10.0949 42.406C9.98726 42.4419 9.89646 42.4909 9.82236 42.553L9.67896 42.2949C9.77696 42.216 9.89406 42.1563 10.0304 42.1156C10.1666 42.0726 10.3112 42.0511 10.4642 42.0511ZM10.3853 43.7255C10.5168 43.7255 10.6303 43.6968 10.7259 43.6394C10.8215 43.5797 10.8909 43.496 10.9339 43.3885V43.1231H10.4032C10.1116 43.1231 9.96576 43.2211 9.96576 43.4171C9.96576 43.5128 10.0029 43.588 10.077 43.643C10.1511 43.698 10.2539 43.7255 10.3853 43.7255ZM14.7556 42.069L14.0457 43.9693H13.7158L13.1672 42.528L12.6115 43.9693H12.2816L11.5753 42.069H11.9016L12.4537 43.5821L13.0274 42.069H13.3178L13.8807 43.5892L14.4472 42.069H14.7556ZM16.7597 42.0511C17.0227 42.0511 17.2234 42.1156 17.3621 42.2447C17.5031 42.3738 17.5736 42.5662 17.5736 42.822V43.9693H17.2473V43.7183C17.19 43.8068 17.1075 43.8749 16.9999 43.9227C16.8948 43.9681 16.7693 43.9908 16.6235 43.9908C16.4107 43.9908 16.2398 43.9394 16.1108 43.8366C15.9841 43.7339 15.9207 43.5988 15.9207 43.4315C15.9207 43.2642 15.9817 43.1303 16.1036 43.0299C16.2255 42.9271 16.4191 42.8757 16.6844 42.8757H17.2294V42.8076C17.2294 42.6594 17.1864 42.5459 17.1003 42.467C17.0143 42.3881 16.8876 42.3487 16.7203 42.3487C16.6079 42.3487 16.498 42.3678 16.3904 42.406C16.2829 42.4419 16.192 42.4909 16.1179 42.553L15.9745 42.2949C16.0725 42.216 16.1896 42.1563 16.3259 42.1156C16.4621 42.0726 16.6067 42.0511 16.7597 42.0511ZM16.6808 43.7255C16.8123 43.7255 16.9258 43.6968 17.0215 43.6394C17.1171 43.5797 17.1864 43.496 17.2294 43.3885V43.1231H16.6988C16.4072 43.1231 16.2613 43.2211 16.2613 43.4171C16.2613 43.5128 16.2984 43.588 16.3725 43.643C16.4466 43.698 16.5494 43.7255 16.6808 43.7255ZM19.2253 42.0511C19.4667 42.0511 19.6579 42.1216 19.7989 42.2626C19.9424 42.4013 20.0141 42.6056 20.0141 42.8757V43.9693H19.6699V42.9152C19.6699 42.7311 19.6256 42.5925 19.5372 42.4993C19.4488 42.406 19.3221 42.3594 19.1571 42.3594C18.9707 42.3594 18.8237 42.4144 18.7161 42.5244C18.6086 42.6319 18.5548 42.7873 18.5548 42.9905V43.9693H18.2106V42.069H18.5405V42.3559C18.6098 42.2578 18.703 42.1826 18.8201 42.13C18.9396 42.0774 19.0747 42.0511 19.2253 42.0511ZM22.4543 41.3089V43.9693H22.1244V43.6681C22.0479 43.7733 21.9511 43.8534 21.834 43.9083C21.7169 43.9633 21.5878 43.9908 21.4468 43.9908C21.2627 43.9908 21.0978 43.9502 20.952 43.8689C20.8062 43.7876 20.6915 43.6741 20.6078 43.5283C20.5265 43.3801 20.4859 43.2104 20.4859 43.0192C20.4859 42.8279 20.5265 42.6594 20.6078 42.5136C20.6915 42.3678 20.8062 42.2543 20.952 42.173C21.0978 42.0917 21.2627 42.0511 21.4468 42.0511C21.583 42.0511 21.7085 42.0774 21.8233 42.13C21.938 42.1802 22.0336 42.2555 22.1101 42.3559V41.3089H22.4543ZM21.4755 43.6896C21.595 43.6896 21.7037 43.6621 21.8017 43.6072C21.8997 43.5498 21.9762 43.4709 22.0312 43.3705C22.0862 43.2677 22.1137 43.1506 22.1137 43.0192C22.1137 42.8877 22.0862 42.7718 22.0312 42.6714C21.9762 42.5686 21.8997 42.4897 21.8017 42.4347C21.7037 42.3798 21.595 42.3523 21.4755 42.3523C21.3536 42.3523 21.2436 42.3798 21.1456 42.4347C21.05 42.4897 20.9735 42.5686 20.9161 42.6714C20.8612 42.7718 20.8337 42.8877 20.8337 43.0192C20.8337 43.1506 20.8612 43.2677 20.9161 43.3705C20.9735 43.4709 21.05 43.5498 21.1456 43.6072C21.2436 43.6621 21.3536 43.6896 21.4755 43.6896ZM25.0759 42.0511C25.26 42.0511 25.4249 42.0917 25.5707 42.173C25.7165 42.2543 25.8301 42.3678 25.9114 42.5136C25.995 42.6594 26.0368 42.8279 26.0368 43.0192C26.0368 43.2104 25.995 43.3801 25.9114 43.5283C25.8301 43.6741 25.7165 43.7876 25.5707 43.8689C25.4249 43.9502 25.26 43.9908 25.0759 43.9908C24.9397 43.9908 24.8142 43.9645 24.6995 43.9119C24.5871 43.8593 24.4915 43.7829 24.4126 43.6825V44.6649H24.0684V42.069H24.3983V42.3702C24.4748 42.265 24.5716 42.1861 24.6887 42.1336C24.8058 42.0786 24.9349 42.0511 25.0759 42.0511ZM25.0473 43.6896C25.1692 43.6896 25.2779 43.6621 25.3735 43.6072C25.4715 43.5498 25.548 43.4709 25.603 43.3705C25.6604 43.2677 25.6891 43.1506 25.6891 43.0192C25.6891 42.8877 25.6604 42.7718 25.603 42.6714C25.548 42.5686 25.4715 42.4897 25.3735 42.4347C25.2779 42.3798 25.1692 42.3523 25.0473 42.3523C24.9277 42.3523 24.819 42.3809 24.721 42.4383C24.6254 42.4933 24.5489 42.571 24.4915 42.6714C24.4365 42.7718 24.4091 42.8877 24.4091 43.0192C24.4091 43.1506 24.4365 43.2677 24.4915 43.3705C24.5465 43.4709 24.623 43.5498 24.721 43.6072C24.819 43.6621 24.9277 43.6896 25.0473 43.6896ZM27.1869 42.0511C27.4498 42.0511 27.6506 42.1156 27.7893 42.2447C27.9303 42.3738 28.0008 42.5662 28.0008 42.822V43.9693H27.6745V43.7183C27.6172 43.8068 27.5347 43.8749 27.4271 43.9227C27.3219 43.9681 27.1965 43.9908 27.0507 43.9908C26.8379 43.9908 26.667 43.9394 26.5379 43.8366C26.4112 43.7339 26.3479 43.5988 26.3479 43.4315C26.3479 43.2642 26.4089 43.1303 26.5308 43.0299C26.6527 42.9271 26.8463 42.8757 27.1116 42.8757H27.6566V42.8076C27.6566 42.6594 27.6136 42.5459 27.5275 42.467C27.4415 42.3881 27.3148 42.3487 27.1475 42.3487C27.0351 42.3487 26.9252 42.3678 26.8176 42.406C26.71 42.4419 26.6192 42.4909 26.5451 42.553L26.4017 42.2949C26.4997 42.216 26.6168 42.1563 26.7531 42.1156C26.8893 42.0726 27.0339 42.0511 27.1869 42.0511ZM27.108 43.7255C27.2395 43.7255 27.353 43.6968 27.4486 43.6394C27.5442 43.5797 27.6136 43.496 27.6566 43.3885V43.1231H27.1259C26.8343 43.1231 26.6885 43.2211 26.6885 43.4171C26.6885 43.5128 26.7256 43.588 26.7997 43.643C26.8738 43.698 26.9766 43.7255 27.108 43.7255ZM28.6378 42.069H28.982V43.9693H28.6378V42.069ZM28.8099 41.7033C28.7429 41.7033 28.6868 41.6818 28.6414 41.6388C28.5983 41.5957 28.5768 41.5432 28.5768 41.481C28.5768 41.4189 28.5983 41.3663 28.6414 41.3232C28.6868 41.2778 28.7429 41.2551 28.8099 41.2551C28.8768 41.2551 28.9318 41.2766 28.9748 41.3197C29.0202 41.3603 29.0429 41.4117 29.0429 41.4738C29.0429 41.5384 29.0202 41.5933 28.9748 41.6388C28.9318 41.6818 28.8768 41.7033 28.8099 41.7033ZM30.6538 42.0511C30.8953 42.0511 31.0865 42.1216 31.2275 42.2626C31.3709 42.4013 31.4426 42.6056 31.4426 42.8757V43.9693H31.0984V42.9152C31.0984 42.7311 31.0542 42.5925 30.9658 42.4993C30.8773 42.406 30.7507 42.3594 30.5857 42.3594C30.3993 42.3594 30.2523 42.4144 30.1447 42.5244C30.0372 42.6319 29.9834 42.7873 29.9834 42.9905V43.9693H29.6392V42.069H29.969V42.3559C30.0383 42.2578 30.1316 42.1826 30.2487 42.13C30.3682 42.0774 30.5033 42.0511 30.6538 42.0511ZM33.1481 43.8581C33.0979 43.9012 33.0358 43.9346 32.9617 43.9585C32.8876 43.9801 32.8111 43.9908 32.7322 43.9908C32.541 43.9908 32.3928 43.9394 32.2876 43.8366C32.1824 43.7339 32.1298 43.5869 32.1298 43.3956V42.3523H31.8072V42.069H32.1298V41.6531H32.474V42.069H33.019V42.3523H32.474V43.3813C32.474 43.4841 32.4991 43.5629 32.5493 43.6179C32.6019 43.6729 32.676 43.7004 32.7716 43.7004C32.8768 43.7004 32.9664 43.6705 33.0405 43.6108L33.1481 43.8581ZM35.5418 42.0511C35.7832 42.0511 35.9744 42.1216 36.1155 42.2626C36.2589 42.4013 36.3306 42.6056 36.3306 42.8757V43.9693H35.9864V42.9152C35.9864 42.7311 35.9422 42.5925 35.8537 42.4993C35.7653 42.406 35.6386 42.3594 35.4737 42.3594C35.2872 42.3594 35.1402 42.4144 35.0327 42.5244C34.9251 42.6319 34.8713 42.7873 34.8713 42.9905V43.9693H34.5271V42.069H34.857V42.3559C34.9263 42.2578 35.0195 42.1826 35.1367 42.13C35.2562 42.0774 35.3912 42.0511 35.5418 42.0511ZM37.6596 42.0511C37.9225 42.0511 38.1233 42.1156 38.2619 42.2447C38.403 42.3738 38.4735 42.5662 38.4735 42.822V43.9693H38.1472V43.7183C38.0898 43.8068 38.0074 43.8749 37.8998 43.9227C37.7946 43.9681 37.6692 43.9908 37.5233 43.9908C37.3106 43.9908 37.1397 43.9394 37.0106 43.8366C36.8839 43.7339 36.8206 43.5988 36.8206 43.4315C36.8206 43.2642 36.8816 43.1303 37.0035 43.0299C37.1254 42.9271 37.319 42.8757 37.5843 42.8757H38.1293V42.8076C38.1293 42.6594 38.0863 42.5459 38.0002 42.467C37.9142 42.3881 37.7875 42.3487 37.6202 42.3487C37.5078 42.3487 37.3979 42.3678 37.2903 42.406C37.1827 42.4419 37.0919 42.4909 37.0178 42.553L36.8744 42.2949C36.9724 42.216 37.0895 42.1563 37.2258 42.1156C37.362 42.0726 37.5066 42.0511 37.6596 42.0511ZM37.5807 43.7255C37.7122 43.7255 37.8257 43.6968 37.9213 43.6394C38.0169 43.5797 38.0863 43.496 38.1293 43.3885V43.1231H37.5986C37.307 43.1231 37.1612 43.2211 37.1612 43.4171C37.1612 43.5128 37.1983 43.588 37.2724 43.643C37.3465 43.698 37.4492 43.7255 37.5807 43.7255ZM39.4403 42.3881C39.5001 42.2782 39.5885 42.1945 39.7056 42.1371C39.8228 42.0798 39.965 42.0511 40.1323 42.0511V42.3845C40.1132 42.3821 40.0869 42.3809 40.0534 42.3809C39.867 42.3809 39.72 42.4371 39.6124 42.5495C39.5073 42.6594 39.4547 42.8172 39.4547 43.0227V43.9693H39.1105V42.069H39.4403V42.3881ZM40.8864 42.3881C40.9462 42.2782 41.0346 42.1945 41.1517 42.1371C41.2688 42.0798 41.4111 42.0511 41.5784 42.0511V42.3845C41.5593 42.3821 41.533 42.3809 41.4995 42.3809C41.3131 42.3809 41.1661 42.4371 41.0585 42.5495C40.9533 42.6594 40.9007 42.8172 40.9007 43.0227V43.9693H40.5565V42.069H40.8864V42.3881ZM42.6911 42.0511C42.954 42.0511 43.1548 42.1156 43.2935 42.2447C43.4345 42.3738 43.505 42.5662 43.505 42.822V43.9693H43.1787V43.7183C43.1214 43.8068 43.0389 43.8749 42.9313 43.9227C42.8262 43.9681 42.7007 43.9908 42.5549 43.9908C42.3421 43.9908 42.1712 43.9394 42.0421 43.8366C41.9155 43.7339 41.8521 43.5988 41.8521 43.4315C41.8521 43.2642 41.9131 43.1303 42.035 43.0299C42.1569 42.9271 42.3505 42.8757 42.6158 42.8757H43.1608V42.8076C43.1608 42.6594 43.1178 42.5459 43.0317 42.467C42.9457 42.3881 42.819 42.3487 42.6517 42.3487C42.5393 42.3487 42.4294 42.3678 42.3218 42.406C42.2142 42.4419 42.1234 42.4909 42.0493 42.553L41.9059 42.2949C42.0039 42.216 42.121 42.1563 42.2573 42.1156C42.3935 42.0726 42.5381 42.0511 42.6911 42.0511ZM42.6122 43.7255C42.7437 43.7255 42.8572 43.6968 42.9528 43.6394C43.0485 43.5797 43.1178 43.496 43.1608 43.3885V43.1231H42.6302C42.3385 43.1231 42.1927 43.2211 42.1927 43.4171C42.1927 43.5128 42.2298 43.588 42.3039 43.643C42.378 43.698 42.4808 43.7255 42.6122 43.7255ZM45.2104 43.8581C45.1602 43.9012 45.0981 43.9346 45.024 43.9585C44.9499 43.9801 44.8734 43.9908 44.7945 43.9908C44.6033 43.9908 44.4551 43.9394 44.3499 43.8366C44.2448 43.7339 44.1922 43.5869 44.1922 43.3956V42.3523H43.8695V42.069H44.1922V41.6531H44.5364V42.069H45.0814V42.3523H44.5364V43.3813C44.5364 43.4841 44.5615 43.5629 44.6117 43.6179C44.6643 43.6729 44.7384 43.7004 44.834 43.7004C44.9391 43.7004 45.0288 43.6705 45.1029 43.6108L45.2104 43.8581ZM45.6266 42.069H45.9708V43.9693H45.6266V42.069ZM45.7987 41.7033C45.7317 41.7033 45.6756 41.6818 45.6302 41.6388C45.5871 41.5957 45.5656 41.5432 45.5656 41.481C45.5656 41.4189 45.5871 41.3663 45.6302 41.3232C45.6756 41.2778 45.7317 41.2551 45.7987 41.2551C45.8656 41.2551 45.9206 41.2766 45.9636 41.3197C46.009 41.3603 46.0317 41.4117 46.0317 41.4738C46.0317 41.5384 46.009 41.5933 45.9636 41.6388C45.9206 41.6818 45.8656 41.7033 45.7987 41.7033ZM48.3095 42.069L47.4777 43.9693H47.1264L46.2945 42.069H46.6531L47.3056 43.5928L47.9725 42.069H48.3095ZM50.2957 43.0299C50.2957 43.0562 50.2933 43.0909 50.2885 43.1339H48.7468C48.7683 43.3012 48.8412 43.4363 48.9655 43.539C49.0922 43.6394 49.2487 43.6896 49.4352 43.6896C49.6623 43.6896 49.8451 43.6131 49.9837 43.4602L50.1738 43.6825C50.0877 43.7829 49.9802 43.8593 49.8511 43.9119C49.7244 43.9645 49.5822 43.9908 49.4244 43.9908C49.2236 43.9908 49.0456 43.9502 48.8902 43.8689C48.7348 43.7852 48.6141 43.6693 48.5281 43.5211C48.4444 43.3729 48.4026 43.2056 48.4026 43.0192C48.4026 42.8351 48.4432 42.669 48.5245 42.5208C48.6081 42.3726 48.7217 42.2578 48.8651 42.1766C49.0109 42.0929 49.1746 42.0511 49.3563 42.0511C49.538 42.0511 49.6993 42.0929 49.8403 42.1766C49.9837 42.2578 50.0949 42.3726 50.1738 42.5208C50.255 42.669 50.2957 42.8387 50.2957 43.0299ZM49.3563 42.3415C49.1914 42.3415 49.0527 42.3917 48.9404 42.4921C48.8304 42.5925 48.7659 42.724 48.7468 42.8865H49.9658C49.9467 42.7263 49.881 42.5961 49.7686 42.4957C49.6587 42.3929 49.5212 42.3415 49.3563 42.3415ZM52.2815 43.9908C52.1261 43.9908 51.9767 43.9705 51.8333 43.9299C51.6899 43.8868 51.5776 43.8331 51.4963 43.7685L51.6397 43.496C51.7234 43.5558 51.825 43.6036 51.9445 43.6394C52.064 43.6753 52.1847 43.6932 52.3066 43.6932C52.6078 43.6932 52.7584 43.6072 52.7584 43.4351C52.7584 43.3777 52.7381 43.3323 52.6974 43.2988C52.6568 43.2654 52.6054 43.2415 52.5432 43.2271C52.4835 43.2104 52.3974 43.1925 52.2851 43.1733C52.1321 43.1494 52.0066 43.1219 51.9086 43.0909C51.813 43.0598 51.7305 43.0072 51.6612 42.9331C51.5919 42.859 51.5572 42.755 51.5572 42.6212C51.5572 42.4491 51.629 42.3116 51.7724 42.2088C51.9158 42.1037 52.1082 42.0511 52.3496 42.0511C52.4763 42.0511 52.603 42.0666 52.7297 42.0977C52.8564 42.1288 52.9603 42.1706 53.0416 42.2232L52.8946 42.4957C52.7392 42.3953 52.5564 42.3451 52.346 42.3451C52.2002 42.3451 52.0891 42.369 52.0126 42.4168C51.9361 42.4646 51.8979 42.528 51.8979 42.6068C51.8979 42.669 51.9194 42.718 51.9624 42.7538C52.0054 42.7897 52.058 42.816 52.1202 42.8327C52.1847 42.8494 52.2743 42.8686 52.3891 42.8901C52.542 42.9164 52.6651 42.9451 52.7584 42.9761C52.854 43.0048 52.9352 43.055 53.0022 43.1267C53.0691 43.1984 53.1026 43.2988 53.1026 43.4279C53.1026 43.6 53.0285 43.7374 52.8803 43.8402C52.7345 43.9406 52.5349 43.9908 52.2815 43.9908ZM54.361 43.9908C54.1674 43.9908 53.9941 43.949 53.8411 43.8653C53.6905 43.7817 53.5722 43.6669 53.4861 43.5211C53.4001 43.3729 53.3571 43.2056 53.3571 43.0192C53.3571 42.8327 53.4001 42.6666 53.4861 42.5208C53.5722 42.3726 53.6905 42.2578 53.8411 42.1766C53.9941 42.0929 54.1674 42.0511 54.361 42.0511C54.5331 42.0511 54.6861 42.0857 54.8199 42.1551C54.9562 42.2244 55.0613 42.3248 55.1354 42.4562L54.8737 42.6248C54.8139 42.5339 54.7398 42.4658 54.6514 42.4204C54.563 42.375 54.465 42.3523 54.3574 42.3523C54.2331 42.3523 54.1207 42.3798 54.0204 42.4347C53.9224 42.4897 53.8447 42.5686 53.7873 42.6714C53.7323 42.7718 53.7048 42.8877 53.7048 43.0192C53.7048 43.153 53.7323 43.2713 53.7873 43.3741C53.8447 43.4745 53.9224 43.5522 54.0204 43.6072C54.1207 43.6621 54.2331 43.6896 54.3574 43.6896C54.465 43.6896 54.563 43.6669 54.6514 43.6215C54.7398 43.5761 54.8139 43.508 54.8737 43.4171L55.1354 43.5821C55.0613 43.7135 54.9562 43.8151 54.8199 43.8868C54.6861 43.9562 54.5331 43.9908 54.361 43.9908ZM57.2705 43.0299C57.2705 43.0562 57.2681 43.0909 57.2633 43.1339H55.7216C55.7431 43.3012 55.816 43.4363 55.9403 43.539C56.067 43.6394 56.2235 43.6896 56.41 43.6896C56.637 43.6896 56.8199 43.6131 56.9585 43.4602L57.1486 43.6825C57.0625 43.7829 56.955 43.8593 56.8259 43.9119C56.6992 43.9645 56.557 43.9908 56.3992 43.9908C56.1984 43.9908 56.0203 43.9502 55.865 43.8689C55.7096 43.7852 55.5889 43.6693 55.5029 43.5211C55.4192 43.3729 55.3774 43.2056 55.3774 43.0192C55.3774 42.8351 55.418 42.669 55.4993 42.5208C55.5829 42.3726 55.6965 42.2578 55.8399 42.1766C55.9857 42.0929 56.1494 42.0511 56.3311 42.0511C56.5127 42.0511 56.6741 42.0929 56.8151 42.1766C56.9585 42.2578 57.0697 42.3726 57.1486 42.5208C57.2298 42.669 57.2705 42.8387 57.2705 43.0299ZM56.3311 42.3415C56.1662 42.3415 56.0275 42.3917 55.9152 42.4921C55.8052 42.5925 55.7407 42.724 55.7216 42.8865H56.9406C56.9215 42.7263 56.8558 42.5961 56.7434 42.4957C56.6335 42.3929 56.496 42.3415 56.3311 42.3415ZM58.7631 42.0511C59.0045 42.0511 59.1957 42.1216 59.3368 42.2626C59.4802 42.4013 59.5519 42.6056 59.5519 42.8757V43.9693H59.2077V42.9152C59.2077 42.7311 59.1635 42.5925 59.075 42.4993C58.9866 42.406 58.8599 42.3594 58.695 42.3594C58.5085 42.3594 58.3615 42.4144 58.254 42.5244C58.1464 42.6319 58.0926 42.7873 58.0926 42.9905V43.9693H57.7484V42.069H58.0783V42.3559C58.1476 42.2578 58.2408 42.1826 58.358 42.13C58.4775 42.0774 58.6125 42.0511 58.7631 42.0511ZM61.9168 43.0299C61.9168 43.0562 61.9144 43.0909 61.9097 43.1339H60.3679C60.3894 43.3012 60.4623 43.4363 60.5866 43.539C60.7133 43.6394 60.8699 43.6896 61.0563 43.6896C61.2834 43.6896 61.4663 43.6131 61.6049 43.4602L61.7949 43.6825C61.7089 43.7829 61.6013 43.8593 61.4722 43.9119C61.3456 43.9645 61.2033 43.9908 61.0456 43.9908C60.8448 43.9908 60.6667 43.9502 60.5113 43.8689C60.356 43.7852 60.2353 43.6693 60.1492 43.5211C60.0656 43.3729 60.0237 43.2056 60.0237 43.0192C60.0237 42.8351 60.0644 42.669 60.1456 42.5208C60.2293 42.3726 60.3428 42.2578 60.4862 42.1766C60.6321 42.0929 60.7958 42.0511 60.9774 42.0511C61.1591 42.0511 61.3205 42.0929 61.4615 42.1766C61.6049 42.2578 61.716 42.3726 61.7949 42.5208C61.8762 42.669 61.9168 42.8387 61.9168 43.0299ZM60.9774 42.3415C60.8125 42.3415 60.6739 42.3917 60.5615 42.4921C60.4516 42.5925 60.387 42.724 60.3679 42.8865H61.587C61.5679 42.7263 61.5021 42.5961 61.3898 42.4957C61.2798 42.3929 61.1424 42.3415 60.9774 42.3415ZM62.9398 43.9908C62.7844 43.9908 62.635 43.9705 62.4916 43.9299C62.3482 43.8868 62.2358 43.8331 62.1546 43.7685L62.298 43.496C62.3816 43.5558 62.4832 43.6036 62.6027 43.6394C62.7223 43.6753 62.843 43.6932 62.9649 43.6932C63.266 43.6932 63.4166 43.6072 63.4166 43.4351C63.4166 43.3777 63.3963 43.3323 63.3557 43.2988C63.315 43.2654 63.2637 43.2415 63.2015 43.2271C63.1418 43.2104 63.0557 43.1925 62.9434 43.1733C62.7904 43.1494 62.6649 43.1219 62.5669 43.0909C62.4713 43.0598 62.3888 43.0072 62.3195 42.9331C62.2502 42.859 62.2155 42.755 62.2155 42.6212C62.2155 42.4491 62.2872 42.3116 62.4306 42.2088C62.5741 42.1037 62.7665 42.0511 63.0079 42.0511C63.1346 42.0511 63.2613 42.0666 63.388 42.0977C63.5146 42.1288 63.6186 42.1706 63.6999 42.2232L63.5529 42.4957C63.3975 42.3953 63.2147 42.3451 63.0043 42.3451C62.8585 42.3451 62.7474 42.369 62.6709 42.4168C62.5944 42.4646 62.5561 42.528 62.5561 42.6068C62.5561 42.669 62.5776 42.718 62.6207 42.7538C62.6637 42.7897 62.7163 42.816 62.7784 42.8327C62.843 42.8494 62.9326 42.8686 63.0473 42.8901C63.2003 42.9164 63.3234 42.9451 63.4166 42.9761C63.5122 43.0048 63.5935 43.055 63.6604 43.1267C63.7274 43.1984 63.7608 43.2988 63.7608 43.4279C63.7608 43.6 63.6867 43.7374 63.5385 43.8402C63.3927 43.9406 63.1931 43.9908 62.9398 43.9908Z" fill="#141F19"/>
</svg>
