<svg width="94" height="55" viewBox="0 0 94 55" fill="none" xmlns="http://www.w3.org/2000/svg">
<path d="M5.47297 44.1745C5.25927 44.0321 4.76077 43.8896 4.11977 43.6047C3.90617 43.5335 3.76367 43.4623 3.62127 43.3911C3.47877 43.3199 3.33637 43.2486 3.26517 43.1774C3.12267 43.1062 3.05147 43.035 2.98027 42.9637C2.83777 42.8925 2.83777 42.8213 2.76657 42.7501C2.69537 42.6789 2.69537 42.6076 2.69537 42.4652C2.69537 42.1803 2.76657 41.9667 2.98027 41.8242C3.19387 41.6818 3.40757 41.6106 3.69247 41.6106C4.26227 41.6106 4.83197 41.8954 5.54417 42.4652L6.47007 41.2545C5.61537 40.5423 4.68957 40.1861 3.69247 40.1861C3.19387 40.1861 2.76657 40.3286 2.33927 40.5423C1.91197 40.7559 1.62707 41.0408 1.34217 41.3969C1.12857 41.753 0.986071 42.1803 0.986071 42.6076C0.986071 42.8213 0.986072 43.035 1.05727 43.2486C1.12857 43.4623 1.19977 43.6047 1.27097 43.7472C1.34217 43.8896 1.48467 44.0321 1.62707 44.1745C1.76947 44.3169 1.91197 44.3882 2.05437 44.5306C2.19687 44.6018 2.33927 44.7443 2.55297 44.8155C2.62417 44.7443 2.83777 44.8867 2.98027 44.8867C3.12267 44.9579 3.33637 45.0291 3.54997 45.1004C3.76367 45.1716 3.97737 45.2428 4.11977 45.314C4.26227 45.3852 4.40467 45.4565 4.54707 45.5277C4.68957 45.5989 4.76077 45.6701 4.83197 45.7413C4.90317 45.8126 4.97447 45.8838 4.97447 46.0262C4.97447 46.0974 4.97447 46.1687 4.97447 46.3111C4.97447 46.4535 4.90317 46.6672 4.83197 46.7384C4.76077 46.8809 4.61837 46.9521 4.40467 47.0233C4.19097 47.0945 3.97737 47.1658 3.76367 47.1658C3.62127 47.1658 3.40757 47.1658 3.26517 47.0945C3.12267 47.0233 2.90907 47.0233 2.76657 46.8809C2.62417 46.8097 2.41047 46.6672 2.26807 46.5248C2.12557 46.3823 1.91197 46.2399 1.76947 46.0262L0.701172 47.3794C1.12857 47.8067 1.62707 48.1628 2.12557 48.3765C2.62417 48.5902 3.19387 48.7326 3.76367 48.7326C4.04857 48.7326 4.33347 48.7326 4.61837 48.6614C4.90317 48.5902 5.18807 48.5189 5.40177 48.3765C5.68667 48.2341 5.90027 48.0916 6.11397 47.878C6.32757 47.6643 6.47007 47.4506 6.61247 47.1658C6.75497 46.8809 6.75497 46.5248 6.75497 46.1687C6.75497 45.8126 6.68367 45.5277 6.61247 45.2428C6.32757 44.8155 6.04277 44.4594 5.47297 44.1745ZM17.8654 45.8838L16.3697 40.2574H14.5892L13.0936 45.8838L11.4555 40.2574H9.67497L12.3102 48.5902H13.8058L15.4439 42.6789L17.0107 48.5902H18.5063L21.1415 40.2574H19.361L17.8654 45.8838ZM26.4118 45.1716H29.4031V43.7472H26.4118V41.753H30.1153V40.2574H24.7737V48.5902H30.3289V47.0945H26.4118V45.1716ZM35.8129 45.1716H38.8042V43.7472H35.8129V41.753H39.5164V40.2574H34.1748V48.5902H39.73V47.0945H35.8129V45.1716ZM43.0062 41.6818H45.2852V48.5189H46.9945V41.6818H49.2736V40.1861H43.0062V41.6818ZM59.6005 48.5902V40.2574H57.9625V43.8896H54.5439V40.2574H52.9058V48.5902H54.5439V45.314H57.9625V48.5902H59.6005ZM70.7109 41.3257C70.3548 40.9696 69.8563 40.6847 69.3578 40.471C68.8592 40.2574 68.2894 40.1861 67.6485 40.1861C67.0075 40.1861 66.4377 40.3286 65.9392 40.5423C65.4406 40.7559 64.9421 41.0408 64.586 41.3969C64.2299 41.753 63.945 42.2515 63.7313 42.7501C63.5177 43.2486 63.4465 43.8184 63.4465 44.4594C63.4465 45.1004 63.5177 45.6701 63.7313 46.1687C63.945 46.6672 64.2299 47.1658 64.586 47.5219C64.9421 47.878 65.3694 48.1628 65.9392 48.3765C66.4377 48.5902 67.0787 48.7326 67.6485 48.7326C68.2894 48.7326 68.788 48.6614 69.3578 48.4477C69.8563 48.2341 70.3548 47.9492 70.7109 47.5931C71.067 47.237 71.3519 46.8097 71.5656 46.2399C71.7792 45.7413 71.9217 45.1004 71.9217 44.5306C71.9217 43.8896 71.7792 43.3198 71.5656 42.8213C71.4231 42.1091 71.1383 41.6818 70.7109 41.3257ZM70.07 45.4565C69.9275 45.8126 69.7851 46.0974 69.5714 46.3111C69.3577 46.5248 69.0729 46.7384 68.788 46.8809C68.5031 47.0233 68.147 47.0945 67.7909 47.0945C67.2924 47.0945 66.865 46.9521 66.4377 46.7384C66.0816 46.5248 65.7255 46.1687 65.5118 45.7413C65.2982 45.314 65.227 44.8867 65.227 44.3882C65.227 43.8896 65.2982 43.4623 65.5118 43.035C65.7255 42.6076 66.0104 42.3228 66.4377 42.0379C66.7938 41.8242 67.2924 41.6818 67.7909 41.6818C68.2894 41.6818 68.7168 41.8242 69.0729 42.0379C69.429 42.2515 69.7851 42.6076 69.9987 43.035C70.2124 43.4623 70.3548 43.8896 70.3548 44.4594C70.2124 44.8155 70.1412 45.1716 70.07 45.4565ZM80.0412 44.9579L77.4772 40.1861H75.8388V48.5189H77.4772V43.3198L79.5422 46.9521H80.6102L82.6762 43.3198V48.5189H84.3142V40.2574H82.6052L80.0412 44.9579ZM90.0832 47.0945V45.1716H93.0742V43.7472H90.0832V41.753H93.7862V40.2574H88.4452V48.5902H94.0002V47.0945H90.0832ZM19.2898 53.718C19.2185 53.6468 19.1473 53.6468 19.0761 53.5756C19.0049 53.5044 18.8624 53.5044 18.7912 53.4332C18.72 53.4332 18.72 53.3619 18.6488 53.3619C18.5776 53.3619 18.5776 53.2907 18.5063 53.2907L18.4351 53.2195V53.1483C18.4351 53.0771 18.4351 53.0058 18.5063 53.0058C18.5776 53.0058 18.6488 52.9346 18.7912 52.9346C18.8624 52.9346 19.0049 52.9346 19.0761 53.0058C19.1473 53.0058 19.2185 53.0771 19.2898 53.0771L19.4322 52.6497C19.361 52.5785 19.2898 52.5785 19.1473 52.5785C19.0049 52.5785 18.9337 52.5073 18.7912 52.5073C18.6488 52.5073 18.5776 52.5073 18.4351 52.5785C18.3639 52.5785 18.2215 52.6497 18.1502 52.721C18.079 52.7922 18.0078 52.8634 18.0078 52.9346C17.9366 53.0058 17.9366 53.0771 17.9366 53.2195C17.9366 53.2907 17.9366 53.4332 18.0078 53.5044C18.079 53.5756 18.079 53.6468 18.1502 53.718C18.2215 53.7893 18.2927 53.7893 18.3639 53.8605C18.4351 53.8605 18.5063 53.9317 18.5776 53.9317C18.72 54.0029 18.8624 54.0741 18.9337 54.0741C19.0049 54.1454 19.0049 54.2166 19.0049 54.2878V54.359C19.0049 54.359 19.0049 54.4302 18.9337 54.4302C18.9337 54.4302 18.8624 54.5015 18.7912 54.5015C18.72 54.5015 18.72 54.5015 18.6488 54.5015C18.5063 54.5015 18.3639 54.5015 18.2927 54.4302C18.2215 54.4302 18.079 54.359 18.079 54.359L17.9366 54.7863C17.9366 54.7863 18.0078 54.7863 18.079 54.8576C18.1502 54.8576 18.1502 54.9288 18.2215 54.9288C18.2927 54.9288 18.3639 54.9288 18.4351 55C18.5063 55 18.5776 55 18.72 55C19.0049 55 19.2185 54.9288 19.361 54.8576C19.5034 54.7151 19.5747 54.5727 19.5747 54.359C19.5747 54.2878 19.5747 54.1454 19.5034 54.0741C19.4322 53.8605 19.361 53.7893 19.2898 53.718ZM22.6371 52.5785H22.1386V54.7863H23.6342V54.359H22.6371V52.5785ZM28.0499 52.8634C27.9787 52.7922 27.8362 52.721 27.6938 52.6497C27.5513 52.5785 27.4089 52.5785 27.2665 52.5785C27.124 52.5785 26.9816 52.5785 26.8391 52.6497C26.6967 52.721 26.5543 52.7922 26.483 52.8634C26.4118 52.9346 26.2694 53.0771 26.2694 53.2195C26.1982 53.3619 26.1982 53.5044 26.1982 53.718C26.1982 53.9317 26.1982 54.0741 26.2694 54.2166C26.3406 54.359 26.4118 54.5015 26.483 54.5727C26.5543 54.6439 26.6967 54.7151 26.8391 54.7863C26.9816 54.8576 27.124 54.8576 27.2665 54.8576C27.4089 54.8576 27.5513 54.8576 27.6938 54.7863C27.8362 54.7151 27.9787 54.6439 28.0499 54.5727C28.1211 54.5015 28.1923 54.359 28.2635 54.2166C28.3348 54.0741 28.3348 53.9317 28.3348 53.718C28.3348 53.5044 28.3348 53.3619 28.2635 53.2195C28.2635 53.0771 28.1923 52.9346 28.0499 52.8634ZM27.8362 54.0029C27.8362 54.0741 27.765 54.1454 27.6938 54.2166C27.6226 54.2878 27.5513 54.359 27.4801 54.359C27.4089 54.359 27.3377 54.4302 27.2665 54.4302C27.1952 54.4302 27.124 54.4302 26.9816 54.359C26.9104 54.359 26.8391 54.2878 26.7679 54.2166C26.6967 54.1454 26.6967 54.0741 26.6255 54.0029C26.6255 53.9317 26.5543 53.7893 26.5543 53.718C26.5543 53.6468 26.5543 53.5044 26.6255 53.4332C26.6255 53.3619 26.6967 53.2907 26.7679 53.2195C26.8391 53.1483 26.9104 53.0771 26.9816 53.0771C27.0528 53.0771 27.124 53.0058 27.2665 53.0058C27.3377 53.0058 27.4089 53.0058 27.4801 53.0771C27.5513 53.0771 27.6226 53.1483 27.6938 53.2195C27.765 53.2907 27.765 53.3619 27.8362 53.4332C27.8362 53.5044 27.9074 53.6468 27.9074 53.718C27.9074 53.7893 27.9074 53.9317 27.8362 54.0029ZM32.3231 54.4302C32.2519 54.4302 32.2519 54.4302 32.1807 54.4302C32.1095 54.4302 31.967 54.4302 31.8958 54.359C31.8246 54.359 31.7533 54.2878 31.6821 54.2166C31.6109 54.1454 31.6109 54.0741 31.5397 54.0029C31.5397 53.9317 31.4685 53.7893 31.4685 53.718C31.4685 53.5044 31.5397 53.2907 31.6109 53.2195C31.6821 53.0771 31.8958 53.0058 32.1095 53.0058C32.1807 53.0058 32.3231 53.0058 32.3943 53.0771C32.4656 53.0771 32.5368 53.1483 32.608 53.1483L32.7504 52.721C32.7504 52.721 32.6792 52.721 32.6792 52.6497C32.608 52.6497 32.608 52.5785 32.5368 52.5785C32.4656 52.5785 32.3943 52.5785 32.3231 52.5073C32.2519 52.5073 32.1095 52.5073 32.0382 52.5073C31.8958 52.5073 31.7534 52.5073 31.6109 52.5785C31.4685 52.6497 31.326 52.721 31.2548 52.7922C31.1836 52.8634 31.0411 53.0058 31.0411 53.1483C30.9699 53.2907 30.9699 53.4332 30.9699 53.6468C30.9699 53.8605 30.9699 54.0029 31.0411 54.1454C31.1124 54.2878 31.1836 54.4302 31.2548 54.5015C31.326 54.5727 31.4685 54.6439 31.6109 54.7151C31.7534 54.7863 31.8958 54.7863 32.0382 54.7863C32.2519 54.7863 32.3943 54.7863 32.5368 54.7151C32.6792 54.7151 32.7504 54.6439 32.8217 54.6439V53.5756H32.3231V54.4302ZM37.2373 53.5756C37.1661 53.3619 37.0949 53.2195 37.0237 53.0771C36.9524 52.9346 36.8812 52.7922 36.81 52.5785H36.3115C36.2402 52.721 36.169 52.8634 36.0978 53.0771C36.0266 53.2195 35.9554 53.4332 35.8841 53.5756C35.8129 53.7893 35.7417 53.9317 35.6705 54.1454C35.5993 54.359 35.528 54.5727 35.4568 54.7863H35.9554C35.9554 54.7151 36.0266 54.6439 36.0266 54.5727C36.0266 54.5015 36.0978 54.4302 36.0978 54.359H37.0237C37.0237 54.4302 37.0949 54.5015 37.0949 54.5727C37.0949 54.6439 37.1661 54.7151 37.1661 54.7863H37.7359C37.6646 54.5727 37.5934 54.359 37.5222 54.1454C37.3798 53.9317 37.3085 53.7893 37.2373 53.5756ZM36.2402 53.9317C36.2402 53.8605 36.3115 53.718 36.3115 53.6468C36.3115 53.5756 36.3827 53.5044 36.3827 53.4332C36.3827 53.3619 36.4539 53.2907 36.4539 53.2195C36.4539 53.1483 36.5251 53.1483 36.5251 53.0771C36.5251 53.0771 36.5251 53.1483 36.5963 53.2195C36.5963 53.2907 36.6676 53.3619 36.6676 53.4332C36.6676 53.5044 36.7388 53.5756 36.7388 53.6468C36.7388 53.718 36.81 53.8605 36.81 53.9317H36.2402ZM41.7242 53.9317C41.653 53.7893 41.5818 53.718 41.5106 53.5756C41.4393 53.4332 41.3681 53.3619 41.2257 53.2195C41.1545 53.0771 41.0832 53.0058 40.9408 52.8634C40.8696 52.7922 40.7983 52.6497 40.7271 52.5785H40.2998V54.7863H40.7983V53.3619C41.012 53.5756 41.1545 53.7893 41.2969 54.0741C41.4393 54.2878 41.653 54.5727 41.7954 54.8576H42.2228V52.6497H41.7242V53.9317ZM47.0657 54.4302C46.9945 54.4302 46.9945 54.4302 46.9233 54.4302C46.8521 54.4302 46.7096 54.4302 46.6384 54.359C46.5672 54.359 46.496 54.2878 46.4248 54.2166C46.3535 54.1454 46.2823 54.0741 46.2823 54.0029C46.2823 53.9317 46.2111 53.7893 46.2111 53.718C46.2111 53.5044 46.2823 53.2907 46.3535 53.2195C46.4248 53.0771 46.6384 53.0058 46.8521 53.0058C46.9233 53.0058 47.0657 53.0058 47.137 53.0771C47.2082 53.0771 47.2794 53.1483 47.3506 53.1483L47.4931 52.721C47.4931 52.721 47.4219 52.721 47.4219 52.6497C47.3506 52.6497 47.3506 52.5785 47.2794 52.5785C47.2082 52.5785 47.137 52.5785 47.0657 52.5073C46.9945 52.5073 46.8521 52.5073 46.7809 52.5073C46.6384 52.5073 46.496 52.5073 46.3535 52.5785C46.2111 52.6497 46.0687 52.721 45.9974 52.7922C45.9262 52.8634 45.7838 53.0058 45.7838 53.1483C45.7126 53.2907 45.7126 53.4332 45.7126 53.6468C45.7126 53.8605 45.7126 54.0029 45.7838 54.1454C45.855 54.2878 45.9262 54.4302 45.9974 54.5015C46.0687 54.5727 46.2111 54.6439 46.3535 54.7151C46.496 54.7863 46.6384 54.7863 46.7809 54.7863C46.9945 54.7863 47.137 54.7863 47.2794 54.7151C47.4219 54.7151 47.4931 54.6439 47.5643 54.6439V53.5756H47.0657V54.4302ZM52.1936 52.8634C52.1224 52.7922 51.98 52.721 51.8375 52.6497C51.6951 52.5785 51.5526 52.5785 51.4102 52.5785C51.2678 52.5785 51.1253 52.5785 50.9829 52.6497C50.8404 52.721 50.698 52.7922 50.6268 52.8634C50.5556 52.9346 50.4131 53.0771 50.4131 53.2195C50.3419 53.3619 50.3419 53.5044 50.3419 53.718C50.3419 53.9317 50.3419 54.0741 50.4131 54.2166C50.4843 54.359 50.5556 54.5015 50.6268 54.5727C50.698 54.6439 50.8404 54.7151 50.9829 54.7863C51.1253 54.8576 51.2678 54.8576 51.4102 54.8576C51.5526 54.8576 51.6951 54.8576 51.8375 54.7863C51.98 54.7151 52.1224 54.6439 52.1936 54.5727C52.2648 54.5015 52.3361 54.359 52.4073 54.2166C52.4785 54.0741 52.4785 53.9317 52.4785 53.718C52.4785 53.5044 52.4785 53.3619 52.4073 53.2195C52.3361 53.0771 52.2648 52.9346 52.1936 52.8634ZM51.9087 54.0029C51.9087 54.0741 51.8375 54.1454 51.7663 54.2166C51.6951 54.2878 51.6239 54.359 51.5526 54.359C51.4814 54.359 51.4102 54.4302 51.339 54.4302C51.2678 54.4302 51.1965 54.4302 51.0541 54.359C50.9829 54.359 50.9117 54.2878 50.8404 54.2166C50.7692 54.1454 50.7692 54.0741 50.698 54.0029C50.698 53.9317 50.6268 53.7893 50.6268 53.718C50.6268 53.6468 50.6268 53.5044 50.698 53.4332C50.698 53.3619 50.7692 53.2907 50.8404 53.2195C50.9117 53.1483 50.9829 53.0771 51.0541 53.0771C51.1253 53.0771 51.1965 53.0058 51.339 53.0058C51.4102 53.0058 51.4814 53.0058 51.5526 53.0771C51.6239 53.0771 51.6951 53.1483 51.7663 53.2195C51.8375 53.2907 51.8375 53.3619 51.9087 53.4332C51.9087 53.5044 51.98 53.6468 51.98 53.718C51.98 53.7893 51.98 53.9317 51.9087 54.0029ZM55.7546 53.8605H56.6093V53.4332H55.7546V53.0058H56.7517V52.5785H55.2561V54.7863H56.823V54.359H55.7546V53.8605ZM60.8113 53.718C60.7401 53.6468 60.6689 53.6468 60.5976 53.5756C60.5264 53.5044 60.384 53.5044 60.3128 53.4332C60.2415 53.4332 60.2415 53.3619 60.1703 53.3619C60.0991 53.3619 60.0991 53.2907 60.0279 53.2907L59.9566 53.2195V53.1483C59.9566 53.0771 59.9567 53.0058 60.0279 53.0058C60.0991 53.0058 60.1703 52.9346 60.3128 52.9346C60.4552 52.9346 60.5264 52.9346 60.5976 53.0058C60.6689 53.0058 60.7401 53.0771 60.8113 53.0771L60.9537 52.6497C60.8825 52.5785 60.8113 52.5785 60.6689 52.5785C60.5264 52.5785 60.4552 52.5073 60.3128 52.5073C60.1703 52.5073 60.0991 52.5073 59.9566 52.5785C59.8854 52.5785 59.743 52.6497 59.6718 52.721C59.6006 52.7922 59.5293 52.8634 59.5293 52.9346C59.4581 53.0058 59.4581 53.0771 59.4581 53.2195C59.4581 53.2907 59.4581 53.4332 59.5293 53.5044C59.6005 53.5756 59.6006 53.6468 59.6718 53.718C59.743 53.7893 59.8142 53.7893 59.8854 53.8605C59.9566 53.8605 60.0279 53.9317 60.0991 53.9317C60.2415 54.0029 60.384 54.0741 60.4552 54.0741C60.5264 54.1454 60.5264 54.2166 60.5264 54.2878V54.359C60.5264 54.359 60.5264 54.4302 60.4552 54.4302C60.4552 54.4302 60.384 54.5015 60.3128 54.5015C60.2415 54.5015 60.2415 54.5015 60.1703 54.5015C60.0279 54.5015 59.8854 54.5015 59.8142 54.4302C59.743 54.4302 59.6005 54.359 59.6005 54.359L59.4581 54.7863C59.4581 54.7863 59.5293 54.7863 59.6005 54.8576C59.6718 54.8576 59.6718 54.9288 59.743 54.9288C59.8142 54.9288 59.8854 54.9288 59.9566 55C60.0279 55 60.0991 55 60.2415 55C60.5264 55 60.7401 54.9288 60.8825 54.8576C61.025 54.7151 61.0962 54.5727 61.0962 54.359C61.0962 54.2878 61.0962 54.1454 61.025 54.0741C60.9537 54.0029 60.8113 53.7893 60.8113 53.718ZM65.7255 53.4332H64.8709V52.5785H64.3723V54.7863H64.8709V53.8605H65.7255V54.7863H66.2241V52.5785H65.7255V53.4332ZM69.5714 53.8605H70.4973V53.4332H69.6426V53.0058H70.6397V52.5785H69.0729V54.7863H70.6397V54.359H69.5714V53.8605ZM74.9129 54.2878C74.8417 54.2166 74.8417 54.1454 74.7705 54.0741C74.6993 54.0029 74.6993 53.9317 74.6281 53.8605C74.7705 53.7893 74.8417 53.718 74.9129 53.6468C74.9842 53.5756 75.0554 53.4332 75.0554 53.2907C75.0554 53.0058 74.9842 52.8634 74.7705 52.721C74.6281 52.5785 74.3432 52.5073 73.9871 52.5073C73.9159 52.5073 73.7734 52.5073 73.7022 52.5073C73.631 52.5073 73.4885 52.5073 73.3461 52.5785V54.7863H73.8446V54.0029H74.0583C74.1295 54.0741 74.1295 54.1454 74.2007 54.1454C74.272 54.2166 74.272 54.2878 74.3432 54.359C74.4144 54.4302 74.4144 54.5015 74.4856 54.5727C74.5568 54.6439 74.5569 54.7151 74.6281 54.7863H75.1978C75.1266 54.7151 75.1266 54.6439 75.0554 54.5727C74.9842 54.5015 74.9129 54.4302 74.9129 54.2878ZM74.4144 53.5044C74.3432 53.5756 74.2007 53.5756 73.9871 53.5756H73.8446V53.0058H73.9871C74.1295 53.0058 74.272 53.0058 74.3432 53.0771C74.4144 53.1483 74.4856 53.2195 74.4856 53.2907C74.4856 53.4332 74.4856 53.5044 74.4144 53.5044ZM78.2602 53.8605H79.1152V53.4332H78.2602V53.0058H79.2572V52.5785H77.7622V54.7863H79.3282V54.359H78.2602V53.8605ZM78.0462 17.9654C78.1892 17.6093 78.4032 16.6122 77.2632 15.6151L60.1703 0.801233C58.9596 -0.267078 57.0366 -0.267078 55.8259 0.801233L48.6326 7.06863L41.3681 0.801233C40.1574 -0.267078 38.2344 -0.267078 37.0237 0.801233L19.9308 15.6863C18.7912 16.6834 19.0049 17.6093 19.1473 18.0366C19.2898 18.3927 19.7883 19.2473 21.2839 19.2473H24.1328C24.2752 19.2473 24.3464 19.3186 24.3464 19.461V31.7821C24.3464 33.4914 25.6996 34.8446 27.4089 34.8446H45.214C45.7838 34.8446 46.2823 34.4885 46.496 33.99C46.7097 33.4914 46.5672 32.8504 46.2111 32.4231L39.73 25.9421C37.5222 23.8054 37.5222 20.2444 39.73 18.0366C41.9379 15.9 45.4277 15.9 47.6355 18.0366C48.2053 18.6063 49.0599 18.6063 49.6297 18.0366C51.8375 15.9 55.3273 15.9 57.5352 18.0366C59.743 20.1732 59.743 23.7342 57.5352 25.9421L51.0541 32.4231C50.9829 32.4943 50.9117 32.5656 50.9117 32.6368C50.8404 32.708 50.8404 32.7792 50.8404 32.7792C50.7692 32.9929 50.698 33.2065 50.698 33.4202V33.4914C50.698 33.6339 50.698 33.7763 50.7692 33.9187C50.8404 34.1324 50.9829 34.2748 51.1253 34.4885C51.4102 34.7734 51.7663 34.9158 52.1224 34.9158H69.9275C71.6368 34.9158 72.99 33.5626 72.99 31.8534V19.461C72.99 19.3186 73.0612 19.2473 73.2037 19.2473H76.0525C77.4772 19.2473 77.9042 18.3927 78.0462 17.9654ZM73.0612 16.3985C71.3519 16.3985 69.9987 17.7517 69.9987 19.461V31.7821C69.9987 31.9246 69.9275 31.9958 69.7851 31.9958H55.4698L59.5293 27.9362C62.8055 24.6601 62.8055 19.3186 59.5293 16.0424C56.5381 13.0512 51.9087 12.7663 48.6326 15.1878C45.3565 12.7663 40.7271 13.0512 37.7359 16.0424C34.4597 19.3186 34.4597 24.6601 37.7359 27.9362L41.7954 31.9958H27.4089C27.2665 31.9958 27.1952 31.9246 27.1952 31.7821V19.461C27.1952 17.7517 25.8421 16.3985 24.1328 16.3985H23.4206L38.9466 2.93784C39.0891 2.7954 39.3739 2.7954 39.5164 2.93784L47.7067 10.0599C48.2765 10.5584 49.0599 10.5584 49.5585 10.0599L57.6776 2.93784C57.82 2.7954 58.1049 2.7954 58.2474 2.93784L73.7734 16.3985H73.0612Z" fill="#141F19"/>
</svg>
