<svg width="24" height="23" viewBox="0 0 24 23" fill="none" xmlns="http://www.w3.org/2000/svg">
<g id="Group">
<path id="Vector" d="M24 7.08544C24.0003 8.82255 23.3372 10.4577 22.1303 11.7015L12.7493 2.3203C15.3422 -0.192051 19.4951 -0.16742 22.057 2.39451C23.3097 3.64722 24 5.31328 24 7.08544ZM22.2566 13.7074C22.2566 14.0554 22.1211 14.3828 21.8751 14.6288C21.6288 14.8751 21.3013 15.0106 20.9533 15.0106C20.6079 15.0106 20.2833 14.8773 20.0376 14.6351L20.0313 14.6288L16.4168 11.0141L16.4165 11.0138L16.0818 11.3488H16.0815L15.8172 11.6134L15.7467 11.6838L19.3678 15.3049C19.8699 15.8139 19.8677 16.6359 19.3618 17.1418C18.8534 17.6502 18.0267 17.6502 17.5183 17.1418L13.9035 13.5271L13.5688 13.8621H13.5685L13.2338 14.1968H13.2334L16.8485 17.8119C17.3566 18.32 17.3569 19.147 16.8488 19.6551C16.6025 19.9014 16.275 20.0369 15.9271 20.0369C15.5787 20.0369 15.2513 19.9014 15.0053 19.6551L11.3902 16.04L11.0552 16.3751L10.7205 16.7101L11.1916 17.1813L14.3352 20.3249C14.8436 20.8333 14.8436 21.66 14.3355 22.1681C14.0895 22.4144 13.7621 22.5499 13.4138 22.5499C13.1826 22.5499 12.9603 22.4902 12.7651 22.3778C13.061 21.989 13.2208 21.517 13.2208 21.0199C13.2208 20.7193 13.1621 20.4275 13.0506 20.1578C12.9388 19.8882 12.774 19.6406 12.5615 19.4281C12.2567 19.1233 11.88 18.9168 11.4695 18.8243C11.3056 18.7874 11.1382 18.7689 10.9702 18.769C10.8758 18.769 10.7827 18.7747 10.6905 18.7861C10.7018 18.6942 10.7075 18.6007 10.7075 18.5066C10.7075 17.9054 10.4735 17.3401 10.0485 16.9151V16.9148C9.53849 16.4051 8.84282 16.1913 8.17715 16.2744C8.18884 16.1818 8.19452 16.088 8.19452 15.9933C8.19452 15.6927 8.1361 15.4009 8.02431 15.1315C7.91253 14.8619 7.74769 14.6143 7.53517 14.4018C7.11013 13.9767 6.54488 13.7427 5.94395 13.7427C5.84953 13.7427 5.75637 13.7484 5.66417 13.7598C5.67553 13.6679 5.68122 13.5747 5.68122 13.4806V13.4781C5.68122 12.9887 5.52586 12.5232 5.23881 12.1379C5.17278 12.0496 5.10049 11.9661 5.0225 11.8882C4.2081 11.0741 2.91971 11.0153 2.0371 11.7132L1.94332 11.6194C0.690297 10.3664 0 8.70035 0 6.92818C0 5.15602 0.690297 3.48996 1.94332 2.23694C3.19665 0.983602 4.86271 0.293304 6.63456 0.293304C8.40704 0.29362 10.0731 0.983918 11.3261 2.23694L21.8748 12.7856C22.1211 13.0319 22.2566 13.3591 22.2566 13.7074Z" fill="#28BD69"/>
<path id="Vector_2" d="M9.76016 18.5067C9.76016 18.855 9.62469 19.1821 9.3787 19.4281L8.99439 19.8127C8.87124 19.9356 8.72787 20.0309 8.57188 20.0957C8.41588 20.1604 8.24694 20.1942 8.07294 20.1942C7.72464 20.1942 7.39717 20.0587 7.15086 19.8124C6.90518 19.5664 6.76971 19.239 6.76971 18.891C6.76971 18.5427 6.90518 18.2152 7.15149 17.9689L7.53548 17.5849C7.78969 17.3307 8.12315 17.2038 8.45693 17.2038C8.79071 17.2038 9.12449 17.3307 9.37838 17.5849C9.62469 17.8309 9.76016 18.1584 9.76016 18.5067ZM7.24717 15.9937C7.24717 16.3417 7.1117 16.6691 6.86571 16.9151L6.4814 17.2991C6.23509 17.5454 5.90795 17.6812 5.55964 17.6812C5.21165 17.6812 4.88418 17.5454 4.63787 17.2991C4.39188 17.0531 4.25641 16.726 4.25641 16.3777C4.25641 16.0294 4.3922 15.7022 4.63819 15.4559L5.0225 15.0716C5.26849 14.8256 5.59564 14.6901 5.94394 14.6901C6.29194 14.6901 6.6194 14.8256 6.86539 15.0716C7.11139 15.3179 7.24717 15.6454 7.24717 15.9937ZM12.2735 21.02C12.2735 21.3238 12.1702 21.6121 11.9804 21.8438C11.9526 21.8776 11.9233 21.9102 11.892 21.9414L11.5074 22.3257C10.9993 22.8338 10.1726 22.8338 9.66416 22.3254C9.41817 22.0794 9.2827 21.7523 9.2827 21.404C9.2827 21.0557 9.41817 20.7285 9.66416 20.4825L10.0488 20.0979C10.2948 19.8519 10.6219 19.7164 10.9702 19.7164C11.1442 19.7164 11.3129 19.7502 11.4692 19.815C11.5326 19.8412 11.5942 19.8724 11.653 19.9091C11.7385 19.9618 11.8187 20.0249 11.8917 20.0979C12.1377 20.3442 12.2735 20.6717 12.2735 21.02ZM4.73387 13.4804C4.73387 13.8287 4.5984 14.1558 4.35272 14.4018L3.96842 14.7861C3.72211 15.0324 3.39464 15.1679 3.04665 15.1679C2.69835 15.1679 2.37088 15.0324 2.12489 14.7861C1.87889 14.5401 1.74342 14.2127 1.74342 13.8647C1.74342 13.5164 1.87889 13.1889 2.1252 12.9429L2.50919 12.5586C2.60944 12.4581 2.72551 12.3746 2.85276 12.3117H2.85308C3.03293 12.223 3.23077 12.177 3.43127 12.1772C3.56738 12.1772 3.70348 12.1983 3.83389 12.2403C3.86358 12.2501 3.89263 12.2608 3.92168 12.2725C4.07862 12.336 4.22546 12.4314 4.35272 12.5583C4.59872 12.8043 4.73419 13.1318 4.73387 13.4804Z" fill="#28BD69"/>
</g>
</svg>
