<svg width="24" height="23" viewBox="0 0 24 23" fill="none" xmlns="http://www.w3.org/2000/svg">
<g id="Group">
<path id="Vector" d="M24 6.86343C24.0003 8.60054 23.3372 10.2357 22.1303 11.4795L12.7493 2.09829C15.3422 -0.414066 19.4951 -0.389436 22.057 2.1725C23.3097 3.4252 24 5.09126 24 6.86343ZM22.2566 13.4854C22.2566 13.8333 22.1211 14.1608 21.8751 14.4068C21.6288 14.6531 21.3013 14.7886 20.9533 14.7886C20.6079 14.7886 20.2833 14.6553 20.0376 14.4131L20.0313 14.4068L16.4168 10.7921L16.4165 10.7917L16.0818 11.1268H16.0815L15.8172 11.3914L15.7467 11.4618L19.3678 15.0829C19.8699 15.5919 19.8677 16.4139 19.3618 16.9198C18.8534 17.4282 18.0267 17.4282 17.5183 16.9198L13.9035 13.305L13.5688 13.6401H13.5685L13.2338 13.9748H13.2334L16.8485 17.5899C17.3566 18.098 17.3569 18.925 16.8488 19.4331C16.6025 19.6794 16.275 19.8149 15.9271 19.8149C15.5787 19.8149 15.2513 19.6794 15.0053 19.4331L11.3902 15.818L11.0552 16.1531L10.7205 16.4881L11.1916 16.9593L14.3352 20.1029C14.8436 20.6113 14.8436 21.438 14.3355 21.9461C14.0895 22.1924 13.7621 22.3279 13.4138 22.3279C13.1826 22.3279 12.9603 22.2682 12.7651 22.1558C13.061 21.767 13.2208 21.2949 13.2208 20.7979C13.2208 20.4973 13.1621 20.2055 13.0506 19.9358C12.9388 19.6661 12.774 19.4186 12.5615 19.206C12.2567 18.9013 11.88 18.6948 11.4695 18.6023C11.3056 18.5654 11.1382 18.5469 10.9702 18.547C10.8758 18.547 10.7827 18.5527 10.6905 18.5641C10.7018 18.4722 10.7075 18.3787 10.7075 18.2846C10.7075 17.6834 10.4735 17.1181 10.0485 16.6931V16.6927C9.53849 16.1831 8.84282 15.9693 8.17715 16.0523C8.18884 15.9598 8.19452 15.866 8.19452 15.7713C8.19452 15.4707 8.1361 15.1789 8.02431 14.9095C7.91253 14.6399 7.74769 14.3923 7.53517 14.1798C7.11013 13.7547 6.54488 13.5207 5.94395 13.5207C5.84953 13.5207 5.75637 13.5264 5.66417 13.5378C5.67553 13.4459 5.68122 13.3527 5.68122 13.2586V13.2561C5.68122 12.7666 5.52586 12.3012 5.23881 11.9159C5.17278 11.8276 5.10049 11.7441 5.0225 11.6661C4.2081 10.8521 2.91971 10.7933 2.0371 11.4912L1.94332 11.3974C0.690297 10.1444 0 8.47833 0 6.70617C0 4.934 0.690297 3.26794 1.94332 2.01492C3.19665 0.761587 4.86271 0.0712891 6.63456 0.0712891C8.40704 0.0716048 10.0731 0.761903 11.3261 2.01492L21.8748 12.5636C22.1211 12.8099 22.2566 13.1371 22.2566 13.4854Z" fill="#FAFAFA"/>
<path id="Vector_2" d="M9.76018 18.2846C9.76018 18.6329 9.6247 18.9601 9.37871 19.206L8.99441 19.5907C8.87125 19.7135 8.72789 19.8089 8.57189 19.8736C8.41589 19.9383 8.24695 19.9721 8.07296 19.9721C7.72465 19.9721 7.39718 19.8367 7.15088 19.5904C6.9052 19.3444 6.76973 19.0169 6.76973 18.6689C6.76973 18.3206 6.9052 17.9931 7.15151 17.7468L7.5355 17.3628C7.7897 17.1086 8.12317 16.9817 8.45695 16.9817C8.79073 16.9817 9.12451 17.1086 9.3784 17.3628C9.62471 17.6088 9.76018 17.9363 9.76018 18.2846ZM7.24719 15.7716C7.24719 16.1196 7.11172 16.4471 6.86573 16.6931L6.48142 17.077C6.23511 17.3234 5.90796 17.4591 5.55965 17.4591C5.21166 17.4591 4.8842 17.3234 4.63789 17.077C4.3919 16.8311 4.25643 16.5039 4.25643 16.1556C4.25643 15.8073 4.39221 15.4801 4.6382 15.2338L5.02251 14.8495C5.2685 14.6035 5.59565 14.4681 5.94396 14.4681C6.29195 14.4681 6.61942 14.6035 6.86541 14.8495C7.1114 15.0958 7.24719 15.4233 7.24719 15.7716ZM12.2735 20.7979C12.2735 21.1017 12.1702 21.39 11.9804 21.6218C11.9526 21.6556 11.9233 21.6881 11.892 21.7193L11.5074 22.1037C10.9993 22.6117 10.1726 22.6117 9.66418 22.1033C9.41818 21.8573 9.28271 21.5302 9.28271 21.1819C9.28271 20.8336 9.41818 20.5064 9.66418 20.2604L10.0488 19.8758C10.2948 19.6298 10.6219 19.4944 10.9702 19.4944C11.1442 19.4944 11.3129 19.5281 11.4692 19.5929C11.5327 19.6191 11.5942 19.6503 11.653 19.687C11.7385 19.7397 11.8188 19.8029 11.8917 19.8758C12.1377 20.1221 12.2735 20.4496 12.2735 20.7979ZM4.73389 13.2583C4.73389 13.6066 4.59842 13.9338 4.35274 14.1798L3.96843 14.5641C3.72212 14.8104 3.39466 14.9458 3.04667 14.9458C2.69836 14.9458 2.3709 14.8104 2.1249 14.5641C1.87891 14.3181 1.74344 13.9906 1.74344 13.6426C1.74344 13.2943 1.87891 12.9668 2.12522 12.7208L2.50921 12.3365C2.60946 12.236 2.72552 12.1526 2.85278 12.0896H2.85309C3.03294 12.001 3.23079 11.9549 3.43129 11.9551C3.56739 11.9551 3.70349 11.9762 3.83391 12.0182C3.86359 12.028 3.89265 12.0388 3.9217 12.0504C4.07864 12.1139 4.22548 12.2093 4.35274 12.3362C4.59873 12.5822 4.7342 12.9097 4.73389 13.2583Z" fill="#FAFAFA"/>
</g>
</svg>
