<svg width="25" height="24" viewBox="0 0 25 24" fill="none" xmlns="http://www.w3.org/2000/svg">
<g id="Group">
<path id="Vector" d="M24.5 7.58535C24.5003 9.32246 23.8372 10.9576 22.6303 12.2014L13.2493 2.82021C15.8422 0.307857 19.9951 0.332488 22.557 2.89442C23.8097 4.14712 24.5 5.81319 24.5 7.58535ZM22.7566 14.2073C22.7566 14.5553 22.6211 14.8827 22.3751 15.1287C22.1288 15.375 21.8013 15.5105 21.4533 15.5105C21.1079 15.5105 20.7833 15.3773 20.5376 15.135L20.5313 15.1287L16.9168 11.514L16.9165 11.5137L16.5818 11.8487H16.5815L16.3172 12.1133L16.2467 12.1838L19.8678 15.8048C20.3699 16.3139 20.3677 17.1358 19.8618 17.6417C19.3534 18.1501 18.5267 18.1501 18.0183 17.6417L14.4035 14.027L14.0688 14.362H14.0685L13.7338 14.6967H13.7334L17.3485 18.3118C17.8566 18.8199 17.8569 19.6469 17.3488 20.155C17.1025 20.4013 16.775 20.5368 16.4271 20.5368C16.0787 20.5368 15.7513 20.4013 15.5053 20.155L11.8902 16.54L11.5552 16.875L11.2205 17.21L11.6916 17.6812L14.8352 20.8248C15.3436 21.3332 15.3436 22.1599 14.8355 22.668C14.5895 22.9143 14.2621 23.0498 13.9138 23.0498C13.6826 23.0498 13.4603 22.9901 13.2651 22.8777C13.561 22.489 13.7208 22.0169 13.7208 21.5198C13.7208 21.2192 13.6621 20.9274 13.5506 20.6577C13.4388 20.3881 13.274 20.1405 13.0615 19.928C12.7567 19.6232 12.38 19.4167 11.9695 19.3242C11.8056 19.2873 11.6382 19.2688 11.4702 19.2689C11.3758 19.2689 11.2827 19.2746 11.1905 19.286C11.2018 19.1941 11.2075 19.1006 11.2075 19.0065C11.2075 18.4053 10.9735 17.84 10.5485 17.415V17.4147C10.0385 16.905 9.34282 16.6912 8.67715 16.7743C8.68884 16.6817 8.69452 16.588 8.69452 16.4932C8.69452 16.1926 8.6361 15.9008 8.52431 15.6315C8.41253 15.3618 8.24769 15.1142 8.03517 14.9017C7.61013 14.4766 7.04488 14.2426 6.44395 14.2426C6.34953 14.2426 6.25637 14.2483 6.16417 14.2597C6.17553 14.1678 6.18122 14.0747 6.18122 13.9805V13.978C6.18122 13.4886 6.02586 13.0231 5.73881 12.6378C5.67278 12.5495 5.60049 12.466 5.5225 12.3881C4.7081 11.574 3.41971 11.5152 2.5371 12.2131L2.44332 12.1193C1.1903 10.8663 0.5 9.20025 0.5 7.42809C0.5 5.65593 1.1903 3.98987 2.44332 2.73685C3.69665 1.48351 5.36271 0.793213 7.13456 0.793213C8.90704 0.793529 10.5731 1.48383 11.8261 2.73685L22.3748 13.2855C22.6211 13.5318 22.7566 13.859 22.7566 14.2073Z" fill="#FEBF10"/>
<path id="Vector_2" d="M10.2601 19.0065C10.2601 19.3548 10.1247 19.682 9.87868 19.928L9.49438 20.3126C9.37122 20.4354 9.22786 20.5308 9.07186 20.5955C8.91586 20.6603 8.74692 20.6941 8.57293 20.6941C8.22462 20.6941 7.89715 20.5586 7.65085 20.3123C7.40517 20.0663 7.2697 19.7388 7.2697 19.3908C7.2697 19.0425 7.40517 18.7151 7.65148 18.4687L8.03547 18.0848C8.28967 17.8306 8.62313 17.7036 8.95692 17.7036C9.2907 17.7036 9.62448 17.8306 9.87837 18.0848C10.1247 18.3307 10.2601 18.6582 10.2601 19.0065ZM7.74716 16.4935C7.74716 16.8415 7.61169 17.169 7.36569 17.415L6.98139 17.799C6.73508 18.0453 6.40793 18.1811 6.05962 18.1811C5.71163 18.1811 5.38417 18.0453 5.13786 17.799C4.89186 17.553 4.75639 17.2258 4.75639 16.8775C4.75639 16.5292 4.89218 16.2021 5.13817 15.9558L5.52248 15.5715C5.76847 15.3255 6.09562 15.19 6.44393 15.19C6.79192 15.19 7.11939 15.3255 7.36538 15.5715C7.61137 15.8178 7.74716 16.1452 7.74716 16.4935ZM12.7734 21.5198C12.7734 21.8236 12.6702 22.1119 12.4804 22.3437C12.4526 22.3775 12.4232 22.41 12.392 22.4413L12.0074 22.8256C11.4993 23.3337 10.6726 23.3337 10.1641 22.8253C9.91815 22.5793 9.78268 22.2521 9.78268 21.9038C9.78268 21.5555 9.91815 21.2284 10.1641 20.9824L10.5488 20.5977C10.7948 20.3517 11.1219 20.2163 11.4702 20.2163C11.6442 20.2163 11.8128 20.2501 11.9692 20.3148C12.0326 20.341 12.0942 20.3723 12.1529 20.4089C12.2385 20.4616 12.3187 20.5248 12.3917 20.5977C12.6377 20.8441 12.7734 21.1715 12.7734 21.5198ZM5.23386 13.9802C5.23386 14.3285 5.09839 14.6557 4.85271 14.9017L4.4684 15.286C4.22209 15.5323 3.89463 15.6678 3.54664 15.6678C3.19833 15.6678 2.87087 15.5323 2.62487 15.286C2.37888 15.04 2.24341 14.7125 2.24341 14.3645C2.24341 14.0162 2.37888 13.6888 2.62519 13.4428L3.00918 13.0585C3.10943 12.9579 3.22549 12.8745 3.35275 12.8115H3.35306C3.53291 12.7229 3.73076 12.6769 3.93126 12.677C4.06736 12.677 4.20346 12.6982 4.33388 12.7402C4.36356 12.7499 4.39261 12.7607 4.42167 12.7724C4.57861 12.8358 4.72545 12.9312 4.85271 13.0582C5.0987 13.3041 5.23417 13.6316 5.23386 13.9802Z" fill="#FEBF10"/>
</g>
</svg>
