<svg width="32" height="33" viewBox="0 0 32 33" fill="none" xmlns="http://www.w3.org/2000/svg">
<g id="Group">
<path id="Vector" d="M29.9032 8.37305C29.3767 8.37305 28.873 8.56919 28.4851 8.92535C28.0973 9.28153 27.859 9.76663 27.8142 10.2913L27.2035 17.4422C27.1097 17.4297 27.0152 17.4235 26.9206 17.4235C26.3532 17.4235 25.8198 17.6444 25.4186 18.0456L23.5701 19.8941C23.1384 20.3258 22.5644 20.5635 21.9539 20.5635H21.9389C21.4361 20.5635 20.9456 20.6611 20.4811 20.8535C20.0165 21.0459 19.6007 21.3238 19.2452 21.6793L16.3846 24.5399C16.2411 24.6833 16.1122 24.8408 15.9999 25.0099C15.8877 24.8408 15.7588 24.6833 15.6152 24.5399L12.7547 21.6793C12.3991 21.3238 11.9833 21.0459 11.5188 20.8535C11.0542 20.6611 10.5638 20.5635 10.0609 20.5635H10.046C9.43544 20.5635 8.86145 20.3258 8.42974 19.8941L6.58132 18.0456C6.18011 17.6444 5.64668 17.4235 5.07929 17.4235C4.98386 17.4235 4.88942 17.4299 4.79639 17.4422L4.18571 10.2913C4.14091 9.76664 3.90261 9.28153 3.51474 8.92535C3.12686 8.56919 2.62323 8.37305 2.09663 8.37305C0.940505 8.37305 -6.10352e-05 9.31361 -6.10352e-05 10.4697V22.8132C-6.10352e-05 23.2154 0.0779924 23.6078 0.231934 23.9794C0.385863 24.3511 0.608133 24.6837 0.892565 24.9681L6.81351 30.8891C7.00538 31.081 7.11105 31.3361 7.11105 31.6074V32.2461C7.11105 32.5266 7.33846 32.754 7.61899 32.754C7.89952 32.754 8.12693 32.5266 8.12693 32.2461V31.6074C8.12693 31.0647 7.91558 30.5545 7.53183 30.1707L1.61088 24.2498C1.22714 23.8661 1.0158 23.3559 1.0158 22.8132V10.4697C1.0158 9.87377 1.50065 9.38892 2.09663 9.38892C2.66242 9.38892 3.12538 9.81403 3.17353 10.3778L3.81106 17.8432C3.72838 17.905 3.65025 17.9726 3.57728 18.0456C2.74907 18.8739 2.74907 20.2215 3.57728 21.0497L8.02172 25.4941C8.22008 25.6925 8.54169 25.6925 8.74005 25.4941C8.93842 25.2958 8.93842 24.9742 8.74005 24.7758L4.29561 20.3314C3.86349 19.8992 3.86349 19.1961 4.29561 18.764C4.50494 18.5546 4.78325 18.4393 5.07929 18.4393C5.37534 18.4393 5.65365 18.5546 5.86298 18.764L7.71141 20.6124C8.01955 20.9205 8.37993 21.1613 8.78253 21.3281C9.18513 21.4949 9.61021 21.5794 10.046 21.5794H10.0609C10.8072 21.5794 11.5087 21.87 12.0363 22.3976L14.8969 25.2582C15.2807 25.6419 15.492 26.1522 15.492 26.6949V32.2461C15.492 32.5266 15.7194 32.754 15.9999 32.754C16.2805 32.754 16.5079 32.5266 16.5079 32.2461V26.6949C16.5079 26.1522 16.7192 25.6419 17.103 25.2582L19.9635 22.3976C20.4912 21.87 21.1927 21.5794 21.9389 21.5794H21.9539C22.3896 21.5794 22.8147 21.4948 23.2173 21.3281C23.6199 21.1613 23.9803 20.9205 24.2884 20.6124L26.1369 18.764C26.3462 18.5546 26.6245 18.4393 26.9206 18.4393C27.2166 18.4393 27.4949 18.5546 27.7043 18.764C28.1364 19.1961 28.1364 19.8992 27.7043 20.3314L23.2598 24.7758C23.0615 24.9741 23.0615 25.2958 23.2598 25.4941C23.4582 25.6925 23.7798 25.6925 23.9781 25.4941L28.4226 21.0497C29.2508 20.2215 29.2508 18.8739 28.4226 18.0456C28.3496 17.9726 28.2715 17.905 28.1888 17.8432L28.8263 10.3778C28.8745 9.81404 29.3374 9.38892 29.9032 9.38892C30.4992 9.38892 30.9841 9.87377 30.9841 10.4697V22.8132C30.9841 23.3559 30.7727 23.8661 30.389 24.2498L24.468 30.1707C24.0843 30.5545 23.8729 31.0647 23.8729 31.6074V32.2461C23.8729 32.5266 24.1004 32.754 24.3809 32.754C24.6614 32.754 24.8888 32.5266 24.8888 32.2461V31.6074C24.8888 31.336 24.9945 31.0809 25.1864 30.8891L31.1073 24.9681C31.3917 24.6837 31.614 24.3511 31.7679 23.9794C31.9219 23.6078 31.9999 23.2154 31.9999 22.8131V10.4697C31.9999 9.31361 31.0594 8.37305 29.9032 8.37305Z" fill="#28BD69"/>
<path id="Vector_2" d="M18.2857 12.9446C17.7016 12.9446 17.1341 13.1109 16.6444 13.4255C16.4049 13.5794 16.188 13.766 16 13.9799C15.812 13.766 15.5951 13.5794 15.3555 13.4255C14.8659 13.1109 14.2983 12.9446 13.7142 12.9446C12.9002 12.9446 12.1349 13.2616 11.5593 13.8372C10.9836 14.4128 10.6666 15.1781 10.6666 15.9922C10.6666 16.7879 10.9483 17.6212 11.5037 18.469C11.9281 19.1168 12.5152 19.7781 13.2486 20.4342C14.4797 21.5358 15.6944 22.2435 15.7455 22.2731C15.8242 22.3186 15.9121 22.3414 15.9999 22.3414C16.0878 22.3414 16.1757 22.3186 16.2544 22.2731C16.3056 22.2435 17.5202 21.5358 18.7513 20.4342C19.4847 19.7781 20.0718 19.1168 20.4963 18.469C21.0517 17.6212 21.3333 16.7879 21.3333 15.9922C21.3333 15.1781 21.0163 14.4128 20.4407 13.8372C19.865 13.2616 19.0997 12.9446 18.2857 12.9446ZM18.0866 19.6658C17.2537 20.413 16.4094 20.9784 15.9998 21.2377C15.5929 20.9803 14.7571 20.4208 13.9259 19.6772C12.9025 18.7614 11.6825 17.3788 11.6825 15.9922C11.6825 14.8719 12.5939 13.9605 13.7142 13.9605C14.4991 13.9605 15.1997 14.4016 15.5426 15.1116C15.5841 15.1976 15.649 15.2702 15.7299 15.321C15.8109 15.3718 15.9044 15.3987 16 15.3987C16.0955 15.3987 16.1891 15.3718 16.27 15.321C16.3509 15.2702 16.4158 15.1976 16.4574 15.1116C16.8002 14.4016 17.5008 13.9605 18.2857 13.9605C19.406 13.9605 20.3174 14.8719 20.3174 15.9922C20.3174 17.3745 19.1043 18.7529 18.0866 19.6658Z" fill="#28BD69"/>
<path id="Vector_3" d="M9.2712 16.5947C9.39416 16.5947 9.51745 16.5504 9.61505 16.4605C9.82147 16.2706 9.83478 15.9492 9.64481 15.7428C8.28969 14.2705 7.49577 12.3913 7.37983 10.4048H10.4203C10.4389 11.0326 10.4918 11.6544 10.5785 12.2594C10.6148 12.5126 10.832 12.6953 11.0806 12.6953C11.1046 12.6953 11.1289 12.6936 11.1533 12.6901C11.431 12.6503 11.6239 12.3929 11.5841 12.1153C11.5041 11.5576 11.4549 10.9842 11.4366 10.4048H15.492V11.9286C15.492 12.2092 15.7194 12.4366 15.9999 12.4366C16.2805 12.4366 16.5079 12.2092 16.5079 11.9286V10.4048H20.5633C20.5478 10.8986 20.5096 11.3885 20.4493 11.8668C20.4142 12.1452 20.6113 12.3992 20.8896 12.4344C21.1678 12.4695 21.422 12.2724 21.4572 11.994C21.5228 11.4739 21.5638 10.9413 21.5797 10.4048H24.62C24.5047 12.379 23.719 14.2491 22.3784 15.7174C22.1893 15.9245 22.2039 16.2458 22.411 16.435C22.6182 16.6241 22.9395 16.6095 23.1286 16.4024C24.755 14.6211 25.6507 12.3107 25.6507 9.89689C25.6507 8.59426 25.3955 7.33034 24.8921 6.1402C24.406 4.99094 23.7102 3.95889 22.8241 3.07275C21.9379 2.18661 20.9059 1.49081 19.7566 1.00471C18.5665 0.50132 17.3026 0.246094 15.9999 0.246094C14.6973 0.246094 13.4334 0.50132 12.2433 1.00471C11.094 1.49081 10.062 2.18661 9.17581 3.07275C8.28965 3.95889 7.59386 4.99094 7.10777 6.1402C6.60438 7.33034 6.34915 8.59426 6.34915 9.89689C6.34915 12.325 7.25411 14.6454 8.89734 16.4308C8.99747 16.5396 9.13412 16.5947 9.2712 16.5947ZM11.4365 9.38895C11.5038 7.22374 12.0004 5.21196 12.8523 3.67858C13.5913 2.34849 14.5138 1.52859 15.492 1.31687V9.38895H11.4365ZM16.5079 1.31687C17.4861 1.5286 18.4087 2.3485 19.1476 3.6786C19.9995 5.21197 20.4962 7.22375 20.5634 9.38897H16.5079V1.31687ZM24.6199 9.38895H21.5797C21.511 7.0518 20.9689 4.86511 20.0356 3.18523C19.7517 2.6741 19.4393 2.22388 19.1015 1.83802C22.1848 3.02869 24.4189 5.94033 24.6199 9.38895ZM12.8984 1.83802C12.5606 2.22388 12.2482 2.67412 11.9643 3.18523C11.031 4.86511 10.4889 7.0518 10.4202 9.38895H7.37996C7.58098 5.94033 9.81512 3.02869 12.8984 1.83802Z" fill="#28BD69"/>
</g>
</svg>
