<svg width="150" height="144" viewBox="0 0 150 144" fill="none" xmlns="http://www.w3.org/2000/svg">
<g id="Group">
<path id="Vector" d="M101.324 47.7021C92.1393 38.7458 81.0926 42.4182 75.0259 50.1757C68.9626 42.4314 57.9059 38.7458 48.7251 47.7054C45.7297 50.8659 42.6848 56.7542 45.1782 66.8598C50.0659 85.4758 72.5161 100.621 75.0292 101.011C77.9189 100.433 100.085 85.1984 104.874 66.8565C107.364 56.7509 104.319 50.8626 101.324 47.7021ZM100.065 65.6544C96.5415 79.9211 79.8641 92.2294 75.0259 95.545C70.1878 92.2426 53.5103 79.9244 49.9866 65.6577C48.4377 59.383 49.2468 54.3599 52.3214 51.1103C54.6097 48.7889 57.715 47.4544 60.9739 47.3917C67.6779 47.3917 72.9883 55.595 72.8298 55.704C73.695 57.4477 76.3436 57.4477 77.2155 55.704C77.2518 55.6347 80.9572 48.7953 87.8197 47.4908C90.1017 47.0549 94.6856 47.8904 97.7271 51.1004C100.769 54.3104 101.627 59.3863 100.065 65.6544Z" fill="#D6DFDD"/>
<path id="Vector_2" d="M44.6696 19.5089C46.4364 23.1152 48.2626 26.8437 49.6827 29.4857C52.5592 34.8192 57.1067 39.3931 57.2982 39.5946C57.7624 40.0597 58.3924 40.3213 59.0495 40.3219C59.7066 40.3225 60.337 40.0621 60.8021 39.5979C61.2672 39.1337 61.5289 38.5037 61.5295 37.8466C61.5301 37.1895 61.2696 36.559 60.8054 36.094C60.7625 36.0543 56.5816 31.8404 54.0453 27.1343C52.6681 24.5782 50.8617 20.8927 49.118 17.3293C47.4304 13.8947 45.8386 10.6418 44.5804 8.28053C43.6689 6.57316 43.9199 5.54279 44.194 5.40078C44.5507 5.20593 45.941 5.7013 47.2587 8.07908C49.719 12.5242 54.7487 19.3273 58.5366 24.2612C60.4933 26.8742 63.032 28.9954 65.9512 30.4564C68.8705 31.9174 72.09 32.6781 75.3545 32.6781C78.6189 32.6781 81.8385 31.9174 84.7577 30.4564C87.677 28.9954 90.2156 26.8742 92.1723 24.2612C95.9603 19.3405 100.99 12.5374 103.454 8.07908C104.775 5.698 106.162 5.20593 106.518 5.40078C106.779 5.54279 107.043 6.57316 106.132 8.28053C103.279 13.6437 99.6458 21.4904 96.6505 27.1773C94.2033 31.8668 89.9663 36.0477 89.9266 36.094C88.3315 37.6032 89.494 40.3872 91.6571 40.3409C92.3054 40.342 92.9281 40.0882 93.3909 39.6342C93.5858 39.4427 98.2225 34.8786 101.043 29.4758C104.015 23.8022 107.671 15.9522 110.501 10.6286C115.313 1.07124 104.375 -4.09383 99.1174 5.67488C96.8057 9.85251 91.9312 16.4376 88.249 21.2262C86.7565 23.2404 84.8129 24.8768 82.5739 26.0044C80.335 27.132 77.863 27.7193 75.3561 27.7193C72.8493 27.7193 70.3773 27.132 68.1383 26.0044C65.8994 24.8768 63.9558 23.2404 62.4633 21.2262C58.781 16.4376 53.9033 9.85251 51.5915 5.67819C48.6854 0.427256 44.4912 -0.404967 41.8261 1.05473C38.4048 2.91732 38.4246 7.27658 40.2112 10.6319C41.4265 12.904 43.0018 16.1173 44.6696 19.5089ZM8.68252 83.8741C14.1547 82.8999 24.0753 81.7044 29.564 80.6971C35.5812 79.6007 42.7277 75.5948 43.0282 75.4132C43.5842 75.0823 43.9887 74.547 44.1551 73.9217C44.3215 73.2965 44.2366 72.6309 43.9186 72.0674C43.6007 71.504 43.0748 71.0873 42.4535 70.9065C41.8323 70.7257 41.165 70.7952 40.5943 71.1002C40.5283 71.1365 33.8639 74.8683 28.6757 75.8128C23.2101 76.8035 13.2796 78.0122 7.81396 78.9865C5.90844 79.3167 5.01017 78.7586 4.95402 78.4647C4.88137 78.0618 5.77964 76.8927 8.45134 76.3775C13.4513 75.4198 21.4631 72.7382 27.3217 70.6576C30.4112 69.603 33.2124 67.843 35.5034 65.5173C37.7943 63.1916 39.5118 60.3641 40.5198 57.2591C41.5278 54.1541 41.7985 50.8569 41.3104 47.6291C40.8223 44.4012 39.5889 41.3315 37.7079 38.6633C34.1974 33.5411 29.2833 26.6555 25.819 22.9402C23.9631 20.9587 23.9234 19.4759 24.2173 19.1952C24.4353 18.9905 25.4954 19.0598 26.8362 20.4534C31.0535 24.8226 37.4041 30.7109 41.8724 35.3146C43.375 36.8469 45.0328 39.1884 46.6642 42.0879C46.9951 42.6439 47.5305 43.0484 48.1557 43.2148C48.781 43.3812 49.4465 43.2963 50.01 42.9784C50.5735 42.6604 50.9902 42.1345 51.1709 41.5133C51.3517 40.892 51.2822 40.2247 50.9773 39.654C47.1662 32.6032 42.8433 29.4164 37.5593 24.106C34.8513 21.464 32.2985 18.9938 30.3996 17.0222C26.932 13.4126 22.9459 13.5645 20.8059 15.6054C18.6031 17.6926 18.0979 21.9363 22.1929 26.3219C25.4525 29.8127 30.208 36.4836 33.6228 41.4671C35.0103 43.447 35.9435 45.7088 36.3556 48.0911C36.7678 50.4734 36.6488 52.9173 36.0072 55.2483C34.5607 60.2317 30.7232 64.1914 25.6539 65.9879C19.9638 68.0123 12.193 70.6114 7.50683 71.5229C1.61522 72.6787 -0.468636 76.3973 0.0861797 79.3795C0.769791 83.2467 5.14226 84.5412 8.68252 83.8741ZM13.9037 99.6335C19.3594 96.975 26.9221 92.7677 32.6783 89.9242C37.3744 87.5894 44.9635 86.7572 45.0361 86.7506C48.2825 86.2915 47.7937 81.5954 44.5176 81.8233C44.1874 81.8596 35.9741 82.7513 30.4722 85.489C24.7226 88.3225 17.16 92.5332 11.7406 95.1785C2.22288 100.089 8.04514 110.687 18.0516 105.859C22.3779 103.841 30.1915 101.377 35.9841 99.6698C38.3755 98.9026 40.914 98.7099 43.3939 99.1073C45.8737 99.5048 48.2249 100.481 50.2567 101.958C52.2885 103.434 53.9437 105.368 55.0879 107.604C56.2322 109.84 56.8333 112.313 56.8425 114.825C57.0076 120.865 57.0835 129.059 56.5122 133.794C55.1384 145.475 67.2981 146.43 68.6224 136.492C69.3853 130.99 71.3139 121.185 72.0537 115.65C72.876 109.544 71.2479 102.731 71.1785 102.441C71.1017 102.124 70.9635 101.827 70.7715 101.564C70.5796 101.301 70.3379 101.079 70.06 100.909C69.7822 100.74 69.4737 100.627 69.1523 100.577C68.8308 100.527 68.5026 100.541 68.1865 100.618C67.8703 100.694 67.5724 100.833 67.3096 101.025C67.0469 101.217 66.8246 101.458 66.6553 101.736C66.486 102.014 66.3731 102.322 66.3231 102.644C66.273 102.965 66.2867 103.294 66.3635 103.61C66.3635 103.669 67.843 109.789 67.1429 114.983C66.4031 120.492 64.4778 130.307 63.7149 135.805C63.4474 137.721 62.6218 138.398 62.3345 138.365C61.9316 138.312 61.0961 137.093 61.4296 134.402C62.0505 129.359 61.9778 120.898 61.8094 114.689C61.7788 111.418 60.9822 108.2 59.4833 105.293C57.9844 102.385 55.825 99.8692 53.1783 97.9469C50.5316 96.0246 47.4712 94.7492 44.2427 94.2232C41.0141 93.6971 37.7072 93.9349 34.5871 94.9176C28.6427 96.6745 20.5648 99.2108 15.9579 101.371C13.4942 102.52 12.0775 102.104 11.9024 101.737C11.7703 101.466 12.1666 100.479 13.9037 99.6335ZM141.485 104.452C143.159 100.935 140.583 97.4176 137.172 95.763C134.86 94.6336 131.683 92.9559 128.331 91.1825C124.784 89.3034 121.112 87.3582 118.424 86.0571C112.912 83.4151 104.775 82.4508 104.431 82.4243C103.785 82.3613 103.139 82.5548 102.634 82.9631C102.129 83.3714 101.804 83.9618 101.73 84.6071C101.656 85.2524 101.838 85.901 102.238 86.4131C102.638 86.9253 103.222 87.2599 103.866 87.345C103.942 87.345 111.521 88.2499 116.277 90.5352C121.287 92.9394 130.025 97.8006 135.022 100.231C136.759 101.077 137.155 102.064 137.026 102.335C136.851 102.702 135.435 103.121 132.971 101.968C128.367 99.8185 120.299 97.2722 114.342 95.5153C111.223 94.5497 107.921 94.3243 104.699 94.857C101.478 95.3897 98.4248 96.6658 95.7823 98.5842C93.1399 100.503 90.9809 103.01 89.4766 105.909C87.9723 108.807 87.1642 112.016 87.1162 115.281C86.9478 121.489 86.8751 129.95 87.496 134.993C87.8263 137.691 86.994 138.91 86.5911 138.956C86.284 138.999 85.4749 138.312 85.2107 136.397C84.3686 130.386 82.7041 121.895 81.7794 115.542C81.0166 110.413 82.539 104.283 82.5555 104.224C82.7171 103.587 82.6191 102.912 82.2832 102.348C81.9472 101.783 81.4007 101.375 80.7639 101.214C80.1272 101.052 79.4523 101.15 78.8878 101.486C78.3232 101.822 77.9153 102.369 77.7537 103.005C77.6811 103.293 75.9671 110.142 76.8786 116.268C77.7967 122.612 79.4644 131.106 80.3032 137.074C81.0463 141.961 84.0515 144.19 87.2384 143.864C90.247 143.467 93.1498 140.333 92.4167 134.376C91.8322 129.64 91.9048 121.446 92.0864 115.406C92.2318 110.046 94.8077 105.168 99.1009 102.242C101.12 100.913 103.408 100.046 105.801 99.7035C108.194 99.3609 110.634 99.5513 112.945 100.261C118.741 101.972 126.554 104.432 130.877 106.45C136.303 108.983 140.18 107.19 141.485 104.452ZM142.515 72.4674C137.829 71.5592 130.062 68.9569 124.368 66.9357C122.081 66.1489 119.997 64.8667 118.263 63.1809C116.529 61.4951 115.189 59.4472 114.339 57.1835C112.578 52.3025 113.371 46.8369 116.403 42.4116C119.817 37.4315 124.573 30.7572 127.829 27.2697C131.924 22.8808 131.419 18.6371 129.216 16.5499C126.389 13.8716 122.248 15.2289 119.619 17.9667C117.826 19.8392 115.253 22.3226 112.525 24.9613C106.66 30.81 103.024 33.4289 98.9853 40.7736C97.4761 43.6929 101.591 46.0014 103.298 43.2042C104.976 40.232 106.664 37.8211 108.179 36.2327C112.014 32.2135 119.345 25.4039 123.192 21.4013C124.533 20.0076 125.597 19.9383 125.811 20.1463C126.109 20.427 126.069 21.8999 124.213 23.888C120.745 27.6033 115.831 34.489 112.324 39.6111C110.426 42.2744 109.179 45.3454 108.682 48.5777C108.186 51.81 108.453 55.1137 109.464 58.224C110.474 61.3342 112.199 64.1644 114.501 66.4876C116.802 68.8109 119.616 70.5625 122.717 71.6021C128.569 73.6827 136.587 76.3643 141.581 77.3319C144.249 77.8504 145.151 79.0195 145.075 79.4191C145.022 79.713 144.12 80.281 142.218 79.9409C136.241 78.8874 127.651 77.8438 121.32 76.7606C116.148 75.892 109.524 72.1041 109.457 72.0645C109.176 71.9021 108.864 71.7968 108.542 71.7546C108.219 71.7124 107.892 71.7342 107.577 71.8187C107.263 71.9032 106.969 72.0487 106.711 72.247C106.453 72.4453 106.236 72.6924 106.074 72.9743C105.912 73.2562 105.806 73.5673 105.764 73.8899C105.722 74.2125 105.744 74.5403 105.828 74.8544C105.913 75.1686 106.058 75.4631 106.257 75.721C106.455 75.9789 106.702 76.1953 106.984 76.3577C107.284 76.5327 114.441 80.6278 120.498 81.6417C126.815 82.7249 135.408 83.7651 141.346 84.812C151.372 86.6284 153.853 74.5975 142.515 72.4674Z" fill="#D6DFDD"/>
<path id="Vector_3" d="M75.3567 26.1139C82.2126 26.2889 88.0679 18.4555 87.9061 11.8307C87.6452 -3.94522 63.0385 -3.94191 62.7809 11.8307C62.6587 18.4654 68.4974 26.3054 75.3567 26.1139ZM75.3567 4.90871C79.7655 4.90871 82.9524 7.82149 82.9524 11.8439C82.9524 16.0446 79.4418 21.1734 75.3567 21.1734C71.2715 21.1734 67.761 16.0446 67.761 11.8439C67.7478 7.8347 70.9479 4.92192 75.3567 4.92192V4.90871ZM42.1041 126.753C49.7427 126.859 54.7526 119.445 54.277 112.137C53.5108 98.7154 38.1345 97.9129 31.1597 107.153C25.0369 115.333 32.1967 126.74 42.1041 126.753ZM35.1689 110.066C37.6391 106.668 43.4944 104.584 46.8101 106.991C50.4957 109.878 49.6701 116.004 47.4706 119.009C46.9407 119.772 46.2535 120.412 45.4554 120.886C44.6573 121.361 43.7668 121.659 42.8438 121.76C36.7277 122.368 31.2621 115.281 35.1788 110.066H35.1689ZM106.819 127.348C109.611 127.318 112.321 126.401 114.557 124.729C124.256 117.543 120.059 104.858 109.293 102.074C96.2911 98.6527 90.7759 113.028 97.404 122.506C98.4707 124.009 99.8828 125.233 101.521 126.075C103.16 126.918 104.977 127.354 106.819 127.348ZM99.5836 112.969C99.7917 108.078 103.292 105.535 108.008 106.846C110.286 107.448 112.3 108.789 113.735 110.657C119.118 118.117 106.852 127.028 101.42 119.6C100.089 117.655 99.4428 115.322 99.5836 112.969ZM125.336 40.156C118.992 42.0615 113.345 50.0634 115.634 56.5164C117.103 61.5659 123.305 64.8453 128.665 64.733C137.549 64.8618 143.289 56.8863 140.511 48.4353C138.543 41.9889 131.789 37.9433 125.336 40.156ZM132.238 45.3706C137.417 48.3659 137.932 57.3586 131.578 59.3401C128.041 60.4926 121.964 59.383 120.35 54.9874C118.645 49.3765 126.611 41.9657 132.238 45.3706ZM16.926 63.1016C23.2866 65.2944 32.4146 62.1108 34.3895 55.5653C36.6781 49.0991 31.0342 41.1071 24.6902 39.2049C9.60446 34.5847 2.00217 57.986 16.926 63.1016ZM14.2246 49.0132C16.8369 41.5001 24.7463 42.3422 28.5342 48.1876C31.239 52.2629 29.9048 56.3843 25.3176 58.095C18.8448 60.6148 11.8997 56.599 14.2246 49.0198V49.0132Z" fill="#D6DFDD"/>
</g>
</svg>
