<svg width="124" height="124" viewBox="0 0 124 124" fill="none" xmlns="http://www.w3.org/2000/svg">
<g id="Group">
<path id="Vector" d="M123.729 60.3523C123.456 59.685 122.991 59.1141 122.392 58.7123C121.793 58.3105 121.088 58.096 120.367 58.0961H76.5311C75.5672 58.0961 74.6437 58.4782 73.9627 59.1593L61.9998 71.1222L50.0369 59.1593C49.3556 58.4784 48.4317 58.0959 47.4685 58.0961H3.63245C2.91151 58.0961 2.20689 58.3107 1.60828 58.7125C1.00966 59.1143 0.544134 59.6851 0.270937 60.3523C-0.0022598 61.0194 -0.0707673 61.7528 0.0741343 62.459C0.219036 63.1653 0.570793 63.8124 1.08463 64.3181L14.7731 77.7823V120.338C14.7731 122.343 16.3994 123.971 18.4059 123.971H105.594C107.6 123.971 109.226 122.343 109.226 120.338V77.7823L122.915 64.3181C123.429 63.8125 123.781 63.1654 123.926 62.4592C124.071 61.7529 124.002 61.0196 123.729 60.3523ZM45.9643 65.3617L53.2299 72.6273H19.8932L12.5065 65.3617H45.9643ZM22.0388 79.8928H58.367V116.705H22.0388V79.8928ZM65.6326 116.705V79.8928H101.961V116.705H65.6326ZM104.107 72.6271H70.7704L78.036 65.3615H111.493L104.107 72.6271ZM52.1023 50.3591C54.4985 52.4008 56.9763 54.5124 59.6072 56.8151C60.2689 57.3957 61.1195 57.7151 61.9998 57.7136C62.853 57.7136 63.7072 57.4148 64.3924 56.8151C67.0233 54.5134 69.5011 52.4017 71.8973 50.3601C78.409 44.8106 84.0324 40.0189 87.9762 35.3294C92.5603 29.8782 94.6952 24.7363 94.6952 19.1471C94.6952 8.23074 86.8866 -0.00268555 76.5311 -0.00268555C70.8104 -0.00268555 65.852 2.63959 62.1928 7.63762C62.1274 7.72651 62.0632 7.81636 61.9998 7.90427C61.9363 7.81636 61.8722 7.72651 61.8068 7.63762C58.1473 2.63959 53.1892 -0.00268555 47.4685 -0.00268555C37.113 -0.00268555 29.3044 8.23074 29.3044 19.1481C29.3044 24.7363 31.4395 29.8782 36.0232 35.3294C39.9672 40.0182 45.5908 44.8106 52.1023 50.3591ZM47.4685 7.26296C55.561 7.26296 58.3791 16.502 58.5079 16.9391C58.7256 17.6972 59.184 18.3638 59.8139 18.8384C60.4439 19.313 61.2111 19.5698 61.9998 19.57C63.6249 19.57 65.0518 18.4906 65.4955 16.9277C65.5229 16.8313 68.3289 7.26296 76.5311 7.26296C82.8459 7.26296 87.4296 12.2617 87.4296 19.1481C87.4296 27.5784 79.8091 34.072 67.185 44.8305C65.506 46.2608 63.7879 47.7246 61.9998 49.2683C60.2117 47.7244 58.4929 46.2601 56.8145 44.8295C44.1905 34.071 36.57 27.5784 36.57 19.1471C36.57 12.2617 41.1537 7.26296 47.4685 7.26296Z" fill="#D6DFDD"/>
</g>
</svg>
