<svg width="136" height="136" viewBox="0 0 136 136" fill="none" xmlns="http://www.w3.org/2000/svg">
<g id="Group">
<g id="Layer 13">
<path id="Vector" d="M47.0285 4.1317C49.6592 5.53757 50.1055 7.84829 50.6075 11.5181C51.1095 15.1879 51.6801 19.1681 55.9987 21.476C60.3172 23.7839 64.0064 22.002 67.2582 20.4165C70.51 18.831 72.7573 17.8816 75.4032 19.2956C78.049 20.7096 78.4954 23.0203 78.9973 26.6901C79.4993 30.3599 80.0548 34.332 84.3733 36.6399C88.6919 38.9478 92.381 37.1659 95.6481 35.5885C98.9151 34.0111 101.147 33.0536 103.778 34.4595C106.408 35.8653 106.87 38.1842 107.387 41.8621C107.904 45.54 108.445 49.504 112.763 51.8119C117.082 54.1198 120.786 52.346 124.038 50.7605C127.29 49.175 129.537 48.2256 132.183 49.6396C132.586 49.8551 133.059 49.9016 133.496 49.7688C133.934 49.6361 134.301 49.3349 134.516 48.9316C134.732 48.5283 134.778 48.0559 134.645 47.6184C134.513 47.1808 134.211 46.8139 133.808 46.5984C129.49 44.2905 125.8 46.0723 122.533 47.6497C119.266 49.2271 117.034 50.1846 114.388 48.7706C111.743 47.3566 111.296 45.0459 110.794 41.3761C110.292 37.7063 109.737 33.7343 105.403 31.4182C101.069 29.1022 97.3954 30.8922 94.1436 32.4777C90.8917 34.0632 88.6445 35.0126 86.0138 33.6068C83.3832 32.2009 82.9368 29.8902 82.4349 26.2204C81.9329 22.5506 81.347 18.5623 77.0284 16.2544C72.7099 13.9465 69.0208 15.7283 65.7689 17.3138C62.5171 18.8993 60.2546 19.8406 57.624 18.4348C54.9933 17.0289 54.5318 14.71 54.0298 11.0402C53.5278 7.37045 52.9723 3.39837 48.6538 1.09047C48.2505 0.874947 47.7781 0.828456 47.3405 0.961226C46.903 1.094 46.5361 1.39515 46.3205 1.79845C46.105 2.20174 46.0585 2.67413 46.1913 3.1117C46.3241 3.54927 46.6252 3.91617 47.0285 4.1317ZM123.74 65.4388C119.421 63.1309 115.724 64.928 112.457 66.5053C109.19 68.0827 106.958 69.0402 104.312 67.6263C101.666 66.2123 101.228 63.8863 100.718 60.2317C100.207 56.5772 99.6682 52.5747 95.3345 50.2586C91.0007 47.9426 87.3187 49.7478 84.0831 51.3029C80.8475 52.858 78.584 53.8378 75.9381 52.4238C73.2923 51.0098 72.853 48.7224 72.3592 45.0374C71.8653 41.3524 71.2946 37.3722 66.9761 35.0643C62.6575 32.7564 58.944 34.5839 55.7084 36.139C52.4728 37.6941 50.1941 38.6658 47.5635 37.26C44.9328 35.8541 44.4794 33.52 43.9693 29.8654C43.4592 26.2108 42.9037 22.2388 38.5852 19.9309C38.1819 19.7154 37.7095 19.6689 37.2719 19.8016C36.8343 19.9344 36.4674 20.2356 36.2519 20.6388C36.0364 21.0421 35.9899 21.5145 36.1227 21.9521C36.2554 22.3897 36.5566 22.7566 36.9599 22.9721C39.5906 24.378 40.0288 26.7039 40.5389 30.3585C41.049 34.0131 41.6034 38.0237 45.9219 40.3316C50.2405 42.6395 53.9377 40.8424 57.1896 39.2569C60.4414 37.6714 62.6887 36.722 65.3345 38.136C67.9804 39.55 68.4186 41.8759 68.9287 45.5305C69.4388 49.1851 69.978 53.1876 74.2966 55.4955C78.6151 57.8034 82.3124 56.0063 85.5794 54.4289C88.8465 52.8516 91.0785 51.894 93.7092 53.2999C96.3399 54.7057 96.7933 57.0398 97.3186 60.7025C97.8439 64.3652 98.3679 68.3596 102.686 70.6675C107.005 72.9754 110.717 71.1864 113.969 69.6009C117.221 68.0154 119.468 67.066 122.114 68.48C122.518 68.6955 122.99 68.742 123.428 68.6092C123.865 68.4765 124.232 68.1753 124.448 67.772C124.663 67.3687 124.71 66.8963 124.577 66.4588C124.444 66.0212 124.143 65.6543 123.74 65.4388ZM113.663 84.2944C109.344 81.9865 105.655 83.7684 102.388 85.3457C99.121 86.9231 96.889 87.8806 94.2431 86.4667C91.5972 85.0527 91.1509 82.7419 90.6489 79.0721C90.147 75.4023 89.5915 71.4303 85.2577 69.1142C80.924 66.7982 77.2501 68.5882 73.9982 70.1737C70.7464 71.7592 68.4991 72.7086 65.8532 71.2946C63.2074 69.8807 62.7763 67.5781 62.2743 63.9083C61.7723 60.2385 61.2016 56.2583 56.8831 53.9504C52.5645 51.6425 48.8754 53.4243 45.6236 55.0098C42.3717 56.5953 40.1093 57.5366 37.4786 56.1308C34.8479 54.7249 34.3864 52.4061 33.8844 48.7363C33.3824 45.0665 32.827 41.0944 28.5084 38.7865C28.1051 38.571 27.6327 38.5245 27.1952 38.6572C26.7576 38.79 26.3907 39.0912 26.1752 39.4945C25.9596 39.8978 25.9132 40.3701 26.0459 40.8077C26.1787 41.2453 26.4798 41.6122 26.8831 41.8277C29.5138 43.2336 29.9601 45.5443 30.4621 49.2141C30.9641 52.8839 31.5348 56.8641 35.8533 59.172C40.1719 61.4799 43.861 59.698 47.1128 58.1125C50.3647 56.527 52.6119 55.5776 55.2578 56.9916C57.9037 58.4056 58.35 60.7163 58.852 64.3861C59.3539 68.0559 59.9094 72.028 64.228 74.3359C68.5465 76.6438 72.2356 74.8619 75.5027 73.2845C78.7697 71.7072 81.0018 70.7496 83.6324 72.1555C86.2631 73.5613 86.7246 75.8802 87.2418 79.5581C87.759 83.236 88.2993 87.2 92.6178 89.5079C96.9364 91.8158 100.641 90.042 103.893 88.4565C107.144 86.871 109.392 85.9216 112.038 87.3356C112.441 87.5511 112.913 87.5976 113.351 87.4649C113.788 87.3321 114.155 87.0309 114.371 86.6276C114.586 86.2243 114.633 85.752 114.5 85.3144C114.367 84.8768 114.066 84.5099 113.663 84.2944ZM103.594 103.135C99.2756 100.827 95.5784 102.624 92.3113 104.201C89.0443 105.779 86.8122 106.736 84.1664 105.322C81.5205 103.908 81.0823 101.582 80.5722 97.9278C80.0621 94.2732 79.5229 90.2707 75.1891 87.9547C70.8554 85.6386 67.1733 87.4438 63.9215 89.0293C60.6696 90.6148 58.4224 91.5643 55.7765 90.1503C53.1306 88.7363 52.7076 86.4185 52.1975 82.7639C51.6874 79.1093 51.133 75.0987 46.8145 72.7908C42.4959 70.4829 38.7987 72.28 35.5468 73.8655C32.295 75.451 30.0325 76.3922 27.4018 74.9864C24.7712 73.5805 24.3178 71.2465 23.8077 67.5919C23.2976 63.9373 22.7583 59.9348 18.4398 57.6269C18.0365 57.4114 17.5641 57.3649 17.1265 57.4976C16.689 57.6304 16.3221 57.9316 16.1065 58.3349C15.891 58.7382 15.8445 59.2105 15.9773 59.6481C16.1101 60.0857 16.4112 60.4526 16.8145 60.6681C19.4452 62.074 19.8834 64.3999 20.3935 68.0545C20.9036 71.7091 21.458 75.7197 25.7766 78.0276C30.0951 80.3355 33.7924 78.5384 37.028 76.9833C40.2635 75.4283 42.5271 74.4484 45.1729 75.8624C47.8188 77.2764 48.257 79.6023 48.7671 83.2569C49.2772 86.9115 49.8164 90.914 54.135 93.2219C58.4535 95.5298 62.1508 93.7327 65.4178 92.1553C68.6849 90.578 70.9169 89.6204 73.5476 91.0263C76.1782 92.4322 76.6316 94.7662 77.157 98.4289C77.6823 102.092 78.2063 106.086 82.5248 108.394C86.8434 110.702 90.5558 108.913 93.8077 107.327C97.0595 105.742 99.3068 104.792 101.953 106.206C102.356 106.422 102.828 106.468 103.266 106.336C103.703 106.203 104.07 105.902 104.286 105.498C104.501 105.095 104.548 104.623 104.415 104.185C104.282 103.748 103.981 103.381 103.578 103.165L103.594 103.135ZM93.5174 121.99C89.1989 119.682 85.5097 121.464 82.2427 123.042C78.9756 124.619 76.7436 125.577 74.0977 124.163C71.4519 122.749 71.0055 120.438 70.5036 116.768C70.0016 113.098 69.4461 109.126 65.1124 106.81C60.7786 104.494 57.1047 106.284 53.8528 107.87C50.601 109.455 48.3537 110.405 45.7231 108.999C43.0924 107.593 42.6461 105.282 42.1441 101.612C41.6421 97.9426 41.0715 93.9624 36.7529 91.6545C32.4344 89.3466 28.7452 91.1285 25.4934 92.714C22.2415 94.2995 19.9639 95.2326 17.3332 93.8268C14.7026 92.4209 14.241 90.1021 13.739 86.4323C13.2371 82.7625 12.6816 78.7904 8.36305 76.4825C7.95976 76.267 7.48737 76.2205 7.0498 76.3533C6.61223 76.486 6.24532 76.7872 6.02979 77.1905C5.81427 77.5938 5.76778 78.0662 5.90055 78.5037C6.03332 78.9413 6.33448 79.3082 6.73777 79.5237C9.36843 80.9296 9.81476 83.2403 10.3167 86.9101C10.8187 90.5799 11.3894 94.5601 15.7079 96.868C20.0265 99.1759 23.7156 97.394 26.9675 95.8085C30.2193 94.223 32.4666 93.2736 35.1124 94.6876C37.7583 96.1016 38.2046 98.4123 38.7066 102.082C39.2086 105.752 39.764 109.724 44.0978 112.04C48.4315 114.356 52.1055 112.566 55.3725 110.989C58.6396 109.411 60.8716 108.454 63.5023 109.86C66.1329 111.265 66.5945 113.584 67.1117 117.262C67.6288 120.94 68.1539 124.896 72.4724 127.204C76.791 129.512 80.4953 127.738 83.7472 126.153C86.999 124.567 89.2463 123.618 91.8921 125.032C92.2954 125.247 92.7678 125.294 93.2054 125.161C93.643 125.028 94.0099 124.727 94.2254 124.324C94.4409 123.92 94.4874 123.448 94.3546 123.01C94.2219 122.573 93.9207 122.206 93.5174 121.99Z" fill="#141F19"/>
</g>
</g>
</svg>
