<svg width="121" height="116" viewBox="0 0 121 116" fill="none" xmlns="http://www.w3.org/2000/svg">
<g id="Group">
<path id="Vector" d="M81.1019 38.8294C73.7546 31.6643 64.9172 34.6022 60.0638 40.8082C55.2132 34.6128 46.3678 31.6643 39.0231 38.832C36.6269 41.3604 34.191 46.0711 36.1857 54.1555C40.0958 69.0483 58.0559 81.1644 60.0665 81.4762C62.3782 81.0139 80.1112 68.8264 83.942 54.1529C85.9341 46.0684 83.4982 41.3578 81.1019 38.8294ZM80.0953 53.1912C77.2763 64.6045 63.9343 74.4512 60.0638 77.1037C56.1933 74.4617 42.8514 64.6072 40.0324 53.1938C38.7933 48.1741 39.4406 44.1556 41.9002 41.5559C43.7308 39.6988 46.2151 38.6312 48.8222 38.581C54.1854 38.581 58.4337 45.1437 58.3069 45.2309C58.9991 46.6259 61.118 46.6259 61.8155 45.2309C61.8445 45.1754 64.8088 39.7039 70.2989 38.6603C72.1245 38.3116 75.7915 38.98 78.2248 41.548C80.6581 44.116 81.345 48.1767 80.0953 53.1912Z" fill="#D6DFDD"/>
<path id="Vector_2" d="M35.7784 16.2742C37.1919 19.1593 38.6529 22.1421 39.7889 24.2557C42.0901 28.5225 45.7281 32.1816 45.8813 32.3428C46.2527 32.7148 46.7566 32.9241 47.2823 32.9246C47.808 32.9251 48.3124 32.7168 48.6845 32.3454C49.0565 31.974 49.2658 31.4701 49.2663 30.9444C49.2668 30.4187 49.0585 29.9143 48.6871 29.5423C48.6528 29.5106 45.308 26.1394 43.279 22.3746C42.1773 20.3297 40.7321 17.3812 39.3371 14.5305C37.9871 11.7829 36.7137 9.18053 35.7071 7.29152C34.9779 5.92562 35.1787 5.10132 35.398 4.98771C35.6833 4.83184 36.7956 5.22813 37.8497 7.13036C39.818 10.6865 43.8417 16.1289 46.8721 20.076C48.4374 22.1665 50.4683 23.8634 52.8037 25.0322C55.1391 26.201 57.7148 26.8096 60.3263 26.8096C62.9379 26.8096 65.5135 26.201 67.8489 25.0322C70.1843 23.8634 72.2153 22.1665 73.7806 20.076C76.811 16.1395 80.8347 10.697 82.8056 7.13036C83.8624 5.22549 84.972 4.83184 85.2574 4.98771C85.4661 5.10132 85.6774 5.92562 84.9482 7.29152C82.6656 11.5821 79.7594 17.8594 77.3631 22.4089C75.4054 26.1605 72.0158 29.5053 71.9841 29.5423C70.708 30.7496 71.638 32.9768 73.3685 32.9398C73.8871 32.9407 74.3852 32.7376 74.7555 32.3745C74.9114 32.2212 78.6207 28.57 80.877 24.2477C83.2547 19.7088 86.1794 13.4288 88.4436 9.16996C92.2929 1.52408 83.5427 -2.60797 79.3367 5.207C77.4873 8.5491 73.5877 13.8172 70.6419 17.6481C69.4479 19.2594 67.893 20.5686 66.1019 21.4706C64.3107 22.3727 62.3331 22.8426 60.3277 22.8426C58.3222 22.8426 56.3446 22.3727 54.5534 21.4706C52.7623 20.5686 51.2074 19.2594 50.0134 17.6481C47.0676 13.8172 43.1654 8.5491 41.316 5.20964C38.991 1.00889 35.6357 0.343116 33.5037 1.51087C30.7666 3.00095 30.7824 6.48836 32.2117 9.17261C33.184 10.9903 34.4442 13.5609 35.7784 16.2742ZM6.98877 67.7664C11.3665 66.987 19.303 66.0306 23.694 65.2248C28.5077 64.3477 34.2249 61.143 34.4653 60.9976C34.9101 60.7329 35.2337 60.3047 35.3668 59.8045C35.5 59.3043 35.4321 58.7718 35.1777 58.3211C34.9233 57.8703 34.5026 57.5369 34.0056 57.3923C33.5086 57.2477 32.9747 57.3033 32.5182 57.5472C32.4654 57.5763 27.1338 60.5617 22.9833 61.3173C18.6108 62.1099 10.6664 63.0769 6.29393 63.8563C4.76951 64.1205 4.05089 63.674 4.00597 63.4388C3.94785 63.1165 4.66647 62.1813 6.80383 61.7691C10.8038 61.0029 17.2132 58.8576 21.9001 57.1932C24.3717 56.3495 26.6127 54.9415 28.4454 53.0809C30.2782 51.2204 31.6522 48.9584 32.4586 46.4744C33.265 43.9904 33.4815 41.3526 33.0911 38.7703C32.7006 36.1881 31.7139 33.7323 30.2091 31.5977C27.4007 27.5 23.4694 21.9915 20.698 19.0193C19.2132 17.4341 19.1815 16.2478 19.4166 16.0233C19.591 15.8595 20.4391 15.9149 21.5117 17.0299C24.8855 20.5252 29.966 25.2358 33.5406 28.9188C34.7427 30.1446 36.069 32.0178 37.3742 34.3374C37.6389 34.7823 38.0671 35.1058 38.5673 35.2389C39.0675 35.3721 39.6 35.3042 40.0508 35.0498C40.5015 34.7954 40.8349 34.3747 40.9795 33.8777C41.1241 33.3807 41.0685 32.8468 40.8246 32.3903C37.7757 26.7497 34.3174 24.2002 30.0902 19.9519C27.9238 17.8383 25.8815 15.8621 24.3624 14.2848C21.5883 11.3972 18.3995 11.5187 16.6875 13.1514C14.9253 14.8212 14.521 18.2161 17.7971 21.7246C20.4047 24.5172 24.2092 29.854 26.941 33.8408C28.051 35.4247 28.7975 37.2342 29.1273 39.14C29.457 41.0458 29.3618 43.0009 28.8485 44.8657C27.6913 48.8525 24.6213 52.0202 20.5659 53.4574C16.0138 55.077 9.79719 57.1562 6.04822 57.8854C1.33493 58.8101 -0.332153 61.785 0.111699 64.1707C0.658588 67.2644 4.15657 68.3001 6.98877 67.7664ZM11.1657 80.3739C15.5303 78.2471 21.5804 74.8812 26.1854 72.6065C29.9423 70.7386 36.0135 70.0728 36.0717 70.0676C38.6687 69.7003 38.2777 65.9434 35.6569 66.1257C35.3927 66.1548 28.8221 66.8681 24.4205 69.0583C19.8209 71.3251 13.7707 74.6937 9.43524 76.8099C1.82106 80.7385 6.47886 89.2166 14.4841 85.354C17.945 83.7398 24.196 81.7689 28.83 80.403C30.7431 79.7892 32.774 79.635 34.7578 79.953C36.7417 80.271 38.6227 81.0521 40.2481 82.2331C41.8735 83.4141 43.1977 84.9617 44.1131 86.7502C45.0285 88.5387 45.5094 90.5178 45.5167 92.527C45.6488 97.3592 45.7096 103.914 45.2525 107.703C44.1535 117.047 53.8812 117.811 54.9407 109.861C55.551 105.459 57.0939 97.6155 57.6857 93.1875C58.3435 88.3025 57.041 82.8521 56.9856 82.6196C56.9241 82.3667 56.8135 82.1283 56.66 81.9181C56.5065 81.708 56.313 81.5301 56.0908 81.3947C55.8685 81.2592 55.6217 81.1689 55.3646 81.1289C55.1074 81.0888 54.8448 81.0998 54.5919 81.1612C54.339 81.2226 54.1006 81.3333 53.8905 81.4868C53.6803 81.6403 53.5024 81.8337 53.367 82.056C53.2316 82.2783 53.1413 82.525 53.1012 82.7822C53.0611 83.0394 53.0721 83.3019 53.1335 83.5549C53.1335 83.6024 54.3172 88.498 53.7571 92.6538C53.1653 97.0606 51.625 104.913 51.0147 109.311C50.8007 110.844 50.1402 111.385 49.9103 111.359C49.588 111.317 48.9196 110.342 49.1864 108.189C49.6831 104.154 49.625 97.3856 49.4903 92.4187C49.4658 89.8019 48.8285 87.2272 47.6294 84.9012C46.4303 82.5752 44.7028 80.5625 42.5854 79.0246C40.468 77.4868 38.0197 76.4665 35.4369 76.0456C32.854 75.6248 30.2085 75.815 27.7124 76.6012C22.9569 78.0067 16.4946 80.0357 12.809 81.7636C10.8381 82.683 9.70472 82.3501 9.56469 82.0569C9.45902 81.8402 9.77605 81.0503 11.1657 80.3739ZM113.231 84.2286C114.57 81.4148 112.509 78.6011 109.78 77.2775C107.931 76.374 105.389 75.0318 102.708 73.6131C99.8701 72.1098 96.9323 70.5537 94.7817 69.5127C90.3722 67.3992 83.8624 66.6277 83.5876 66.6066C83.0704 66.5562 82.5541 66.7109 82.15 67.0376C81.7458 67.3642 81.4861 67.8365 81.4269 68.3528C81.3676 68.869 81.5135 69.3879 81.8332 69.7976C82.1529 70.2073 82.6207 70.475 83.1358 70.5431C83.1966 70.5431 89.2599 71.267 93.0644 73.0953C97.0723 75.0186 104.063 78.9076 108.06 80.8521C109.45 81.5285 109.767 82.3184 109.664 82.535C109.524 82.8283 108.391 83.1638 106.42 82.2418C102.737 80.5219 96.2823 78.4849 91.5162 77.0794C89.0208 76.3069 86.3796 76.1265 83.8023 76.5527C81.2251 76.9788 78.7826 77.9998 76.6686 79.5344C74.5547 81.0691 72.8275 83.0753 71.624 85.3939C70.4206 87.7125 69.7741 90.2796 69.7357 92.8916C69.601 97.8585 69.5429 104.627 70.0396 108.662C70.3038 110.82 69.638 111.795 69.3157 111.832C69.07 111.866 68.4227 111.317 68.2113 109.784C67.5376 104.976 66.2061 98.1835 65.4663 93.1003C64.856 88.9973 66.074 84.0938 66.0872 84.0463C66.2164 83.5369 66.1381 82.997 65.8693 82.5453C65.6005 82.0937 65.1633 81.7674 64.6539 81.6381C64.1445 81.5088 63.6046 81.5872 63.153 81.856C62.7014 82.1248 62.375 82.562 62.2457 83.0714C62.1876 83.3012 60.8164 88.7807 61.5456 93.6816C62.2801 98.7568 63.6143 105.552 64.2853 110.326C64.8798 114.236 67.284 116.019 69.8335 115.758C72.2403 115.441 74.5626 112.934 73.9761 108.168C73.5085 104.379 73.5666 97.8242 73.7119 92.992C73.8282 88.7041 75.8889 84.8019 79.3235 82.4611C80.9389 81.3975 82.7692 80.7039 84.6838 80.4299C86.5983 80.1559 88.5498 80.3082 90.3986 80.8759C95.0353 82.2444 101.286 84.2127 104.745 85.827C109.085 87.8534 112.187 86.4188 113.231 84.2286ZM114.055 58.641C110.306 57.9145 104.092 55.8326 99.5372 54.2157C97.7079 53.5862 96.0402 52.5605 94.6532 51.2118C93.2662 49.8632 92.1941 48.2249 91.5136 46.4139C90.1054 42.5091 90.7395 38.1366 93.1648 34.5964C95.8966 30.6123 99.701 25.2728 102.306 22.4829C105.582 18.9717 105.178 15.5768 103.416 13.907C101.154 11.7644 97.8411 12.8502 95.7381 15.0404C94.3035 16.5384 92.2454 18.5252 90.0631 20.6362C85.371 25.3151 82.4621 27.4102 79.231 33.2859C78.0236 35.6214 81.3155 37.4682 82.6814 35.2304C84.0236 32.8527 85.3736 30.924 86.5863 29.6532C89.6536 26.4379 95.5188 20.9902 98.5967 17.7881C99.6693 16.6732 100.52 16.6177 100.692 16.7841C100.93 17.0087 100.898 18.187 99.4131 19.7775C96.639 22.7497 92.7077 28.2583 89.902 32.356C88.3839 34.4866 87.3861 36.9434 86.9887 39.5293C86.5914 42.1151 86.8055 44.7581 87.6138 47.2463C88.4221 49.7345 89.8022 51.9986 91.6434 53.8572C93.4847 55.7158 95.7358 57.1171 98.2163 57.9488C102.898 59.6133 109.313 61.7585 113.307 62.5326C115.442 62.9474 116.163 63.8827 116.102 64.2024C116.06 64.4375 115.339 64.8919 113.817 64.6198C109.035 63.777 102.163 62.9421 97.0987 62.0756C92.9614 61.3807 87.6616 58.3504 87.6087 58.3187C87.3832 58.1887 87.1343 58.1045 86.8762 58.0708C86.6182 58.037 86.356 58.0544 86.1046 58.122C85.8533 58.1896 85.6177 58.3061 85.4114 58.4647C85.205 58.6233 85.0319 58.821 84.902 59.0465C84.7721 59.2721 84.6878 59.521 84.6541 59.779C84.6204 60.0371 84.6378 60.2993 84.7054 60.5506C84.773 60.802 84.8894 61.0376 85.048 61.2439C85.2066 61.4502 85.4044 61.6233 85.6299 61.7533C85.8703 61.8933 91.5955 65.1693 96.4408 65.9804C101.495 66.847 108.369 67.6792 113.12 68.5167C121.141 69.9698 123.125 60.3451 114.055 58.641Z" fill="#D6DFDD"/>
<path id="Vector_3" d="M60.3282 21.5586C65.8129 21.6986 70.4972 15.4318 70.3677 10.132C70.159 -2.48869 50.4736 -2.48605 50.2675 10.132C50.1698 15.4398 54.8408 21.7118 60.3282 21.5586ZM60.3282 4.59445C63.8552 4.59445 66.4047 6.92467 66.4047 10.1426C66.4047 13.5032 63.5963 17.6062 60.3282 17.6062C57.06 17.6062 54.2516 13.5032 54.2516 10.1426C54.2411 6.93524 56.8011 4.60502 60.3282 4.60502V4.59445ZM33.7261 102.07C39.837 102.155 43.8449 96.2235 43.4644 90.3768C42.8515 79.6398 30.5504 78.9978 24.9706 86.3901C20.0724 92.9343 25.8002 102.06 33.7261 102.07ZM28.1779 88.7203C30.1541 86.0017 34.8384 84.3346 37.4909 86.2606C40.4394 88.5697 39.7789 93.4706 38.0193 95.8748C37.5954 96.4847 37.0456 96.9968 36.4072 97.3764C35.7687 97.756 35.0563 97.9944 34.3179 98.0756C29.425 98.5617 25.0525 92.892 28.1859 88.7203H28.1779ZM85.4983 102.546C87.7317 102.522 89.8995 101.788 91.6885 100.451C99.4479 94.7018 96.09 84.5539 87.4771 82.3267C77.0757 79.5896 72.6636 91.0902 77.966 98.6726C78.8194 99.8745 79.9491 100.854 81.2599 101.528C82.5707 102.202 84.0243 102.551 85.4983 102.546ZM79.7097 91.0426C79.8762 87.1298 82.6767 85.0955 86.4494 86.1444C88.2716 86.6262 89.8827 87.6984 91.0306 89.1932C95.337 95.1615 85.5247 102.29 81.1787 96.3477C80.1139 94.7913 79.5971 92.925 79.7097 91.0426ZM100.312 32.7923C95.2366 34.3167 90.7189 40.7182 92.5497 45.8806C93.7254 49.9202 98.6871 52.5437 102.975 52.4539C110.082 52.5569 114.674 46.1765 112.452 39.4157C110.877 34.2586 105.474 31.0222 100.312 32.7923ZM105.834 36.964C109.976 39.3602 110.388 46.5543 105.305 48.1395C102.476 49.0616 97.6144 48.1739 96.3225 44.6574C94.9592 40.1687 101.332 34.2401 105.834 36.964ZM13.5837 51.1487C18.6721 52.903 25.9745 50.3561 27.5544 45.1197C29.3853 39.9468 24.8702 33.5532 19.7949 32.0314C7.72639 28.3353 1.64455 47.0563 13.5837 51.1487ZM11.4225 39.8781C13.5123 33.8676 19.8399 34.5413 22.8702 39.2176C25.034 42.4778 23.9666 45.775 20.2969 47.1435C15.1186 49.1593 9.56256 45.9467 11.4225 39.8834V39.8781Z" fill="#D6DFDD"/>
</g>
</svg>
