<svg width="142" height="143" viewBox="0 0 142 143" fill="none" xmlns="http://www.w3.org/2000/svg">
<path id="Vector 1" d="M142 139.102L135.231 133.699L133.937 142.262L142 139.102ZM1 1L0.251852 1.05267C0.296876 1.69219 0.349485 2.34278 0.409858 3.00398L1.15675 2.93578L1.90364 2.86758C1.8442 2.21653 1.79243 1.57629 1.74815 0.947329L1 1ZM1.59266 6.86212L0.84892 6.95883C1.01531 8.23845 1.20877 9.55067 1.43042 10.8927L2.17039 10.7705L2.91037 10.6483C2.69147 9.32287 2.50053 8.02766 2.3364 6.76541L1.59266 6.86212ZM2.87699 14.6598L2.14126 14.8054C2.39363 16.0807 2.67041 17.3787 2.97243 18.6973L3.7035 18.5298L4.43457 18.3624C4.13584 17.0582 3.86218 15.7748 3.61272 14.5142L2.87699 14.6598ZM4.64359 22.3801L3.91757 22.5683C4.2432 23.8247 4.5912 25.0971 4.96226 26.3838L5.68289 26.176L6.40352 25.9681C6.03623 24.6945 5.69181 23.4352 5.3696 22.192L4.64359 22.3801ZM6.82527 29.9482L6.11039 30.175C6.50559 31.4206 6.92214 32.6776 7.36064 33.9445L8.06939 33.6992L8.77814 33.4539C8.34391 32.1993 7.93144 30.9546 7.54015 29.7214L6.82527 29.9482ZM9.41357 37.4273L8.71135 37.6907C9.16984 38.9131 9.64871 40.1432 10.1485 41.3799L10.8438 41.0989L11.5392 40.8179C11.0442 39.593 10.5699 38.3746 10.1158 37.1639L9.41357 37.4273ZM12.367 44.7361L11.6789 45.0344C12.2012 46.2393 12.7435 47.449 13.3061 48.6626L13.9865 48.3472L14.667 48.0317C14.1096 46.8296 13.5725 45.6312 13.0551 44.4378L12.367 44.7361ZM15.6927 51.9102L15.0203 52.2425C15.6003 53.416 16.1996 54.5921 16.8185 55.7697L17.4824 55.4207L18.1463 55.0718C17.5332 53.9053 16.9396 52.7404 16.365 51.5779L15.6927 51.9102ZM19.367 58.8999L18.712 59.2654C19.3518 60.4119 20.0104 61.5589 20.6884 62.7056L21.334 62.3238L21.9796 61.9421C21.308 60.8064 20.6556 59.6702 20.0219 58.5345L19.367 58.8999ZM23.383 65.6921L22.7472 66.0899C23.4461 67.2069 24.1637 68.3227 24.9004 69.4365L25.5259 69.0227L26.1514 68.6089C25.4218 67.5058 24.711 66.4007 24.0188 65.2943L23.383 65.6921ZM27.7412 72.2814L27.1263 72.7109C27.8789 73.7884 28.6499 74.8632 29.4395 75.9344L30.0433 75.4894L30.647 75.0444C29.865 73.9835 29.1014 72.9191 28.356 71.8519L27.7412 72.2814ZM32.4326 78.6454L31.8405 79.1057C32.6452 80.1407 33.4679 81.1717 34.3088 82.1979L34.8889 81.7225L35.469 81.2471C34.6363 80.2309 33.8216 79.21 33.0247 78.185L32.4326 78.6454ZM37.4377 84.7518L36.8701 85.2421C37.7281 86.2354 38.6038 87.2235 39.4975 88.2056L40.0522 87.7009L40.6069 87.1961C39.722 86.2236 38.8549 85.2452 38.0053 84.2616L37.4377 84.7518ZM42.7483 90.5874L42.2069 91.1064C43.1181 92.0569 44.0468 93.001 44.9933 93.9382L45.521 93.4052L46.0487 92.8723C45.1115 91.9443 44.1919 91.0095 43.2897 90.0684L42.7483 90.5874ZM48.3574 96.1413L47.8438 96.6878C48.8058 97.5919 49.7851 98.4887 50.782 99.3777L51.2811 98.8179L51.7803 98.2581C50.7932 97.378 49.8235 96.49 48.871 95.5948L48.3574 96.1413ZM54.2499 101.397L53.7655 101.969C54.7732 102.822 55.798 103.667 56.8399 104.503L57.3092 103.918L57.7786 103.333C56.7469 102.505 55.7322 101.668 54.7344 100.824L54.2499 101.397ZM60.4089 106.339L59.9548 106.936C61.004 107.734 62.0699 108.524 63.1525 109.304L63.591 108.695L64.0294 108.087C62.9574 107.314 61.9019 106.533 60.8629 105.742L60.4089 106.339ZM66.8154 110.957L66.3926 111.576C67.4804 112.319 68.5843 113.052 69.7045 113.775L70.1113 113.145L70.5181 112.515C69.4087 111.798 68.3154 111.072 67.2382 110.337L66.8154 110.957ZM73.4493 115.241L73.0585 115.881C74.1818 116.567 75.3208 117.243 76.4756 117.908L76.8502 117.259L77.2248 116.609C76.0809 115.949 74.9527 115.28 73.8401 114.601L73.4493 115.241ZM80.2894 119.185L79.931 119.844C81.0869 120.473 82.2581 121.092 83.4446 121.7L83.7868 121.033L84.129 120.366C82.9534 119.763 81.7931 119.15 80.6479 118.527L80.2894 119.185ZM87.3143 122.788L86.9883 123.464C88.1743 124.036 89.3751 124.598 90.5907 125.15L90.9005 124.467L91.2103 123.784C90.0055 123.237 88.8156 122.68 87.6403 122.113L87.3143 122.788ZM94.5029 126.05L94.2091 126.74C95.423 127.257 96.6513 127.763 97.8939 128.258L98.1717 127.562L98.4494 126.865C97.2174 126.374 95.9999 125.872 94.7967 125.36L94.5029 126.05ZM101.835 128.974L101.573 129.677C102.813 130.139 104.067 130.591 105.335 131.032L105.582 130.323L105.828 129.615C104.57 129.178 103.327 128.73 102.097 128.272L101.835 128.974ZM109.292 131.568L109.062 132.281C110.317 132.687 111.585 133.082 112.867 133.467L113.082 132.748L113.298 132.03C112.026 131.649 110.768 131.257 109.523 130.854L109.292 131.568ZM116.859 133.838L116.658 134.56C117.924 134.911 119.202 135.252 120.493 135.582L120.679 134.855L120.864 134.128C119.583 133.801 118.315 133.463 117.059 133.115L116.859 133.838ZM124.521 135.795L124.35 136.525C125.621 136.823 126.905 137.11 128.201 137.387L128.358 136.654L128.514 135.92C127.228 135.645 125.954 135.36 124.692 135.065L124.521 135.795ZM132.267 137.45L132.125 138.186C133.398 138.433 134.683 138.669 135.98 138.895L136.109 138.157L136.238 137.418C134.95 137.193 133.674 136.958 132.41 136.713L132.267 137.45Z" fill="#F3FBF7"/>
</svg>
