<svg width="142" height="143" viewBox="0 0 142 143" fill="none" xmlns="http://www.w3.org/2000/svg">
<path id="Vector 2" d="M0 139.102L6.76865 133.699L8.06291 142.262L0 139.102ZM141 1L141.748 1.05267C141.703 1.69219 141.651 2.34278 141.59 3.00398L140.843 2.93578L140.096 2.86758C140.156 2.21653 140.208 1.57629 140.252 0.947329L141 1ZM140.407 6.86212L141.151 6.95883C140.985 8.23845 140.791 9.55067 140.57 10.8927L139.83 10.7705L139.09 10.6483C139.309 9.32287 139.499 8.02766 139.664 6.76541L140.407 6.86212ZM139.123 14.6598L139.859 14.8054C139.606 16.0807 139.33 17.3787 139.028 18.6973L138.297 18.5298L137.565 18.3624C137.864 17.0582 138.138 15.7748 138.387 14.5142L139.123 14.6598ZM137.356 22.3801L138.082 22.5683C137.757 23.8247 137.409 25.0971 137.038 26.3838L136.317 26.176L135.596 25.9681C135.964 24.6945 136.308 23.4352 136.63 22.192L137.356 22.3801ZM135.175 29.9482L135.89 30.175C135.494 31.4206 135.078 32.6776 134.639 33.9445L133.931 33.6992L133.222 33.4539C133.656 32.1993 134.069 30.9546 134.46 29.7214L135.175 29.9482ZM132.586 37.4273L133.289 37.6907C132.83 38.9131 132.351 40.1432 131.852 41.3799L131.156 41.0989L130.461 40.8179C130.956 39.593 131.43 38.3746 131.884 37.1639L132.586 37.4273ZM129.633 44.7361L130.321 45.0344C129.799 46.2393 129.257 47.449 128.694 48.6626L128.013 48.3472L127.333 48.0317C127.89 46.8296 128.428 45.6312 128.945 44.4378L129.633 44.7361ZM126.307 51.9102L126.98 52.2425C126.4 53.416 125.8 54.5921 125.181 55.7697L124.518 55.4207L123.854 55.0718C124.467 53.9053 125.06 52.7404 125.635 51.5779L126.307 51.9102ZM122.633 58.8999L123.288 59.2654C122.648 60.4119 121.99 61.5589 121.312 62.7056L120.666 62.3238L120.02 61.9421C120.692 60.8064 121.344 59.6702 121.978 58.5345L122.633 58.8999ZM118.617 65.6921L119.253 66.0899C118.554 67.2069 117.836 68.3227 117.1 69.4365L116.474 69.0227L115.849 68.6089C116.578 67.5058 117.289 66.4007 117.981 65.2943L118.617 65.6921ZM114.259 72.2814L114.874 72.7109C114.121 73.7884 113.35 74.8632 112.56 75.9344L111.957 75.4894L111.353 75.0444C112.135 73.9835 112.899 72.9191 113.644 71.8519L114.259 72.2814ZM109.567 78.6454L110.16 79.1057C109.355 80.1407 108.532 81.1717 107.691 82.1979L107.111 81.7225L106.531 81.2471C107.364 80.2309 108.178 79.21 108.975 78.185L109.567 78.6454ZM104.562 84.7518L105.13 85.2421C104.272 86.2354 103.396 87.2235 102.502 88.2056L101.948 87.7009L101.393 87.1961C102.278 86.2236 103.145 85.2452 103.995 84.2616L104.562 84.7518ZM99.2517 90.5874L99.7931 91.1064C98.8819 92.0569 97.9532 93.001 97.0067 93.9382L96.479 93.4052L95.9513 92.8723C96.8885 91.9443 97.8081 91.0095 98.7103 90.0684L99.2517 90.5874ZM93.6426 96.1413L94.1562 96.6878C93.1942 97.5919 92.2149 98.4887 91.218 99.3777L90.7189 98.8179L90.2197 98.2581C91.2068 97.378 92.1765 96.49 93.129 95.5948L93.6426 96.1413ZM87.7501 101.397L88.2345 101.969C87.2268 102.822 86.202 103.667 85.1601 104.503L84.6908 103.918L84.2214 103.333C85.2531 102.505 86.2678 101.668 87.2656 100.824L87.7501 101.397ZM81.5911 106.339L82.0452 106.936C80.996 107.734 79.9301 108.524 78.8475 109.304L78.409 108.695L77.9706 108.087C79.0426 107.314 80.0981 106.533 81.1371 105.742L81.5911 106.339ZM75.1846 110.957L75.6074 111.576C74.5196 112.319 73.4157 113.052 72.2955 113.775L71.8887 113.145L71.4819 112.515C72.5913 111.798 73.6846 111.072 74.7618 110.337L75.1846 110.957ZM68.5507 115.241L68.9415 115.881C67.8182 116.567 66.6792 117.243 65.5244 117.908L65.1498 117.259L64.7752 116.609C65.9191 115.949 67.0473 115.28 68.1599 114.601L68.5507 115.241ZM61.7106 119.185L62.069 119.844C60.9131 120.473 59.7419 121.092 58.5554 121.7L58.2132 121.033L57.871 120.366C59.0466 119.763 60.2069 119.15 61.3521 118.527L61.7106 119.185ZM54.6857 122.788L55.0117 123.464C53.8257 124.036 52.6249 124.598 51.4093 125.15L51.0995 124.467L50.7897 123.784C51.9945 123.237 53.1844 122.68 54.3597 122.113L54.6857 122.788ZM47.4971 126.05L47.7909 126.74C46.577 127.257 45.3487 127.763 44.1061 128.258L43.8283 127.562L43.5506 126.865C44.7826 126.374 46.0001 125.872 47.2033 125.36L47.4971 126.05ZM40.165 128.974L40.4269 129.677C39.1867 130.139 37.9327 130.591 36.6646 131.032L36.4184 130.323L36.1723 129.615C37.4298 129.178 38.6733 128.73 39.903 128.272L40.165 128.974ZM32.7076 131.568L32.9384 132.281C31.6832 132.687 30.4148 133.082 29.1329 133.467L28.9175 132.748L28.7021 132.03C29.9737 131.649 31.2319 131.257 32.4769 130.854L32.7076 131.568ZM25.1413 133.838L25.3417 134.56C24.076 134.911 22.7977 135.252 21.5067 135.582L21.3212 134.855L21.1356 134.128C22.4167 133.801 23.6851 133.463 24.9409 133.115L25.1413 133.838ZM17.4794 135.795L17.6504 136.525C16.3787 136.823 15.0949 137.11 13.7991 137.387L13.6424 136.654L13.4857 135.92C14.772 135.645 16.0462 135.36 17.3084 135.065L17.4794 135.795ZM9.73288 137.45L9.87543 138.186C8.60172 138.433 7.31668 138.669 6.02023 138.895L5.89128 138.157L5.76233 137.418C7.04974 137.193 8.32571 136.958 9.59033 136.713L9.73288 137.45Z" fill="#F3FBF7"/>
</svg>
