<svg width="100" height="67" viewBox="0 0 100 67" fill="none" xmlns="http://www.w3.org/2000/svg">
<g id="Group">
<path id="Vector" d="M0.15258 35.7814C3.92348 51.3307 26.4988 58.1956 40.2166 61.887C53.2297 65.0499 66.5697 66.6711 79.9616 66.7173C86.6278 66.6957 93.2961 66.3571 99.8666 65.3502C100.05 65.3403 100.045 65.0315 99.8466 65.0479C70.579 66.0684 39.3699 62.7477 13.5543 48.0338C-15.1629 29.533 19.4912 11.593 37.4984 4.53923C35.074 8.06181 29.6106 16.0856 27.2453 19.5315C27.4947 19.4071 22.5124 25.9424 23.6229 25.4298C27.9008 21.5162 31.6774 17.0668 35.2585 12.5276C36.6327 10.7897 38.0902 8.82256 39.3917 7.02488C40.2904 5.46496 42.1248 4.13695 41.8266 2.15746C40.7866 -2.11074 34.6707 1.23692 31.7437 1.43687C30.1624 1.80397 28.1846 2.28703 26.6143 2.69687C21.4802 4.08361 16.3161 5.63857 11.4424 7.80507C11.4112 7.82144 11.3868 7.84828 11.3735 7.88087C11.3601 7.91347 11.3587 7.94971 11.3695 7.98325C11.3802 8.01678 11.4025 8.04544 11.4323 8.0642C11.4621 8.08295 11.4976 8.09059 11.5324 8.08578L18.4549 6.8435C22.7883 6.02467 34.0134 3.94585 38.4807 3.10283L37.9542 3.87243C24.5031 8.36563 -2.25835 17.9994 0.15258 35.7814Z" fill="#28BD69"/>
</g>
</svg>
