<svg width="120" height="44" viewBox="0 0 120 44" fill="none" xmlns="http://www.w3.org/2000/svg">
<path id="Vector" d="M7.26761 19.2203L8.21408 18.2739C8.12394 18.995 7.75775 19.9189 7.11549 21.0457C6.47324 22.1724 5.85915 23.1189 5.27324 23.8851L2.83944 27.0288L0.946479 29.3612L0 30.3077C0.180282 28.0767 0.698591 25.7274 1.55493 23.2598C2.41127 20.7922 3.49296 18.4203 4.8 16.1443C6.10704 13.8682 7.50422 11.7161 8.99155 9.68793C10.4789 7.65977 12.0338 5.76681 13.6563 4.00906L14.6028 3.06258C14.693 3.01751 14.8 2.94991 14.9239 2.85977C15.0479 2.76963 15.1549 2.67949 15.2451 2.58934C15.3352 2.4992 15.4366 2.42033 15.5493 2.35272C15.662 2.28512 15.7521 2.25132 15.8197 2.25132C15.8873 2.25132 15.9549 2.29639 16.0225 2.38653C16.1577 2.65695 16.2366 2.99498 16.2592 3.40061C16.2817 3.80625 16.2535 4.21188 16.1746 4.61751C16.0958 5.02315 15.9831 5.47385 15.8366 5.96963C15.6901 6.4654 15.5493 6.8823 15.4141 7.22033L14.9408 8.36963C14.7831 8.79779 14.6817 9.09075 14.6366 9.2485C13.6225 12.1555 12.6535 15.2654 11.7296 18.5781C13.6676 14.0485 15.6845 10.2175 17.7803 7.08512C18.0507 6.65695 18.3662 6.24005 18.7268 5.83441L19.9099 4.4485C20.3606 3.93019 20.6986 3.52455 20.9239 3.2316L21.8704 2.28512C22.0732 2.14991 22.3493 1.94146 22.6986 1.65977C23.0479 1.37808 23.3746 1.13019 23.6789 0.916105C23.9831 0.70202 24.2817 0.53864 24.5746 0.425964C24.9352 0.268217 25.2676 0.18371 25.5718 0.172443C25.8761 0.161175 26.1352 0.223147 26.3493 0.358358C26.5634 0.49357 26.7493 0.651316 26.907 0.831597C27.0648 1.01188 27.1944 1.25977 27.2958 1.57526C27.3972 1.89075 27.4817 2.18934 27.5493 2.47103C27.6169 2.75272 27.662 3.10202 27.6845 3.51892C27.707 3.93582 27.7183 4.28512 27.7183 4.56681C27.7183 4.8485 27.707 5.19216 27.6845 5.59779L27.6507 6.47667C27.6282 6.67948 27.6056 6.92737 27.5831 7.22033C27.5606 7.35554 27.5493 7.44568 27.5493 7.49075C27.3014 10.4879 26.8507 13.3612 26.1972 16.1105C25.5437 18.8598 24.5465 21.6372 23.2056 24.4429C21.8648 27.2485 20.2479 29.6316 18.3549 31.5922L17.4084 32.5386C17.3183 32.5612 17.1887 32.6175 17.0197 32.7077C16.8507 32.7978 16.7268 32.8541 16.6479 32.8767C16.569 32.8992 16.4732 32.8767 16.3606 32.8091C16.0451 32.4485 15.8648 31.8964 15.8197 31.1527C15.7746 30.4091 15.8423 29.626 16.0225 28.8034C16.2028 27.9809 16.3606 27.3217 16.4958 26.826C16.631 26.3302 16.7549 25.9471 16.8676 25.6767C17.3408 24.3922 17.7746 23.3161 18.169 22.4485C18.5634 21.5809 19.0423 20.7246 19.6056 19.8795C20.169 19.0344 20.6141 18.4034 20.9408 17.9865C21.2676 17.5696 21.9042 16.8091 22.8507 15.7048L25.1155 13.0344L26.062 12.0879C25.5211 12.764 24.7718 13.6541 23.8141 14.7584C22.8563 15.8626 22.2141 16.6231 21.8873 17.04C21.5606 17.4569 21.1155 18.0879 20.5521 18.933C19.9887 19.7781 19.5099 20.6344 19.1155 21.502C18.7211 22.3696 18.2873 23.4457 17.8141 24.7302C17.7239 25.0006 17.6056 25.3837 17.4592 25.8795C17.3127 26.3753 17.1493 27.0344 16.969 27.8569C16.7887 28.6795 16.7211 29.4626 16.7662 30.2062C16.8113 30.9499 16.9915 31.502 17.307 31.8626C17.3521 31.9077 17.4141 31.9302 17.493 31.9302C17.5718 31.9302 17.6451 31.9189 17.7127 31.8964L17.9831 31.7612C18.0958 31.6936 18.1859 31.6485 18.2535 31.626C20.7324 28.7415 22.6479 25.2598 24 21.1809C25.3521 17.102 26.2197 12.8541 26.6028 8.43723C26.6028 8.39216 26.6141 8.30202 26.6366 8.16681C26.6592 7.87385 26.6817 7.62596 26.7042 7.42315L26.738 6.54427C26.7606 6.13864 26.7662 5.79498 26.7549 5.51329C26.7437 5.2316 26.7324 4.8823 26.7211 4.4654C26.7099 4.0485 26.6704 3.70484 26.6028 3.43441C26.5352 3.16399 26.4507 2.8654 26.3493 2.53864C26.2479 2.21188 26.1127 1.95836 25.9437 1.77808C25.7746 1.5978 25.5887 1.44005 25.3859 1.30484C25.1831 1.16963 24.9296 1.11329 24.6254 1.13582C24.3211 1.15836 23.9887 1.23723 23.6282 1.37244C23.4254 1.46258 23.2113 1.57526 22.9859 1.71047C22.7606 1.84568 22.5803 1.96963 22.4451 2.0823L21.8366 2.52174C21.5887 2.72456 21.4197 2.87103 21.3296 2.96118C19.9549 4.56117 19.0873 5.62033 18.7268 6.13864C17.307 8.23441 15.8479 10.8316 14.3493 13.9302C12.8507 17.0288 11.5493 20.1555 10.4451 23.3105C9.70141 26.2851 8.8 30.1048 7.74084 34.7696L6.79437 35.7161C7.9662 30.4429 9.07606 25.8231 10.1239 21.8569C11.1718 17.8908 12.3606 14.0034 13.6901 10.195C13.7352 10.0598 13.8366 9.78934 13.9944 9.38371L14.4676 8.20061C14.6028 7.84005 14.7437 7.41188 14.8901 6.9161C15.0366 6.42033 15.1437 5.97526 15.2113 5.58089C15.2789 5.18653 15.307 4.78089 15.2958 4.36399C15.2845 3.94709 15.2113 3.60343 15.0761 3.33301C15.031 3.2654 14.9746 3.22596 14.907 3.2147C14.8394 3.20343 14.7606 3.22033 14.6704 3.2654C14.5803 3.31047 14.4901 3.36681 14.4 3.43441L14.1296 3.70484C14.0169 3.79498 13.9268 3.86258 13.8592 3.90765C11.7408 6.25132 9.80282 8.74709 8.04507 11.395C6.28732 14.0429 4.73803 16.9555 3.39718 20.133C2.05634 23.3105 1.2507 26.2964 0.980282 29.0907L1.38592 28.5837L3.31268 26.2175C3.76338 25.6091 4.32676 24.826 5.00282 23.8682C5.67887 22.9105 6.20282 22.0485 6.57465 21.2823C6.94648 20.5161 7.17746 19.8288 7.26761 19.2203ZM27.7521 25.5077C29.1268 25.2598 31.0535 24.8203 33.5324 24.1893C33.5775 24.1668 33.6282 24.1217 33.6845 24.0541C33.7408 23.9865 33.7915 23.9302 33.8366 23.8851C33.8817 23.84 33.9211 23.795 33.9549 23.7499C33.9887 23.7048 34.0056 23.671 34.0056 23.6485C34.0056 23.626 33.9831 23.6034 33.938 23.5809C32.3155 23.2203 30.2535 23.8626 27.7521 25.5077ZM35.1887 24.4936L33.3972 24.9668C33.1268 25.44 32.9014 25.9133 32.7211 26.3865L31.7747 27.333C32.0225 26.6569 32.4169 25.902 32.9577 25.0682C30.0282 25.8119 27.8084 26.3076 26.2986 26.5555L27.2451 25.6091C30.4225 23.1978 32.969 22.2062 34.8845 22.6344C34.9521 22.6795 34.969 22.7302 34.9352 22.7865C34.9014 22.8429 34.8169 22.9386 34.6817 23.0738L34.4113 23.3443L33.9042 24.1217L36.1352 23.5471L35.1887 24.4936ZM38.9746 22.3978C38.7718 23.7724 38.569 24.8654 38.3662 25.6767C38.2986 25.9246 38.1239 26.2795 37.8423 26.7415C37.5606 27.2034 37.3859 27.5584 37.3183 27.8062L36.3718 28.7527C36.3944 28.1893 36.338 26.3189 36.2028 23.1415L35.831 23.5133C35.6958 22.6795 35.493 21.8231 35.2225 20.9443L36.169 19.9978C36.2366 20.0879 36.3493 20.2119 36.507 20.3696C36.6648 20.5274 36.7944 20.6795 36.8958 20.826C36.9972 20.9724 37.0704 21.1246 37.1155 21.2823C37.1831 21.5527 37.2507 23.4344 37.3183 26.9274C37.3634 26.8147 37.3972 26.7133 37.4197 26.6231C37.5549 26.0823 37.6789 25.4964 37.7915 24.8654L38.0958 22.7696L38.3662 20.9781L39.3127 20.0316C39.7634 20.933 40.0789 21.7893 40.2592 22.6006C40.3268 22.871 40.3944 23.0288 40.462 23.0738C40.5296 23.1189 40.7437 23.1189 41.1042 23.0738H41.307L40.3606 24.0203C40.3155 24.0203 40.2479 24.0316 40.1577 24.0541C39.7972 24.0767 39.5775 24.0654 39.4986 24.0203C39.4197 23.9753 39.3577 23.8175 39.3127 23.5471C39.2225 23.1415 39.1099 22.7584 38.9746 22.3978ZM41.4085 26.9612L40.462 27.9077C40.462 27.4795 40.4507 27.1358 40.4282 26.8767C40.4056 26.6175 40.4282 26.2851 40.4958 25.8795C40.5634 25.4738 40.6141 25.1584 40.6479 24.933C40.6817 24.7077 40.7549 24.4034 40.8676 24.0203L41.138 23.1077C41.2056 22.9048 41.3183 22.6119 41.4761 22.2288L41.8141 21.3499L42.1859 20.4034C42.3437 20.0203 42.4789 19.7048 42.5915 19.4569L43.538 18.5105C43.538 18.5781 43.4648 19.5077 43.3183 21.2992C43.1718 23.0908 43.1549 24.6288 43.2676 25.9133C43.3803 27.1978 43.6958 27.9189 44.2141 28.0767C44.3944 28.1217 44.569 28.0879 44.738 27.9753C44.907 27.8626 45.093 27.6936 45.2958 27.4682C45.4986 27.2429 45.6563 27.0964 45.769 27.0288L44.8225 27.9753C44.7099 28.0654 44.5521 28.2175 44.3493 28.4316C44.1465 28.6457 43.9606 28.8091 43.7915 28.9217C43.6225 29.0344 43.4479 29.0682 43.2676 29.0231C42.9296 28.933 42.6761 28.6231 42.507 28.0936C42.338 27.564 42.2592 26.8203 42.2704 25.8626C42.2817 24.9048 42.2986 24.133 42.3211 23.5471C42.3437 22.9612 42.4 22.1499 42.4901 21.1133C41.6563 23.2767 41.2958 25.226 41.4085 26.9612ZM42.5239 15.5358C42.6592 15.671 42.7268 15.8288 42.7268 16.0091C42.7268 16.1893 42.6592 16.3471 42.5239 16.4823C42.3887 16.6175 42.231 16.6851 42.0507 16.6851C41.8704 16.6851 41.7127 16.6175 41.5775 16.4823C41.4423 16.3471 41.3746 16.1893 41.3746 16.0091C41.3746 15.8288 41.4423 15.671 41.5775 15.5358C41.7127 15.4006 41.8704 15.333 42.0507 15.333C42.231 15.333 42.3887 15.4006 42.5239 15.5358ZM45.8366 25.5077C47.2113 25.2598 49.138 24.8203 51.6169 24.1893C51.662 24.1668 51.7127 24.1217 51.769 24.0541C51.8254 23.9865 51.8761 23.9302 51.9211 23.8851C51.9662 23.84 52.0056 23.795 52.0394 23.7499C52.0732 23.7048 52.0901 23.671 52.0901 23.6485C52.0901 23.626 52.0676 23.6034 52.0225 23.5809C50.4 23.2203 48.338 23.8626 45.8366 25.5077ZM53.2732 24.4936L51.4817 24.9668C51.2113 25.44 50.9859 25.9133 50.8056 26.3865L49.8592 27.333C50.107 26.6569 50.5014 25.902 51.0423 25.0682C48.1127 25.8119 45.893 26.3076 44.3831 26.5555L45.3296 25.6091C48.507 23.1978 51.0535 22.2062 52.969 22.6344C53.0366 22.6795 53.0535 22.7302 53.0197 22.7865C52.9859 22.8429 52.9014 22.9386 52.7662 23.0738L52.4958 23.3443L51.9887 24.1217L54.2197 23.5471L53.2732 24.4936ZM62.9746 14.0147C61.6676 14.3077 60.507 14.6344 59.493 14.995C59.493 15.0626 59.5155 15.1302 59.5606 15.1978C59.7408 15.4006 60.4958 15.671 61.8253 16.0091C62.231 15.2654 62.6141 14.6006 62.9746 14.0147ZM67.2338 8.74146L66.2535 9.99216L65.3408 11.1077C65.1606 11.333 64.9352 11.6372 64.6648 12.0203L63.9211 13.0682C65.3634 12.7527 67.3465 12.3922 69.8704 11.9865L76.2253 10.9386C77.9831 10.6457 79.8648 10.1668 81.8704 9.50202C83.8761 8.83723 85.5324 8.04286 86.8394 7.11892C86.9972 6.35272 86.9408 5.6823 86.6704 5.10765C86.4 4.53301 85.9944 4.0823 85.4535 3.75554C84.9127 3.42878 84.2648 3.16963 83.5099 2.97808C82.7549 2.78653 82.0394 2.66822 81.3634 2.62315C80.6873 2.57808 80 2.57808 79.3014 2.62315C76.9577 2.75836 74.8732 3.34427 73.0479 4.38089C71.2225 5.41751 69.2845 6.87103 67.2338 8.74146ZM77.1042 20.5724C76.6085 20.5724 76.1352 20.6062 75.6845 20.6738L75.8873 20.8091C76.293 20.7189 76.6986 20.64 77.1042 20.5724ZM64.293 24.3584C65.3296 24.133 66.8 23.6654 68.7042 22.9555C70.6084 22.2457 71.9211 21.7893 72.6423 21.5865C73.138 21.4513 73.6225 21.3274 74.0958 21.2147L73.7577 20.9781C70.8282 21.564 67.6732 22.6908 64.293 24.3584ZM62.062 25.5077L63.0084 24.5612C66.569 22.6231 69.8366 21.2598 72.8113 20.471L71.9662 20.0654C71.6732 19.9302 71.3577 19.795 71.0197 19.6598L70.1408 19.3555C69.9155 19.2654 69.6 19.164 69.1944 19.0513L68.3155 18.7809C68.1127 18.7358 67.7803 18.6513 67.3183 18.5274C66.8563 18.4034 66.569 18.3246 66.4563 18.2908C66.3437 18.2569 66.0282 18.1781 65.5099 18.0541C64.9915 17.9302 64.7099 17.8569 64.6648 17.8344C64.5972 17.8119 64.2141 17.7217 63.5155 17.564L61.7577 17.1922C61.2394 18.3415 60.8056 19.4851 60.4563 20.6231C60.107 21.7612 59.8535 22.9048 59.6958 24.0541C59.538 25.2034 59.4986 26.2626 59.5775 27.2316C59.6563 28.2006 59.9155 29.0569 60.3549 29.8006C60.7944 30.5443 61.3972 31.1077 62.1634 31.4908C62.9296 31.8738 63.9662 32.0316 65.2732 31.964C66.5803 31.8964 68.0901 31.5584 69.8028 30.9499C70.8169 30.5893 72.2817 29.8795 74.1972 28.8203L75.3803 28.1443C75.7408 27.9415 76.0451 27.7612 76.293 27.6034L77.1042 27.0626L77.8141 26.6231C77.9718 26.5105 78.2085 26.3302 78.5239 26.0823L79.2 25.5415L80.0113 24.8992L80.8563 24.1893L80.9577 24.0879C81.2056 23.7499 81.3859 23.4908 81.4986 23.3105L81.9042 22.702C82.0845 22.4316 82.1859 22.2288 82.2085 22.0936C82.231 21.9584 82.2423 21.8062 82.2423 21.6372C82.2423 21.4682 82.1746 21.3274 82.0394 21.2147C81.9042 21.102 81.7239 21.0006 81.4986 20.9105C80.3718 20.9105 78.8282 21.0682 76.8676 21.3837L76.631 21.4175C77.6676 22.364 78.4338 23.4457 78.9296 24.6626L77.9831 25.6091C77.3746 24.0992 76.3493 22.8147 74.907 21.7555C73.8479 21.9809 72.7775 22.24 71.6958 22.533C71.2 22.6682 69.7803 23.164 67.4366 24.0203C65.093 24.8767 63.3014 25.3724 62.062 25.5077ZM83.1887 21.0457C83.1437 21.1809 83.0873 21.3217 83.0197 21.4682C82.9521 21.6147 82.8507 21.7893 82.7155 21.9922C82.5803 22.195 82.4676 22.364 82.3775 22.4992L81.9042 23.1077C81.7014 23.3781 81.5549 23.5809 81.4648 23.7161L80.5183 24.6626L79.2 25.7443L78.0507 26.6908C77.8254 26.8485 77.5099 27.0739 77.1042 27.3668L76.0225 28.1105C75.7296 28.3133 75.3465 28.5612 74.8732 28.8541L73.2507 29.7668C71.3352 30.826 69.8704 31.5358 68.8563 31.8964C67.0535 32.5274 65.4817 32.871 64.1408 32.9274C62.8 32.9837 61.7521 32.7865 60.9972 32.3358C60.2423 31.8851 59.6563 31.2485 59.2394 30.426C58.8225 29.6034 58.6028 28.6682 58.5803 27.6203C58.5577 26.5724 58.6592 25.4344 58.8845 24.2062C59.1099 22.9781 59.4253 21.7724 59.831 20.5893C60.2366 19.4062 60.7211 18.24 61.2845 17.0908C59.707 16.7077 58.8169 16.3922 58.6141 16.1443C58.569 16.0316 58.5465 15.9415 58.5465 15.8739C58.5465 15.8062 58.569 15.7048 58.6141 15.5696C58.6592 15.4344 58.6817 15.333 58.6817 15.2654L59.6282 14.3189C60.7549 13.8908 62.062 13.5077 63.5493 13.1696C63.6845 12.9893 64.6648 11.7499 66.4901 9.45132L67.4366 8.50484C68.5408 7.46822 69.5042 6.61188 70.3268 5.93582C71.1493 5.25977 72.1014 4.58371 73.1831 3.90765C74.2648 3.2316 75.3915 2.70765 76.5634 2.33582C77.7352 1.96399 78.9634 1.74427 80.2479 1.67667C80.9465 1.6316 81.6507 1.6316 82.3606 1.67667C83.0704 1.72174 83.8084 1.84568 84.5746 2.0485C85.3408 2.25132 85.9887 2.52174 86.5183 2.85977C87.0479 3.19779 87.4366 3.67667 87.6845 4.29639C87.9324 4.9161 87.9437 5.6316 87.7183 6.44287L86.7718 7.38934C85.7577 8.24568 84.5465 8.99498 83.138 9.63723C81.7296 10.2795 80.1803 10.7978 78.4901 11.1922C76.8 11.5865 75.1887 11.9077 73.6563 12.1555L68.3155 13.0344C66.3099 13.3499 64.676 13.6541 63.4141 13.9471C63.1211 14.4429 62.8056 15.0175 62.4676 15.671L62.231 16.1443C62.8169 16.2795 63.5155 16.4316 64.3268 16.6006C65.138 16.7696 65.5662 16.8654 65.6113 16.8879C65.6563 16.8879 65.9437 16.9555 66.4732 17.0908C67.0028 17.226 67.3183 17.3105 67.4197 17.3443C67.5211 17.3781 67.8197 17.4569 68.3155 17.5809C68.8113 17.7048 69.138 17.7893 69.2958 17.8344C69.4535 17.8795 69.7521 17.9696 70.1915 18.1048C70.631 18.24 70.9521 18.3527 71.1549 18.4429L72.0338 18.7809C72.4169 18.9161 72.738 19.04 72.9972 19.1527C73.2563 19.2654 73.538 19.4006 73.8423 19.5584C74.1465 19.7161 74.4338 19.8738 74.7042 20.0316C75.1549 19.9415 75.5944 19.8626 76.0225 19.795C77.2845 19.5922 78.7268 19.5358 80.3493 19.626C81.3183 19.671 82.0169 19.7837 82.4451 19.964C85.7352 19.964 86.5915 21.102 85.0141 23.3781C84.7887 23.7161 84.5239 24.0541 84.2197 24.3922C83.9155 24.7302 83.5493 25.1133 83.1211 25.5415L82.2085 26.4541C81.8028 26.9048 80.8113 27.9189 79.2338 29.4964C77.6563 31.0739 76.4056 32.4147 75.4817 33.5189C74.5352 34.6457 73.7127 35.8175 73.0141 37.0344C71.662 39.3781 71.4141 40.9781 72.2704 41.8344C72.4507 42.0147 72.6704 42.1612 72.9296 42.2738C73.1887 42.3865 73.4873 42.4936 73.8254 42.595C74.1634 42.6964 74.4225 42.7922 74.6028 42.8823L73.6563 43.8288C73.4761 43.7612 73.2169 43.671 72.8789 43.5584C72.5408 43.4457 72.2423 43.333 71.9831 43.2203C71.7239 43.1077 71.5042 42.9612 71.3239 42.7809C70.4676 41.9246 70.7155 40.3246 72.0676 37.9809C72.7662 36.7865 73.5831 35.6316 74.5183 34.5161C75.4535 33.4006 76.6986 32.0541 78.2535 30.4767L81.262 27.4006C81.4423 27.1978 81.7408 26.8879 82.1577 26.471C82.5746 26.0541 82.9352 25.6767 83.2394 25.3386C83.5437 25.0006 83.8197 24.6626 84.0676 24.3246C85.3296 22.5217 85.0366 21.4288 83.1887 21.0457ZM91.8084 23.7837L90.862 24.7302C89.7803 25.7217 88.6761 26.4541 87.5493 26.9274C86.5127 27.3781 86.0394 27.2541 86.1296 26.5555C86.1746 26.0372 86.5352 25.2372 87.2113 24.1555L88.1577 23.2091C86.8507 25.3274 86.693 26.3302 87.6845 26.2175C88.4507 26.1274 89.5775 25.5302 91.0648 24.426C91.4028 23.7274 91.1662 23.3893 90.3549 23.4119C90.1521 23.4119 89.8028 23.4457 89.307 23.5133C88.969 23.5584 88.7324 23.5809 88.5972 23.5809L89.5437 22.6344C89.6113 22.6344 89.9606 22.5893 90.5915 22.4992C90.1408 21.8231 89.3296 22.0598 88.1577 23.2091L88.5972 22.7696L89.1718 22.195C89.3296 22.0372 89.5155 21.8626 89.7296 21.671C89.9437 21.4795 90.1408 21.3499 90.3211 21.2823C90.5014 21.2147 90.6817 21.1696 90.862 21.1471C91.0423 21.1246 91.2113 21.1865 91.369 21.333C91.5268 21.4795 91.6507 21.6992 91.7408 21.9922L91.3014 22.4316C91.7296 22.4316 92 22.5161 92.1127 22.6851C92.2253 22.8541 92.1239 23.2203 91.8084 23.7837ZM93.4648 21.0119L94.4113 20.0654C93.9606 20.9668 93.431 22.1893 92.8225 23.733C92.2141 25.2767 92.0225 26.2062 92.2479 26.5217C92.293 26.5893 92.3493 26.6344 92.4169 26.6569C92.4845 26.6795 92.5803 26.7077 92.7042 26.7415C92.8282 26.7753 92.9127 26.7922 92.9577 26.7922C93.9042 25.733 94.8507 24.595 95.7972 23.3781L95.831 23.3443C96.169 22.826 96.4845 22.364 96.7775 21.9584L97.9944 20.4372L98.9408 19.4908L96.7775 22.4316C96.4845 22.8823 96.2479 23.2767 96.0676 23.6147C95.8873 23.9527 95.7521 24.2344 95.662 24.4598C95.5718 24.6851 95.538 24.8541 95.5606 24.9668C95.5831 25.0795 95.6169 25.164 95.662 25.2203C95.707 25.2767 95.8197 25.2823 96 25.2372C96.1803 25.1922 96.3324 25.1415 96.4563 25.0851C96.5803 25.0288 96.7775 24.933 97.0479 24.7978L97.6901 24.426L98.3662 24.0203L98.8732 23.7161C99.0085 23.626 99.1662 23.5302 99.3465 23.4288C99.5268 23.3274 99.6845 23.2429 99.8197 23.1753C99.9549 23.1077 100.068 23.0626 100.158 23.04C100.18 23.0175 100.231 22.995 100.31 22.9724C100.389 22.9499 100.456 22.9274 100.513 22.9048C100.569 22.8823 100.631 22.8654 100.699 22.8541C100.766 22.8429 100.817 22.8485 100.851 22.871C100.885 22.8936 100.913 22.9274 100.935 22.9724C101.003 23.1077 100.963 23.3274 100.817 23.6316C100.67 23.9358 100.631 24.1555 100.699 24.2908C100.924 24.7415 101.273 25.0231 101.746 25.1358C102.22 25.2485 102.659 25.2541 103.065 25.1527C103.47 25.0513 103.955 24.8992 104.518 24.6964C105.082 24.4936 105.408 24.3809 105.499 24.3584L104.552 25.3048C104.462 25.3274 104.135 25.44 103.572 25.6429C103.008 25.8457 102.524 25.9978 102.118 26.0992C101.713 26.2006 101.268 26.195 100.783 26.0823C100.299 25.9696 99.9549 25.6879 99.7521 25.2372C99.6845 25.102 99.7183 24.8823 99.8535 24.5781C99.9887 24.2739 100.034 24.0541 99.9887 23.9189C99.9662 23.8738 99.9324 23.8457 99.8873 23.8344C99.8423 23.8231 99.7972 23.8288 99.7521 23.8513H99.5493C99.5042 23.8738 99.4422 23.902 99.3634 23.9358C99.2845 23.9696 99.2338 23.9865 99.2113 23.9865C99.031 24.0541 98.1859 24.5274 96.676 25.4062C95.3014 26.2175 94.6028 26.3865 94.5803 25.9133C94.5803 25.5978 94.8056 25.0569 95.2563 24.2908C94.5127 25.1696 93.7577 26.0147 92.9915 26.826L92.0451 27.7724C91.9775 27.7499 91.8873 27.7274 91.7746 27.7048C91.662 27.6823 91.5662 27.6541 91.4873 27.6203C91.4084 27.5865 91.3465 27.5358 91.3014 27.4682C91.076 27.1527 91.262 26.2288 91.8592 24.6964C92.4563 23.164 92.9915 21.9358 93.4648 21.0119ZM106.411 22.364C105.059 23.964 104.62 25.0569 105.093 25.6429C105.408 25.1471 106.355 23.8964 107.932 21.8908C108.428 21.2823 108.608 20.9781 108.473 20.9781C108.293 21.0006 107.606 21.4626 106.411 22.364ZM104.924 27.0626L104.079 27.9077C104.101 27.6147 104.214 27.2654 104.417 26.8598C103.47 26.2738 104.023 24.8654 106.073 22.6344L107.02 21.6879C108.665 20.426 109.487 19.8851 109.487 20.0654C109.487 20.1555 108.901 20.9217 107.73 22.364C106.558 23.8738 105.769 25.0457 105.363 25.8795C105.746 26.1048 106.332 26.2288 107.121 26.2513C107.91 26.2738 108.93 26.24 110.18 26.1499C111.431 26.0598 112.361 26.0147 112.969 26.0147L112.023 26.9612C111.414 26.9612 110.541 27.0006 109.403 27.0795C108.265 27.1584 107.425 27.2034 106.885 27.2147C106.344 27.226 105.69 27.1753 104.924 27.0626ZM113.375 23.4457L112.563 23.9189L113.51 22.9724C114.614 22.2738 115.623 21.8682 116.535 21.7555C117.448 21.6429 117.932 21.8851 117.989 22.4823C118.045 23.0795 117.465 24.0879 116.248 25.5077L115.301 26.4541L114.051 27.6034C114.456 27.5584 114.963 27.4795 115.572 27.3668L117.025 27.0964C117.386 27.0288 117.87 26.9837 118.479 26.9612C119.087 26.9386 119.594 26.995 120 27.1302L119.054 28.0767C118.625 27.9415 118.101 27.8908 117.482 27.9246C116.862 27.9584 116.366 28.0034 115.994 28.0598C115.623 28.1161 115.132 28.2006 114.524 28.3133C113.915 28.426 113.408 28.5048 113.003 28.5499L113.949 27.6034L115.673 26.0485C117.093 24.3358 117.431 23.2654 116.687 22.8372C116.034 22.4541 114.93 22.6569 113.375 23.4457Z" fill="#141F19"/>
</svg>
